<svg width="20" height="20" viewBox="0 0 20 20" fill="none" xmlns="http://www.w3.org/2000/svg">
<g clip-path="url(#clip0_122_1989)">
<path d="M11.3868 0.0972998H11.3624C11.2164 0.0729639 11.0705 0.0486279 10.9002 0.0486279H10.7542C10.6325 0.0486279 10.5352 0.024292 10.4136 0.024292H9.48898C9.41598 0.024292 9.34301 0.024292 9.27 0.0486279C9.19699 0.0486279 9.14836 0.0486279 9.07535 0.0729639C9.00234 0.0729639 8.92938 0.0972998 8.8807 0.0972998C8.8077 0.0972998 8.75906 0.121636 8.68606 0.121636C8.61305 0.121636 8.54008 0.145972 8.49141 0.145972C8.4184 0.145972 8.36977 0.170308 8.29676 0.170308C8.22375 0.170308 8.15078 0.194644 8.10211 0.21894C8.05348 0.21894 7.98047 0.243276 7.9318 0.243276C7.85879 0.267612 7.81016 0.267612 7.73715 0.291909C7.68852 0.316245 7.61551 0.316245 7.56684 0.340581C7.49383 0.364917 7.4452 0.364917 7.37219 0.389214C7.32355 0.41355 7.25055 0.41355 7.20187 0.437847C7.12887 0.462183 7.08023 0.48648 7.00723 0.48648C6.95859 0.510815 6.88559 0.510815 6.83691 0.535112C6.76391 0.559448 6.71527 0.583745 6.64227 0.60812C6.59363 0.632456 6.52063 0.656753 6.47195 0.656753C6.39895 0.681089 6.35031 0.705386 6.2773 0.729761C6.22867 0.754097 6.17996 0.778394 6.10699 0.802769C6.03402 0.827144 5.98535 0.851401 5.91234 0.875776L5.76637 0.948784C5.69336 0.97312 5.64473 1.02179 5.57172 1.04609L5.42574 1.1191C5.35273 1.14343 5.3041 1.1921 5.23109 1.2164L5.08512 1.28937C5.01211 1.31371 4.96344 1.36234 4.89047 1.41101L4.74449 1.48398C4.67152 1.53261 4.59852 1.58132 4.54984 1.60562C4.50117 1.62992 4.13621 1.89757 4.13621 1.89757C4.13621 1.89757 2.31141 0.510698 1.58148 0.145776C0.851562 -0.219146 0 0.291753 0 1.11902V10.0241C0 15.3039 4.11191 19.6348 9.31875 19.9755H10.4623C10.5596 19.9755 10.6326 19.9755 10.7299 19.9512C10.8029 19.9512 10.9002 19.9512 10.9732 19.9268C11.0705 19.9268 11.1435 19.9025 11.2408 19.9025C11.3138 19.9025 11.4111 19.8782 11.4841 19.8782C11.5571 19.8538 11.6544 19.8538 11.7274 19.8295C11.8004 19.8052 11.8977 19.8052 11.9707 19.7809C12.0436 19.7566 12.141 19.7323 12.2139 19.7323C12.2869 19.7079 12.3599 19.7079 12.4572 19.6836L12.7005 19.6107L12.9195 19.5377L13.1628 19.4647L13.3818 19.3918C13.4547 19.3674 13.5277 19.3431 13.625 19.2944C13.698 19.2701 13.771 19.2458 13.844 19.1971C13.917 19.1728 13.99 19.1242 14.063 19.0998C14.136 19.0755 14.209 19.0269 14.282 19.0025C14.355 18.9782 14.428 18.9296 14.501 18.8809C14.5739 18.8565 14.647 18.8079 14.72 18.7836C14.7929 18.7349 14.8659 18.7106 14.9389 18.6619C15.012 18.6132 15.0849 18.5889 15.1336 18.5402C15.2066 18.4916 15.2796 18.4429 15.3526 18.4185C15.4255 18.3699 15.4743 18.3455 15.5472 18.2968C15.6202 18.2481 15.6932 18.1995 15.7419 18.1509C15.8148 18.1022 15.8636 18.0535 15.9365 18.0049C16.0095 17.9562 16.0582 17.9076 16.1312 17.8589C16.2041 17.8103 16.2529 17.7616 16.3258 17.7129C16.3988 17.6643 16.4475 17.6156 16.5205 17.5426C16.5691 17.494 16.6421 17.4453 16.6908 17.3966C16.7638 17.348 16.8125 17.275 16.8611 17.2263C16.9097 17.1777 16.9828 17.129 17.0314 17.056L17.2017 16.8857C17.2504 16.8371 17.299 16.7884 17.3477 16.7154C17.3964 16.6424 17.4207 16.5937 17.4694 16.5207C17.518 16.4721 17.5667 16.3991 17.6154 16.3504C17.664 16.2775 17.7127 16.2287 17.7613 16.1558C17.81 16.0828 17.8586 16.0341 17.9073 15.9611C17.956 15.8882 18.0046 15.8152 18.0533 15.7665C18.102 15.7178 18.1506 15.6448 18.1993 15.5718L18.3452 15.3528C18.3939 15.2799 18.4182 15.2312 18.4669 15.1582C18.5156 15.0852 18.5399 15.0122 18.5886 14.9392C18.6373 14.8662 18.6616 14.8175 18.7103 14.7446C18.759 14.6716 18.7832 14.5986 18.832 14.5256C18.8563 14.4526 18.9049 14.3796 18.9293 14.3309C18.9779 14.258 19.0022 14.185 19.0266 14.0877C19.0509 14.0147 19.0995 13.9417 19.1239 13.8687C19.1482 13.7957 19.1968 13.6984 19.2212 13.6254L19.2941 13.4064C19.3185 13.3334 19.3428 13.2361 19.3914 13.1631L19.4644 12.9441L19.5374 12.6765L19.6104 12.4575L19.6833 12.1899C19.7077 12.1169 19.7077 12.0439 19.732 11.9709C19.7563 11.8736 19.7563 11.7763 19.7806 11.7033C19.8049 11.6303 19.8049 11.5573 19.8292 11.4843C19.8536 11.387 19.8536 11.2897 19.8779 11.1924C19.8779 11.1194 19.9022 11.0464 19.9022 10.9977C19.9022 10.876 19.9265 10.7787 19.9265 10.6571C19.9265 10.6085 19.9265 10.5354 19.9509 10.4868C19.9509 10.3165 19.9509 10.1705 19.9752 10.0002V9.97585C19.9752 4.93933 16.2282 0.778745 11.3864 0.0974951L11.3868 0.0972998ZM15.742 8.7348L9.95125 14.5012C9.58629 14.8905 9.07535 15.0852 8.58871 15.0852C8.10207 15.0852 7.59117 14.8905 7.20184 14.5255L4.1118 11.4112C3.35754 10.6569 3.35754 9.41601 4.1118 8.66175C4.86605 7.9075 6.10695 7.9075 6.86121 8.66175L8.58871 10.3893L12.9926 5.98535C13.7469 5.23109 14.9877 5.23109 15.742 5.98535C16.4963 6.7396 16.4963 7.9805 15.742 8.73476V8.7348Z" fill="white"/>
</g>
<defs>
<clipPath id="clip0_122_1989">
<rect width="20" height="20" fill="white"/>
</clipPath>
</defs>
</svg>
