<svg width="60" height="60" viewBox="0 0 60 60" fill="none" xmlns="http://www.w3.org/2000/svg">
<g clip-path="url(#clip0_122_1700)">
<path d="M41.4258 1.00781C37.4648 1.60547 34.4766 3.04688 31.8867 5.625C30.293 7.20703 29.1094 9 28.2773 11.0977C28.043 11.6953 27.8203 12.1758 27.7852 12.1641C27.75 12.1406 27.1641 11.8477 26.4844 11.5195C24.9727 10.7578 23.7656 10.4414 22.0898 10.3477C19.9219 10.2422 17.8242 10.7461 15.8672 11.8477C14.543 12.5859 12.5625 14.5898 11.8125 15.9258C11.332 16.7812 10.6875 18.5273 10.5 19.4648C10.4414 19.7344 10.3594 19.7812 9.87891 19.8516C9.57422 19.8867 8.89453 20.1328 8.36719 20.3906C4.39453 22.3125 3.45703 27.668 6.5625 30.7969C7.38281 31.6172 8.00391 32.0156 9.12891 32.4375C9.82031 32.707 10.125 32.7422 11.9883 32.7891L14.0625 32.8359V34.6992V36.5625H11.25H8.4375V39.375V42.1875H5.90625C4.25391 42.1875 3.19922 42.2344 2.88281 42.3281C2.23828 42.5156 1.26562 43.4883 1.07812 44.1328C0.878906 44.8125 0.878906 52.6875 1.07812 53.3672C1.26562 54.0117 2.23828 54.9844 2.88281 55.1719C3.15234 55.2539 3.87891 55.3125 4.5 55.3125H5.625V56.25V57.1875H4.6875H3.75V58.125V59.0625H9.375H15V58.125V57.1875H14.0625H13.125V56.25V55.3125H14.25C15.75 55.3125 16.2187 55.1602 16.9336 54.4336C17.7539 53.6133 17.8125 53.3555 17.8125 50.3438V47.8125H19.6875H21.5625V50.3438C21.5625 53.3555 21.6211 53.6133 22.4414 54.4336C23.1562 55.1602 23.625 55.3125 25.125 55.3125H26.25V56.25V57.1875H25.3125H24.375V58.125V59.0625H30H35.625V58.125V57.1875H34.6875H33.75V56.25V55.3125H34.875C36.375 55.3125 36.8437 55.1602 37.5586 54.4336C38.3789 53.6133 38.4375 53.3555 38.4375 50.3438V47.8125H40.3125H42.1875V50.3438C42.1875 53.3555 42.2461 53.6133 43.0664 54.4336C43.7812 55.1602 44.25 55.3125 45.75 55.3125H46.875V56.25V57.1875H45.9375H45V58.125V59.0625H50.625H56.25V58.125V57.1875H55.3125H54.375V56.25V55.3125H55.5C56.1211 55.3125 56.8477 55.2539 57.1172 55.1719C57.7617 54.9844 58.7344 54.0117 58.9219 53.3672C59.1211 52.6992 59.1211 44.8125 58.9219 44.1562C58.8516 43.8984 58.5586 43.4297 58.2773 43.125C57.5039 42.2578 57.1758 42.1875 54.1172 42.1875H51.5625V39.375V36.5625H48.75H45.9375L45.9609 34.5586L45.9961 32.5547L47.0625 32.2852C52.9922 30.7852 57.5742 25.9219 58.793 19.8281C59.0742 18.4219 59.0742 15.3281 58.793 13.9219C58.5469 12.7148 57.9023 10.8047 57.3984 9.79688C55.1719 5.36719 50.9648 2.16797 46.1484 1.23047C45.2109 1.04297 42.1406 0.902344 41.4258 1.00781ZM44.2383 3.05859C45.0234 3.35156 46.1016 4.30078 46.7812 5.30859C47.2266 5.96484 48.0469 7.59375 48.2227 8.16797L48.293 8.4375H43.125H37.957L38.0273 8.16797C38.2031 7.59375 39.0234 5.96484 39.4687 5.30859C40.125 4.33594 41.2266 3.35156 41.9766 3.05859C42.7734 2.75391 43.4297 2.75391 44.2383 3.05859ZM38.2031 3.79688C38.2031 3.82031 38.0156 4.125 37.7812 4.46484C37.2891 5.17969 36.457 6.90234 36.1641 7.81641L35.9531 8.4375H33.9023H31.8516L32.4609 7.73438C33.7031 6.29297 35.25 5.10938 36.9609 4.26562C37.9453 3.78516 38.2031 3.67969 38.2031 3.79688ZM49.0664 4.16016C50.4844 4.81641 51.8789 5.8125 53.1211 7.05469C53.7422 7.67578 54.2578 8.25 54.2578 8.32031C54.2578 8.39062 53.5547 8.4375 52.2773 8.4375H50.2969L50.0977 7.81641C49.8047 6.94922 48.9609 5.21484 48.4687 4.46484C48.2344 4.125 48.0469 3.82031 48.0469 3.79688C48.0469 3.70312 48.1875 3.76172 49.0664 4.16016ZM35.3555 10.5703C35.1094 11.5664 34.7109 14.7305 34.6875 15.8438C34.6875 15.9023 33.9258 15.9375 32.9883 15.9375H31.2891L31.0078 15.4922C30.8555 15.2344 30.4453 14.707 30.1055 14.2969L29.4844 13.5469L29.6719 12.8438C29.7773 12.4453 30.0469 11.7188 30.2812 11.2148L30.6914 10.3125H33.0586H35.4141L35.3555 10.5703ZM49.0664 11.0156C49.2305 11.7422 49.5234 13.8164 49.6289 15.082L49.6992 15.9375H43.125H36.5391L36.6211 15.0234C36.75 13.3828 37.1836 10.6758 37.3477 10.3945C37.3711 10.3477 39.9961 10.3242 43.1602 10.3359L48.9258 10.3711L49.0664 11.0156ZM55.8164 10.8633C56.3789 11.9766 56.8828 13.7227 57.0469 15.082L57.1406 15.9375H54.375H51.5977L51.5156 15.4922C51.4805 15.2578 51.4453 14.8242 51.4453 14.5312C51.4453 14.0039 51.0703 11.25 50.918 10.6289L50.8359 10.3125H53.1914H55.5469L55.8164 10.8633ZM23.2266 12.3516C27.5742 13.1953 30.6211 16.6758 30.9023 21.1172C30.9375 21.75 30.9844 22.2656 30.9961 22.2656C31.0195 22.2656 31.3945 22.125 31.8281 21.9492C32.4961 21.6914 32.8242 21.6328 33.75 21.6328C34.7695 21.6211 34.9336 21.6562 35.6484 21.9961C36.7383 22.5117 37.418 23.168 37.9453 24.2344C38.3555 25.0781 38.3789 25.1836 38.3789 26.2383C38.3789 27.2578 38.3437 27.4336 38.0039 28.1484C37.4883 29.2383 36.832 29.918 35.7656 30.4453L34.875 30.8789H22.5H10.125L9.23437 30.4453C8.16797 29.918 7.51172 29.2383 6.99609 28.1484C6.65625 27.4336 6.62109 27.2578 6.62109 26.25C6.62109 25.2422 6.65625 25.0664 6.99609 24.3516C7.5 23.2734 8.17969 22.582 9.21094 22.0781C9.9375 21.7148 10.2187 21.6445 11.1094 21.5859L12.1641 21.5273L12.2344 20.7539C12.4922 18.1875 13.7227 15.8438 15.6211 14.2969C16.793 13.3359 18.75 12.4688 20.2148 12.2695C21.0234 12.1641 22.418 12.1992 23.2266 12.3516ZM34.7344 18.2461C34.7695 18.4922 34.8047 18.9258 34.8047 19.2188V19.7461L33.7266 19.7344L32.6484 19.7109L32.4492 18.8555C32.332 18.375 32.2383 17.9531 32.2266 17.8945C32.2266 17.8477 32.7773 17.8125 33.4453 17.8125H34.6523L34.7344 18.2461ZM49.6289 18.7148C49.5352 19.8984 49.2539 21.9141 49.0664 22.7344L48.9258 23.3789L44.2969 23.4023L39.668 23.4375L39.3164 22.8398C38.9062 22.125 37.793 20.9883 37.2187 20.6836C36.832 20.4727 36.8086 20.4258 36.7383 19.6992C36.7031 19.2656 36.6445 18.6797 36.6094 18.3633L36.5508 17.8125H43.1367H49.7109L49.6289 18.7148ZM57.0469 18.6562C56.8828 20.0273 56.3789 21.7734 55.8164 22.875L55.5469 23.4375H53.1914H50.8359L50.918 23.1094C51.0703 22.5 51.4453 19.7461 51.4453 19.2188C51.4453 18.9258 51.4805 18.4922 51.5156 18.2461L51.5977 17.8125H54.375H57.1406L57.0469 18.6562ZM48.2227 25.5703C48.0469 26.1562 47.2266 27.7852 46.7812 28.4414C46.0898 29.4492 45.0234 30.3984 44.2148 30.7031C43.6172 30.9375 43.3945 30.9609 42.3047 30.8906C41.3086 30.832 39.0937 30.457 38.9531 30.3164C38.9414 30.3047 39.1055 30 39.3164 29.6602C39.9609 28.6523 40.2422 27.6562 40.2422 26.4023L40.2539 25.3125H44.2734H48.293L48.2227 25.5703ZM54.2578 25.4297C54.2578 25.6875 51.9023 27.8789 50.9648 28.5117C49.9805 29.168 48.1992 30.0703 48.0937 29.9648C48.0586 29.9414 48.2344 29.6367 48.4687 29.2852C48.9609 28.5352 49.8047 26.8008 50.0977 25.9219L50.2969 25.3125H52.2773C53.4961 25.3125 54.2578 25.3594 54.2578 25.4297ZM38.3203 32.0391C39.7266 32.4961 40.9687 32.707 42.5742 32.7773L44.0625 32.8477V35.6484V38.4375H46.875H49.6875V40.3125V42.1875H47.1562C44.1445 42.1875 43.8867 42.2461 43.0664 43.0664C42.3984 43.7227 42.1875 44.2617 42.1875 45.2812V45.9375H40.3125H38.4375V45.2812C38.4375 44.332 38.2266 43.7695 37.6523 43.125C36.8789 42.2578 36.5508 42.1875 33.4922 42.1875H30.9375V37.5117V32.8359L33.0234 32.7891C35.1914 32.7305 35.6953 32.625 36.8672 32.0156C37.1133 31.875 37.3477 31.7695 37.3828 31.7695C37.418 31.7578 37.8398 31.8867 38.3203 32.0391ZM29.0625 37.5V42.1875H26.5312C23.5195 42.1875 23.2617 42.2461 22.4414 43.0664C21.7734 43.7227 21.5625 44.2617 21.5625 45.2812V45.9375H19.6875H17.8125V45.2812C17.8125 44.332 17.6016 43.7695 17.0273 43.125C16.2539 42.2578 15.9258 42.1875 12.8672 42.1875H10.3125V40.3125V38.4375H13.125H15.9375V35.625V32.8125H22.5H29.0625V37.5ZM15.6445 44.3555C15.9375 44.6367 15.9375 44.6367 15.9375 47.168V49.6875H9.375H2.8125V47.168C2.8125 44.6367 2.8125 44.6367 3.10547 44.3555L3.38672 44.0625H9.375H15.3633L15.6445 44.3555ZM36.2695 44.3555C36.5625 44.6367 36.5625 44.6367 36.5625 47.168V49.6875H30H23.4375V47.168C23.4375 44.6367 23.4375 44.6367 23.7305 44.3555L24.0117 44.0625H30H35.9883L36.2695 44.3555ZM56.8945 44.3555C57.1875 44.6367 57.1875 44.6367 57.1875 47.168V49.6875H50.625H44.0625V47.168C44.0625 44.6367 44.0625 44.6367 44.3555 44.3555L44.6367 44.0625H50.625H56.6133L56.8945 44.3555ZM15.9375 52.207C15.9375 52.7461 15.8906 52.9102 15.6445 53.1445L15.3633 53.4375H9.375H3.38672L3.10547 53.1445C2.85937 52.9102 2.8125 52.7461 2.8125 52.207V51.5625H9.375H15.9375V52.207ZM36.5625 52.207C36.5625 52.7461 36.5156 52.9102 36.2695 53.1445L35.9883 53.4375H30H24.0117L23.7305 53.1445C23.4844 52.9102 23.4375 52.7461 23.4375 52.207V51.5625H30H36.5625V52.207ZM57.1875 52.207C57.1875 52.7461 57.1406 52.9102 56.8945 53.1445L56.6133 53.4375H50.625H44.6367L44.3555 53.1445C44.1094 52.9102 44.0625 52.7461 44.0625 52.207V51.5625H50.625H57.1875V52.207ZM11.25 56.25V57.1875H9.375H7.5V56.25V55.3125H9.375H11.25V56.25ZM31.875 56.25V57.1875H30H28.125V56.25V55.3125H30H31.875V56.25ZM52.5 56.25V57.1875H50.625H48.75V56.25V55.3125H50.625H52.5V56.25Z" fill="white"/>
<path d="M21.5625 14.9766V15.8906L22.3945 16.0195C24.1992 16.3008 25.8633 17.543 26.6133 19.1602C26.8125 19.582 27 19.9219 27.0352 19.9219C27.0703 19.9219 27.4688 19.8164 27.9023 19.6875C28.4062 19.5352 28.7109 19.3828 28.7109 19.2773C28.7109 18.9609 27.7734 17.3203 27.2461 16.6875C26.6016 15.9375 25.4883 15.1172 24.5508 14.707C23.8477 14.3906 22.4883 14.0625 21.9023 14.0625H21.5625V14.9766Z" fill="white"/>
<path d="M14.0626 23.5898C13.84 23.6602 13.3829 23.9883 13.0665 24.3164C12.2345 25.1367 12.0001 26.0156 12.3282 27.1172C12.5157 27.7617 13.4884 28.7344 14.1329 28.9219C15.2345 29.25 16.1134 29.0156 16.9337 28.1836C18.0821 27.0469 18.1173 25.582 17.0275 24.375C16.2657 23.5313 15.1759 23.2383 14.0626 23.5898ZM15.6446 25.6055C16.2306 26.1797 15.8204 27.1875 15.0001 27.1875C14.5196 27.1875 14.0626 26.7305 14.0626 26.25C14.0626 25.7695 14.5196 25.3125 15.0001 25.3125C15.2228 25.3125 15.4689 25.418 15.6446 25.6055Z" fill="white"/>
<path d="M21.5626 23.5898C20.9884 23.7773 20.004 24.7852 19.8282 25.3828C19.5001 26.4844 19.7345 27.3633 20.5665 28.1836C21.1642 28.793 21.7618 29.0625 22.5001 29.0625C23.2384 29.0625 23.8361 28.793 24.4337 28.1836C25.5821 27.0469 25.6173 25.582 24.5275 24.375C23.7657 23.5312 22.6759 23.2383 21.5626 23.5898ZM23.1446 25.6055C23.7306 26.1797 23.3204 27.1875 22.5001 27.1875C22.0196 27.1875 21.5626 26.7305 21.5626 26.25C21.5626 25.7695 22.0196 25.3125 22.5001 25.3125C22.7228 25.3125 22.9689 25.418 23.1446 25.6055Z" fill="white"/>
<path d="M29.0626 23.5898C28.4884 23.7773 27.504 24.7852 27.3282 25.3828C27.0001 26.4844 27.2345 27.3633 28.0665 28.1836C28.6642 28.793 29.2618 29.0625 30.0001 29.0625C30.7384 29.0625 31.3361 28.793 31.9337 28.1836C33.0821 27.0469 33.1173 25.582 32.0275 24.375C31.2657 23.5312 30.1759 23.2383 29.0626 23.5898ZM30.6446 25.6055C30.8321 25.7812 30.9376 26.0273 30.9376 26.25C30.9376 26.4727 30.8321 26.7188 30.6446 26.8945C30.0704 27.4805 29.0626 27.0703 29.0626 26.25C29.0626 25.7695 29.5196 25.3125 30.0001 25.3125C30.2228 25.3125 30.4689 25.418 30.6446 25.6055Z" fill="white"/>
</g>
<defs>
<clipPath id="clip0_122_1700">
<rect width="60" height="60" fill="white"/>
</clipPath>
</defs>
</svg>
