<svg width="60" height="60" viewBox="0 0 60 60" fill="none" xmlns="http://www.w3.org/2000/svg">
<g clip-path="url(#clip0_122_1681)">
<path d="M15.0586 0.140651C14.7188 0.339869 14.6133 0.562526 14.4609 1.42971C14.2734 2.46096 13.8984 3.19924 13.207 3.82034C12.6211 4.33596 11.6016 4.80471 11.0273 4.80471C10.5469 4.80471 9.97266 5.02737 9.84375 5.27346C9.69141 5.55471 9.69141 6.0469 9.84375 6.31643C9.97266 6.57424 10.4297 6.76174 11.168 6.84378C12.8906 7.05471 14.2734 8.50784 14.4844 10.3242C14.543 10.8399 14.6367 11.086 14.8594 11.3086C15.4922 11.9414 16.3242 11.5078 16.4648 10.4766C16.7695 8.20315 17.9297 7.10159 20.4023 6.73831C21.082 6.63284 21.3633 6.17581 21.1758 5.47268C21.082 5.1094 20.5195 4.80471 19.9453 4.80471C19.0312 4.80471 17.6836 3.9844 17.0977 3.07034C16.7344 2.49612 16.5938 2.07424 16.4648 1.12503C16.3359 0.210963 15.7148 -0.234349 15.0586 0.140651ZM16.2422 5.00393L17.0508 5.80081L16.2656 6.58596L15.4688 7.37112L14.707 6.59768L13.9453 5.81253L14.6484 5.12112C15.0352 4.7344 15.3516 4.38284 15.3516 4.32424C15.3516 4.14846 15.4102 4.19534 16.2422 5.00393Z" fill="white"/>
<path d="M32.4609 0.363251C32.4609 0.585907 32.4961 1.03122 32.5312 1.35934L32.6016 1.957L34.6172 2.02731C35.9062 2.07419 37.043 2.17966 37.8047 2.332C42.0938 3.18747 45.9727 5.40231 48.9023 8.63669C52.3711 12.4687 54.1406 17.0859 54.1406 22.2187C54.1289 27.4453 52.3945 32.0156 48.9609 35.8242C47.8828 37.0195 46.6992 38.0625 44.8945 39.3633C44.2383 39.8437 43.4062 40.5586 43.043 40.9453C42.3047 41.7422 41.0859 43.5468 40.8867 44.1445L40.7578 44.5312H33.8789H27L26.6836 43.875C25.7578 41.9883 24.6094 40.6758 22.5703 39.1523C19.8633 37.1367 18.4453 35.707 17.0039 33.5742C14.9297 30.4922 13.793 27.0234 13.6172 23.2617L13.5352 21.6211L12.5625 21.5859L11.6016 21.5508V22.3125C11.6016 24.3867 12.0703 27.2109 12.7617 29.2968C14.25 33.7382 16.9336 37.3711 20.9766 40.3828C22.6641 41.6367 23.9883 42.9609 24.5273 43.9336L24.8555 44.5312H23.5664H22.2656V45.4687V46.4062H23.9531H25.6406L25.8281 47.2148C26.1094 48.4687 26.1562 48.3984 25.0781 48.3984H24.1406V49.3359V50.2734H25.1367H26.1328V51.9023C26.1328 53.9297 26.1914 54.0468 27.3281 54.1406L28.0664 54.1992L28.1367 54.8437C28.5 58.2422 31.9453 60.6679 35.1914 59.8242C36.5977 59.4609 37.8398 58.6172 38.6016 57.5039C39.1055 56.7656 39.6094 55.4765 39.6094 54.9023C39.6094 54.2109 39.6797 54.1406 40.4297 54.1406C41.0273 54.1406 41.1445 54.1054 41.3555 53.8359C41.5781 53.5547 41.6016 53.3672 41.6016 51.9023V50.2734H42.5977H43.5938V49.3359V48.3984H42.6445H41.6953L41.7773 47.8359C41.8125 47.5312 41.9062 47.0859 41.9648 46.8398L42.082 46.4062H43.7695H45.4688V45.4687V44.5312H44.1797C43.4766 44.5312 42.8906 44.4961 42.8906 44.4609C42.8906 44.2617 44.0273 42.7148 44.5664 42.1758C44.9062 41.8476 45.8906 41.039 46.7578 40.3945C51.7266 36.6797 54.6914 31.9804 55.8047 26.039C56.1445 24.2226 56.168 20.5664 55.8516 18.8672C55.5469 17.1914 55.125 15.6211 54.6797 14.4492C52.2422 8.05075 47.1445 3.18747 40.7461 1.12497C38.625 0.445282 36.7617 0.128876 34.3711 0.0351257L32.4609 -0.0351868V0.363251ZM39.9844 46.4648C40.0195 46.5 40.0078 46.7578 39.9492 47.0273C39.9023 47.2968 39.832 47.7187 39.7852 47.9531L39.7148 48.3984H33.8672H28.0078L27.9609 48.1289C27.9258 47.9883 27.8672 47.6601 27.832 47.4023C27.7852 47.1445 27.7266 46.8164 27.6914 46.664L27.6328 46.4062H33.7734C37.1602 46.4062 39.9492 46.4297 39.9844 46.4648ZM39.7031 51.2929L39.7383 52.2656H33.9258H28.125V51.2695V50.2734L33.9023 50.2968L39.668 50.332L39.7031 51.2929ZM37.6875 54.6914C37.5234 55.9218 36.6914 57.082 35.5547 57.6562C35.0625 57.9023 34.8164 57.9492 33.8672 57.9492C32.918 57.9492 32.6719 57.9023 32.2031 57.6679C31.0547 57.082 30.2344 55.9453 30.0586 54.6914L29.9766 54.1406H33.8672H37.7695L37.6875 54.6914Z" fill="white"/>
<path d="M28.2653 4.9219C27.9957 4.98049 27.4918 5.17971 27.1637 5.35549C26.6246 5.64846 26.3551 5.90627 25.6871 6.77346C25.5114 7.00784 25.4411 7.03127 25.1598 6.9258C24.7262 6.76174 23.7536 6.76174 23.1559 6.93752C22.4996 7.12502 21.5387 7.76955 21.1403 8.28518C20.4957 9.12893 20.2379 10.3008 20.4371 11.4375L20.5192 11.918L19.8981 12.2696C19.0895 12.7383 18.2926 13.5938 17.8707 14.4727C17.402 15.4571 17.3317 16.8516 17.6832 17.918C17.8239 18.3281 17.9293 18.668 17.9059 18.6797C17.8825 18.7031 17.6246 18.8438 17.3317 19.0196C16.6637 19.4063 16.2184 19.8985 15.8551 20.7071C15.2809 21.9492 15.4098 23.2735 16.2067 24.4453C16.5465 24.9375 17.402 25.6641 17.8239 25.8047C17.9059 25.8281 17.8707 26.086 17.7067 26.5664C17.2731 27.8438 17.4371 29.3789 18.1168 30.5391C18.4801 31.1602 19.3942 32.0156 20.027 32.3438C20.4957 32.5781 20.5192 32.6133 20.4371 32.9649C19.9918 35.0039 21.1754 36.9961 23.1911 37.5821C23.8004 37.7578 24.8668 37.7461 25.3239 37.5586C25.4645 37.5117 25.6286 37.6524 25.9215 38.0625C27.8903 40.793 32.1793 39.7969 32.8121 36.4571C32.9996 35.4492 32.9645 8.81252 32.777 7.88674C32.3551 5.87112 30.2809 4.51174 28.2653 4.9219ZM30.0934 7.1133C30.2575 7.23049 30.5036 7.4883 30.6325 7.66409C30.8786 7.98049 30.8786 8.0508 30.9137 22.0078C30.9371 31.6289 30.9137 36.1641 30.82 36.4688C30.6676 36.9961 30.0231 37.5821 29.4723 37.6875C28.6168 37.8399 27.7496 37.4414 27.3629 36.6914C27.2223 36.3985 27.234 36.3047 27.609 35.5781C27.8551 35.0742 28.0075 34.6055 28.0075 34.3242V33.8672H27.0817H26.1559L26.0856 34.2774C26.0387 34.5 25.8746 34.8399 25.6989 35.0391C24.3981 36.5977 21.9371 35.4492 22.3121 33.4571C22.4411 32.7656 23.2731 31.9922 23.9059 31.9922C24.1286 31.9922 24.1403 31.9219 24.1403 30.9961C24.1403 30.1055 24.1168 30 23.9293 30C23.5192 30 22.5934 30.3281 22.1246 30.6446L21.6559 30.961L20.9996 30.6211C18.8434 29.5313 18.8317 26.6133 20.9762 25.5117C22.652 24.6446 24.6793 25.6289 25.0778 27.5039L25.2067 28.125H26.1559H27.1051L27.0348 27.4688C26.9996 27.1172 26.8121 26.4844 26.6129 26.0742C25.4411 23.5664 22.5465 22.5469 20.109 23.7891C19.2887 24.211 18.984 24.2227 18.3981 23.8946C17.5543 23.4258 17.2262 22.2774 17.6481 21.375C18.0231 20.5781 19.1246 20.1094 19.6754 20.4961C20.9176 21.375 22.8864 21.4922 24.3746 20.7774C25.7223 20.1211 26.8473 18.5508 27.0231 17.0742L27.1051 16.4063H26.1442H25.195L25.1246 16.875C25.0075 17.6133 24.3981 18.5156 23.7653 18.9024C23.3317 19.1719 23.027 19.2656 22.4176 19.3008C21.7028 19.3477 21.5504 19.3242 20.9762 19.0196C18.8317 17.8946 18.8434 14.9766 20.9996 13.9102L21.6559 13.5703L22.1246 13.8867C22.5465 14.1563 23.6012 14.5313 23.9996 14.5313C24.1051 14.5313 24.1403 14.25 24.1403 13.5352C24.1403 12.6094 24.1286 12.5391 23.9059 12.5391C23.2731 12.5391 22.4411 11.7656 22.3121 11.0742C22.1246 10.0781 22.7926 9.00002 23.7301 8.78909C24.7145 8.56643 25.7926 9.19924 26.0387 10.1485L26.1793 10.6641H27.0934H28.0075V10.2071C28.0075 9.9258 27.8551 9.45705 27.609 8.96487C27.3161 8.37893 27.234 8.09768 27.3043 7.9219C27.4215 7.60549 27.984 7.07815 28.359 6.9258C28.7926 6.7383 29.7301 6.84377 30.0934 7.1133Z" fill="white"/>
<path d="M37.9922 4.92187C36.4453 5.23827 35.2266 6.49218 34.9219 8.07421C34.7578 8.9414 34.7578 35.5898 34.9219 36.457C35.5547 39.7851 39.832 40.8047 41.7891 38.0859C42.1641 37.5586 42.2461 37.5117 42.5156 37.5937C42.6914 37.6406 43.207 37.6758 43.6523 37.6758C46.043 37.6641 47.8008 35.4258 47.3086 33.0351C47.2266 32.6133 47.2266 32.6016 47.8359 32.25C48.6445 31.793 49.4414 30.9375 49.8633 30.0586C50.332 29.0859 50.4023 27.5742 50.0508 26.5547C49.9102 26.168 49.8164 25.8516 49.8281 25.8398C49.8516 25.8281 50.1094 25.6875 50.4023 25.5117C51.0703 25.125 51.5156 24.6328 51.8789 23.8242C52.7227 21.9961 51.9844 19.793 50.2266 18.9023C50.0273 18.8086 49.8516 18.7031 49.8281 18.6914C49.8047 18.668 49.9102 18.3281 50.0508 17.918C50.3906 16.875 50.332 15.457 49.8984 14.5078C49.5117 13.6641 48.6445 12.7383 47.8359 12.2695C47.25 11.9414 47.2148 11.9062 47.2969 11.5547C47.6484 9.97265 47.0156 8.3789 45.6914 7.47655C44.7656 6.84374 43.7344 6.66796 42.4102 6.93749C42.3047 6.96093 42.0117 6.70312 41.707 6.32812C40.8047 5.22655 39.293 4.66405 37.9922 4.92187ZM39.4805 6.98437C39.7617 7.08984 40.0664 7.34765 40.2656 7.6289L40.582 8.08593L40.207 8.78906C39.9961 9.17578 39.7969 9.74999 39.7617 10.0781L39.6914 10.6641H40.6289H41.5547L41.6953 10.1484C41.9414 9.22265 43.0195 8.5664 43.957 8.77734C44.5664 8.91796 44.9531 9.23437 45.2461 9.82031C45.5508 10.4297 45.5039 11.2266 45.1523 11.707C44.8359 12.1289 44.2031 12.5391 43.875 12.5391C43.6055 12.5391 43.5938 12.5625 43.5938 13.5352C43.5938 14.25 43.6289 14.5312 43.7461 14.5312C44.1328 14.5312 45.1875 14.1562 45.5977 13.8867L46.0664 13.582L46.6172 13.8281C48.0117 14.4492 48.6562 15.8086 48.2344 17.2383C48 18.0703 47.4961 18.6562 46.6875 19.0547C46.1367 19.3242 45.9492 19.3594 45.3164 19.3125C43.8398 19.1953 42.9492 18.3398 42.6094 16.7226C42.5391 16.4062 42.5273 16.4062 41.6016 16.4062H40.6641V16.7226C40.6641 17.7305 41.2734 19.0195 42.1172 19.8516C43.6172 21.3398 45.7383 21.668 47.6836 20.707C48.5391 20.2851 48.8555 20.2851 49.4648 20.6836C50.8125 21.5625 50.3789 23.8476 48.8203 24.1055C48.5273 24.1523 48.2344 24.0703 47.6836 23.8008C45.7852 22.875 43.7695 23.1445 42.2461 24.5156C41.3672 25.3125 40.6758 26.7656 40.6641 27.7969V28.125H41.6016C42.6328 28.125 42.5156 28.207 42.7148 27.2578C42.75 27.1055 42.9375 26.7305 43.1484 26.4141C44.4609 24.4805 47.4727 24.9375 48.2227 27.1875C48.6914 28.6055 48.0234 30.082 46.6172 30.7031L46.0664 30.9492L45.5977 30.6445C45.1406 30.3281 44.2031 30 43.8047 30C43.6172 30 43.5938 30.1055 43.5938 30.9961C43.5938 31.9219 43.6055 31.9922 43.8281 31.9922C44.1914 31.9922 44.6953 32.2851 45.0352 32.6953C45.7969 33.5976 45.4805 35.0156 44.3906 35.5781C43.9336 35.8125 43.1367 35.8125 42.6797 35.5781C42.2227 35.3437 41.7422 34.7226 41.6484 34.2422L41.5781 33.8672H40.6289H39.6914L39.7617 34.4648C39.8086 34.8047 39.9961 35.3437 40.1953 35.6953C40.6055 36.4336 40.5586 36.668 39.9141 37.2422C39.2109 37.8633 38.2852 37.8867 37.5234 37.3125C36.75 36.7148 36.7969 37.6172 36.7969 22.2773C36.7969 12.6914 36.832 8.23828 36.9258 8.0039C37.3008 6.99609 38.4023 6.55077 39.4805 6.98437Z" fill="white"/>
<path d="M9.10505 9.8672C8.87068 10.0547 8.67146 10.5703 8.67146 11.0156C8.67146 11.6133 8.19099 12.6797 7.66364 13.2422C7.04255 13.9102 6.31599 14.2852 5.29646 14.461C4.86286 14.5313 4.42927 14.6485 4.3238 14.707C3.80818 15.0235 3.77302 15.9141 4.25349 16.2305C4.39411 16.3242 4.87458 16.4531 5.31989 16.5235C6.35114 16.6875 6.96052 16.9922 7.64021 17.7188C8.21443 18.3164 8.67146 19.3008 8.67146 19.9336C8.67146 20.8242 9.33943 21.4688 9.99568 21.2227C10.4176 21.0586 10.5582 20.8125 10.6636 20.0508C10.8746 18.5156 11.8238 17.2383 13.0777 16.7695C13.4293 16.6289 13.8394 16.5235 13.9801 16.5235C14.8472 16.5235 15.4683 16.0781 15.4683 15.457C15.4683 14.8945 15.1402 14.6485 14.1558 14.4727C12.2691 14.1445 10.9332 12.9024 10.7222 11.2735C10.6051 10.3711 10.5465 10.1953 10.3121 9.96095C10.0426 9.69142 9.40974 9.64455 9.10505 9.8672ZM10.4527 14.707L11.2379 15.4688L10.4527 16.2656L9.67927 17.0508L8.88239 16.2539L8.08552 15.4453L8.41364 15.1875C8.58943 15.0586 8.94099 14.7188 9.18708 14.4492C9.44489 14.168 9.65583 13.9453 9.65583 13.9453C9.66755 13.9453 10.0308 14.2852 10.4527 14.707Z" fill="white"/>
</g>
<defs>
<clipPath id="clip0_122_1681">
<rect width="60" height="60" fill="white"/>
</clipPath>
</defs>
</svg>
