<svg width="15" height="16" viewBox="0 0 15 16" fill="none" xmlns="http://www.w3.org/2000/svg">
<g clip-path="url(#clip0_214_1871)">
<path d="M14.4391 4.18452L7.49633 11.1279L0.553578 4.18452C0.424056 4.0594 0.217621 4.06301 0.0925011 4.19253C-0.0295316 4.31891 -0.0295316 4.51923 0.0925011 4.64557L7.26611 11.8192C7.39343 11.9465 7.59984 11.9465 7.72719 11.8192L14.9008 4.64557C15.0303 4.52045 15.0339 4.31405 14.9088 4.18449C14.7837 4.05497 14.5773 4.0514 14.4477 4.17649C14.445 4.17911 14.4424 4.18177 14.4397 4.18449L14.4391 4.18452Z" fill="white"/>
<path d="M7.49601 11.915C7.40947 11.9152 7.32641 11.881 7.26515 11.8198L0.091536 4.64621C-0.0335842 4.51669 -0.029977 4.31026 0.0995452 4.18514C0.225919 4.0631 0.42624 4.0631 0.552583 4.18514L7.49598 11.1279L14.4387 4.18449C14.5638 4.05497 14.7703 4.0514 14.8998 4.17649C15.0293 4.30161 15.0329 4.50801 14.9078 4.63756C14.9052 4.64028 14.9025 4.64294 14.8998 4.64557L7.72622 11.8192C7.66521 11.8804 7.5824 11.9148 7.49601 11.915Z" fill="white"/>
</g>
<defs>
<clipPath id="clip0_214_1871">
<rect width="15" height="15" fill="white" transform="translate(0 0.5)"/>
</clipPath>
</defs>
</svg>
