<svg width="20" height="20" viewBox="0 0 20 20" fill="none" xmlns="http://www.w3.org/2000/svg">
<g clip-path="url(#clip0_122_2186)">
<path d="M9.53077 0.0585899C9.39015 0.0898399 9.14405 0.179684 8.9839 0.257809C8.70265 0.398434 8.53858 0.554684 5.05811 4.00781C0.0737395 8.95312 0.0971769 8.92578 0.0385831 9.14062C-0.0903231 9.61718 0.198739 10.0781 0.663583 10.1406C0.925302 10.1758 1.13624 10.1016 1.3628 9.89843L1.55811 9.72265L1.56983 13.5625C1.58546 17.7305 1.56983 17.4531 1.7964 18.0547C2.05421 18.7461 2.81593 19.5078 3.50733 19.7656C4.08546 19.9844 4.0503 19.9805 6.1714 19.9805H8.14405L8.29249 19.8867C8.37452 19.8359 8.4878 19.7227 8.5464 19.6367L8.65186 19.4766L8.6714 16.5664L8.69093 13.6523L8.79249 13.4336C8.93702 13.125 9.14405 12.9141 9.44483 12.7656C9.6753 12.6523 9.74171 12.6367 10.0386 12.6367C10.3355 12.6367 10.4019 12.6523 10.6323 12.7656C10.9331 12.9141 11.1401 13.125 11.2847 13.4336L11.3862 13.6523L11.4058 16.5625L11.4253 19.4727L11.5191 19.6211C11.5698 19.7031 11.6831 19.8164 11.7691 19.875L11.9292 19.9805H13.8628C15.5503 19.9805 15.8316 19.9727 16.0347 19.9141C16.4487 19.8008 16.7066 19.6875 16.9995 19.4961C17.8745 18.9219 18.4097 17.9766 18.4136 16.9922C18.4175 16.668 18.4058 16.6016 18.3237 16.4727C18.273 16.3906 18.1597 16.2773 18.0737 16.2187C17.9409 16.1289 17.8706 16.1133 17.6558 16.1133C17.4409 16.1133 17.3706 16.1289 17.2378 16.2187C16.9995 16.375 16.9175 16.5391 16.8745 16.9414C16.8003 17.5859 16.4956 18.0352 15.9448 18.293L15.6831 18.418L14.3276 18.4297L12.9722 18.4414L12.9566 15.9492C12.9448 13.2422 12.9487 13.3203 12.7183 12.8086C12.4097 12.125 11.7808 11.5195 11.1089 11.2539C9.42921 10.5977 7.53858 11.6328 7.1714 13.4062C7.11671 13.6641 7.1089 14.0625 7.1089 16.0742V18.4414L5.71436 18.4297L4.31593 18.418L4.05421 18.293C3.69093 18.1211 3.46436 17.9023 3.28858 17.5469L3.14405 17.25L3.13233 12.6992L3.12452 8.14453L6.37452 4.89453C9.8003 1.47656 9.70265 1.5625 10.0347 1.5625C10.3433 1.5625 10.2964 1.51953 13.6441 4.87109L16.855 8.08984L16.8745 10.6562L16.8941 13.2227L16.9878 13.3711C17.0386 13.4531 17.1519 13.5664 17.2378 13.625C17.3706 13.7109 17.4409 13.7305 17.6519 13.7305C17.9605 13.7305 18.1519 13.6328 18.312 13.3867L18.4175 13.2266L18.4292 11.4766L18.4409 9.72265L18.6362 9.89843C18.8628 10.1016 19.0776 10.1758 19.3355 10.1406C19.8003 10.0781 20.0894 9.61718 19.9605 9.14453C19.9175 8.98828 19.5191 8.57421 15.7026 4.73046C11.2066 0.199215 11.3003 0.289059 10.7417 0.113277C10.4058 0.00780869 9.8628 -0.0156288 9.53077 0.0585899Z" fill="#333333"/>
<path d="M7.85929 7.62109C7.6757 7.67578 7.43351 7.93359 7.37882 8.13281C7.28898 8.48047 7.4257 8.84375 7.72257 9.02734L7.87101 9.12109H10.0585H12.246L12.3944 9.02734C12.4765 8.97656 12.5898 8.86328 12.6484 8.77734C12.7382 8.64453 12.7538 8.57422 12.7538 8.35938C12.7538 8.14453 12.7382 8.07422 12.6484 7.94141C12.5898 7.85547 12.4765 7.74219 12.3944 7.69141L12.246 7.59766L10.1171 7.58984C8.84367 7.58594 7.93742 7.59766 7.85929 7.62109Z" fill="#333333"/>
</g>
<defs>
<clipPath id="clip0_122_2186">
<rect width="20" height="20" fill="white"/>
</clipPath>
</defs>
</svg>
