<svg width="60" height="60" viewBox="0 0 60 60" fill="none" xmlns="http://www.w3.org/2000/svg">
<path d="M46.4652 1.95704C45.7621 2.05079 44.3441 2.44922 43.6645 2.75391C38.016 5.25 35.8129 12.1758 38.977 17.4844C39.7387 18.75 41.2504 20.2617 42.516 21.0234C46.5707 23.4375 51.7621 22.793 55.0902 19.4648C56.4027 18.1523 57.3285 16.5 57.8441 14.5781C58.1605 13.3711 58.1488 10.9219 57.809 9.66797C56.7309 5.6836 53.5668 2.74219 49.6293 2.05079C48.6801 1.88672 47.309 1.85157 46.4652 1.95704ZM46.8754 5.74219C46.8754 7.25391 46.8402 7.61719 46.7113 7.61719C46.6293 7.61719 46.184 7.80469 45.7387 8.02735C44.7309 8.53125 44.0512 9.23438 43.559 10.2891C43.2191 11.0039 43.184 11.1797 43.184 12.1992C43.184 13.2539 43.2074 13.3594 43.6176 14.2031C44.1449 15.2695 44.8246 15.9258 45.9145 16.4414C46.6293 16.7813 46.8051 16.8164 47.8129 16.8164C48.7856 16.8164 49.0199 16.7695 49.6645 16.4766L50.4027 16.1367L51.7152 17.4492L53.0277 18.7617L52.6762 19.0547C52.184 19.4648 50.8129 20.1094 49.9223 20.3555C48.891 20.6367 46.7465 20.6367 45.7035 20.3555C44.2738 19.9805 43.0551 19.2656 41.9418 18.1641C40.8285 17.0625 40.2309 16.1016 39.7504 14.6719C39.4926 13.8867 39.4457 13.5586 39.4457 12.1875C39.4457 10.7109 39.4691 10.5352 39.809 9.57422C40.0082 9.01172 40.3481 8.25 40.559 7.88672C41.0863 7.00782 42.6566 5.4375 43.5356 4.92188C44.3441 4.44141 45.9496 3.87891 46.5004 3.86719H46.8754V5.74219ZM50.8598 4.34766C51.8441 4.72266 52.852 5.36719 53.6605 6.12891C54.8441 7.26563 55.8988 9.22266 56.0863 10.6406L56.1684 11.25H54.2699C52.8402 11.25 52.3832 11.2148 52.3832 11.0977C52.3832 10.7695 51.6566 9.46875 51.1996 8.97657C50.7426 8.47266 49.2895 7.61719 48.9145 7.61719C48.7856 7.61719 48.7504 7.24219 48.7504 5.73047V3.83204L49.3598 3.91407C49.6879 3.96094 50.3676 4.16016 50.8598 4.34766ZM48.6801 9.51563C49.6879 9.82032 50.6254 11.1094 50.6254 12.1875C50.6254 13.6406 49.266 15 47.8129 15C47.0746 15 46.477 14.7305 45.8793 14.1211C44.684 12.9375 44.684 11.4375 45.8793 10.2539C46.6996 9.42188 47.5785 9.19922 48.6801 9.51563ZM56.1332 13.3945C56.1332 14.2266 55.3129 16.2773 54.6801 17.0508L54.3871 17.4023L53.0746 16.0898L51.7621 14.7773L52.0668 14.0859C52.2426 13.6992 52.3832 13.3242 52.3832 13.2539C52.3832 13.1602 52.9457 13.125 54.2582 13.125H56.1332V13.3945Z" fill="#333333"/>
<path d="M21.3867 14.3437C20.7305 14.6484 20.5195 14.8594 19.8281 15.9023L19.3359 16.6289H18.7031C17.6602 16.6289 17.0039 17.1094 16.7461 18.082C16.6172 18.5859 16.7344 19.0898 17.4258 20.8008L17.6602 21.3867L15.2109 24.1406C12.4336 27.2578 11.8828 27.9609 11.2969 29.2383C10.582 30.7851 10.3945 31.6992 10.3945 33.6328C10.3945 35.039 10.4414 35.4961 10.6523 36.2695C10.8047 36.7851 10.9336 37.2773 10.9336 37.3711C10.9453 37.4648 9.05859 39.0117 6.60938 40.8867L2.26172 44.2383L2.60156 44.707C2.77734 44.9648 3.03516 45.3047 3.15234 45.4687L3.375 45.75L4.33594 45.0117C4.86328 44.6015 5.33203 44.3203 5.39062 44.3672C5.66016 44.6719 12.5625 53.9414 12.6094 54.082C12.6562 54.1875 12.1523 54.6328 11.2148 55.3359L9.75 56.4375L10.2656 57.1172C10.5469 57.5039 10.8047 57.832 10.8281 57.8672C10.8633 57.8906 11.6953 57.3164 12.668 56.5898L14.4492 55.2539L17.8594 53.789L21.2695 52.3242L22.2188 50.4609L23.168 48.5976L27.1406 47.4023C29.3203 46.7461 31.2773 46.125 31.4766 46.0195C32.2852 45.5976 32.8125 44.6836 32.8125 43.6992C32.8125 43.1601 32.2969 42.1406 31.8633 41.8242L31.5234 41.5898L32.1211 40.6992C32.6133 39.9726 32.7422 39.8437 32.8711 39.9726C32.9531 40.0664 33.8438 41.1328 34.8633 42.3633C35.8828 43.582 36.8203 44.6836 36.9492 44.789C37.1602 44.9883 37.8398 45 47.6484 45H58.125V44.0625V43.125H57.1875H56.25V34.0429V24.9492L55.957 24.6679L55.6758 24.375H52.5H49.3242L49.043 24.6679C48.75 24.9492 48.75 24.9844 48.75 27.0117V29.0625H46.2305C43.6992 29.0625 43.6992 29.0625 43.418 29.3554C43.1367 29.625 43.125 29.6953 43.125 31.2304V32.8125H40.6172C38.3203 32.8125 38.0859 32.8359 37.8398 33.0351L37.5586 33.2578L37.5 37.8984L37.4414 42.539L35.5898 40.3242L33.75 38.1094L34.0898 37.0664C34.9805 34.4062 34.8398 31.7226 33.6797 29.1914C33.4219 28.6289 33.293 28.1953 33.3516 28.1367C33.4102 28.0898 34.2305 27.4219 35.168 26.6719L36.8789 25.3125H40.0078H43.125V24.375V23.4375H39.6797H36.2461L34.1719 25.0898L32.1094 26.7422L31.6523 26.2383C31.4062 25.957 30.3281 24.75 29.2734 23.5547L27.3398 21.3867L27.5742 20.8008C28.2539 19.0898 28.3828 18.5859 28.2539 18.082C27.9961 17.1094 27.3398 16.6289 26.2969 16.6289H25.6641L25.1719 15.9023C24.9141 15.5039 24.5859 15.0469 24.4453 14.8945C24.082 14.4844 23.1094 14.0625 22.5 14.0625C22.1953 14.0625 21.7266 14.1797 21.3867 14.3437ZM22.957 16.1367C23.0859 16.2539 23.4492 16.7109 23.7539 17.1679C24.4922 18.2344 24.9141 18.5156 25.793 18.5156H26.4609L26.0391 19.5703L25.6172 20.625H22.5H19.3828L18.9609 19.5703L18.5391 18.5156H19.207C20.0859 18.5156 20.5078 18.2344 21.2461 17.1679C21.8555 16.2539 22.1836 15.9375 22.5 15.9375C22.6172 15.9375 22.8164 16.0312 22.957 16.1367ZM20.0273 23.1679C19.6172 24 19.4531 24.75 19.4531 25.6992C19.4531 26.414 19.5938 27.2578 19.7344 27.3984C19.7812 27.4336 20.168 27.3515 20.6016 27.1992L21.3984 26.9414L21.3867 25.8047C21.3867 24.7969 21.4219 24.5976 21.7031 24.0117C21.8906 23.6484 22.1367 23.2617 22.2656 23.1445C22.4883 22.9453 22.5117 22.9453 22.7344 23.1445C22.8633 23.2617 23.1094 23.6484 23.2969 24.0117C23.5781 24.5976 23.6133 24.7969 23.6133 25.7929L23.6016 26.9179L24.3164 27.164C24.7031 27.3047 25.0781 27.4219 25.1484 27.4219C25.3477 27.4219 25.5469 26.4961 25.5469 25.6406C25.5469 24.7851 25.3242 23.8711 24.9258 23.0625L24.6445 22.5H25.2422H25.8398L28.4648 25.4531C29.9062 27.082 31.2891 28.7578 31.5352 29.1679C33.0938 31.7344 33.2109 34.8633 31.8516 37.5469C31.6641 37.9219 31.0547 38.9062 30.5039 39.7383L29.4961 41.25H23.4844H17.4727L18.082 39.9961C18.6562 38.8008 18.6914 38.6953 18.6914 37.8047C18.6914 36.7265 18.4688 36.1875 17.7891 35.5547C17.25 35.039 16.7227 34.7929 15.9961 34.7226C15.1641 34.6406 14.4727 34.8867 13.4766 35.625C13.043 35.9414 12.6562 36.2109 12.6211 36.2109C12.4453 36.2109 12.2461 34.8281 12.2461 33.5742C12.2578 32.0273 12.4805 31.0312 13.125 29.7656C13.6289 28.7812 14.0391 28.2656 16.6992 25.2656L19.1602 22.5H19.7578H20.3555L20.0273 23.1679ZM54.375 34.6875V43.125H52.5H50.625V34.6875V26.25H52.5H54.375V34.6875ZM48.75 37.0312V43.125H46.875H45V37.0312V30.9375H46.875H48.75V37.0312ZM43.125 38.9062V43.125H41.25H39.375V38.9062V34.6875H41.25H43.125V38.9062ZM16.2773 36.7265C16.6406 36.914 16.875 37.3594 16.875 37.8398C16.875 38.0273 16.4531 39.0351 15.9375 40.0664C15.4219 41.1094 15 42.0937 15 42.2578C15 42.4219 15.1289 42.6797 15.293 42.832L15.5742 43.125H23.0391C29.8242 43.125 30.5273 43.1484 30.7266 43.3242C30.9844 43.5586 30.9961 43.9804 30.7617 44.2265C30.668 44.3203 30.1523 44.5312 29.6133 44.6953C29.0859 44.8594 27.1523 45.4336 25.3125 45.9844C23.4844 46.5469 21.9258 47.0508 21.8555 47.1211C21.7969 47.1797 21.3164 48.0586 20.8008 49.0664L19.8633 50.8945L17.1211 52.0547C15.6211 52.6992 14.3438 53.1797 14.2969 53.1211C14.25 53.0742 12.5508 50.8008 10.5117 48.0937L6.80859 43.1484L7.06641 42.9258C7.46484 42.5742 14.8945 36.8789 15.1641 36.7148C15.4922 36.5273 15.8789 36.5273 16.2773 36.7265Z" fill="#333333"/>
<path d="M21.5625 29.1094V30.082L21.2109 30.1523C20.7188 30.2578 19.957 31.0547 19.793 31.6641C19.5234 32.6953 19.9336 33.7969 20.8125 34.3359C21.1289 34.5469 21.4922 34.6289 22.2422 34.6758C23.0156 34.7344 23.2617 34.793 23.3672 34.9453C23.4609 35.0977 23.4609 35.2148 23.3672 35.3555C23.25 35.543 23.0039 35.5664 21.457 35.6016L19.6875 35.6367V36.5625V37.5H20.625H21.5625V38.4375V39.375H22.5H23.4375V38.3906V37.4062L23.7891 37.3477C24.2812 37.2422 25.043 36.4453 25.207 35.8359C25.4766 34.8047 25.0664 33.7031 24.1875 33.1641C23.8711 32.9531 23.5078 32.8711 22.7578 32.8242C21.9844 32.7656 21.7383 32.707 21.6328 32.543C21.5391 32.4023 21.5391 32.2852 21.6328 32.1328C21.75 31.957 21.9961 31.9336 23.543 31.8984L25.3125 31.8633V30.9375V30H24.375H23.4375V29.0625V28.125H22.5H21.5625V29.1094Z" fill="#333333"/>
</svg>
