<svg width="60" height="60" viewBox="0 0 60 60" fill="none" xmlns="http://www.w3.org/2000/svg">
<g clip-path="url(#clip0_122_1673)">
<path d="M13.9807 0.199268C13.3127 0.421925 12.4924 1.34771 12.3166 2.03911C12.2229 2.40239 12.1877 5.10942 12.1877 10.9219V19.2891L9.03535 21.9727C7.30098 23.461 5.82441 24.7969 5.7541 24.961C5.66035 25.1719 5.6252 29.7188 5.64863 40.8399L5.68379 56.4258L6.04707 57.1993C6.48066 58.1133 7.0666 58.793 7.82832 59.2852C9.01191 60.0469 7.73457 60 30.0002 60C52.2658 60 50.9885 60.0469 52.1721 59.2852C52.9338 58.793 53.5197 58.1133 53.9533 57.1993L54.3166 56.4258L54.3518 40.8399C54.3752 30.0118 54.34 25.1602 54.258 24.961C54.1877 24.7969 52.7111 23.4493 50.9768 21.9727L47.8127 19.2774V10.9219C47.8127 5.10942 47.7775 2.40239 47.6838 2.03911C47.4963 1.31255 46.6877 0.433643 45.9729 0.18755C45.4807 0.0234871 43.8049 4.95911e-05 29.9533 0.0117683C16.5236 0.0117683 14.4025 0.0469246 13.9807 0.199268ZM45.715 2.09771L46.0549 2.43755V14.5782C46.0549 26.5665 46.0549 26.7188 46.2893 26.9532C46.6057 27.2696 47.2385 27.2579 47.5314 26.9415C47.7307 26.7188 47.7658 26.4375 47.8127 24.1641L47.8713 21.6446L50.0275 23.4961L52.1721 25.3477L51.6096 25.8985C51.2932 26.2032 47.6252 29.7305 43.4416 33.7383L35.8596 41.0157L35.1682 40.5469C33.633 39.4922 32.0041 39.0118 30.0002 39.0118C27.9963 39.0118 26.3674 39.4922 24.8322 40.5469L24.1525 41.0157L19.0432 36.1172L13.9455 31.2305V16.8399V2.43755L14.2854 2.09771L14.6252 1.75786H30.0002H45.3752L45.715 2.09771ZM12.1877 25.5586C12.1877 27.6915 12.1408 29.4141 12.0822 29.3907C12.0354 29.3672 11.051 28.4532 9.90254 27.3516L7.82832 25.3477L9.97285 23.5079C11.1447 22.5 12.1291 21.6797 12.1525 21.6797C12.176 21.6797 12.1877 23.4258 12.1877 25.5586ZM15.7971 35.4375L22.8752 42.2344L22.1604 42.9141C21.3752 43.6641 21.2814 43.9454 21.6916 44.461C21.8674 44.6836 22.0432 44.7657 22.3479 44.7657C22.7111 44.7657 22.8986 44.625 23.883 43.6758C25.3361 42.293 25.8166 41.918 26.7424 41.4844C27.8322 40.9805 28.7346 40.7813 30.0002 40.7813C31.7346 40.7813 33.2697 41.2852 34.5236 42.2461C34.8635 42.5157 38.7072 46.1485 43.0666 50.3321C49.9221 56.9063 50.9533 57.9493 50.7775 58.0547C50.4846 58.2305 9.51582 58.2305 9.22285 58.0547C9.04707 57.9493 9.77363 57.211 14.5549 52.629C17.6018 49.7227 20.1916 47.168 20.2971 46.9688C20.6252 46.3711 20.2268 45.7149 19.5471 45.7032C19.2775 45.7032 18.258 46.629 13.5471 51.1524C10.4182 54.1641 7.8166 56.625 7.76973 56.6368C7.41816 56.7188 7.39473 55.7227 7.39473 41.6133L7.38301 27.3868L8.0627 28.0196C8.42598 28.3711 11.9064 31.6993 15.7971 35.4375ZM52.465 56.2032C52.3713 56.4493 52.2775 56.6602 52.2424 56.6602C52.2189 56.6602 49.008 53.6016 45.1057 49.8633C41.215 46.125 37.8283 42.879 37.5705 42.6446L37.1252 42.2344L44.8361 34.8282L52.5588 27.4102L52.5939 41.5782C52.6174 53.25 52.5939 55.8282 52.465 56.2032Z" fill="white"/>
<path d="M19.254 9.51562C18.6915 9.78516 18.6563 10.7227 19.2071 11.0039C19.3595 11.0859 20.8595 11.1328 23.4845 11.1328C27.3868 11.1328 27.5509 11.1211 27.7735 10.8984C28.1251 10.5469 28.0899 9.92578 27.7032 9.62109C27.3985 9.38672 27.2696 9.375 23.4493 9.38672C20.9532 9.38672 19.418 9.43359 19.254 9.51562Z" fill="white"/>
<path d="M19.254 14.2031C18.6915 14.4727 18.6563 15.4102 19.2071 15.6914C19.3595 15.7852 22.793 15.8203 30.0352 15.8203C39.961 15.8203 40.6524 15.8086 40.8751 15.6094C41.0157 15.5039 41.1563 15.2695 41.2032 15.0938C41.2618 14.8359 41.2032 14.707 40.922 14.4141L40.5704 14.0625L30.0352 14.0742C22.922 14.0742 19.4298 14.1211 19.254 14.2031Z" fill="white"/>
<path d="M19.0779 19.1016C18.7966 19.3945 18.738 19.5234 18.8083 19.7812C18.8435 19.957 18.9724 20.1914 19.0662 20.2969C19.2419 20.4961 19.9099 20.5078 29.9998 20.5078C40.0896 20.5078 40.7576 20.4961 40.9333 20.2969C41.0271 20.1914 41.156 19.957 41.1912 19.7812C41.2615 19.5234 41.2029 19.3945 40.9216 19.1016L40.5701 18.75H29.9998H19.4294L19.0779 19.1016Z" fill="white"/>
<path d="M19.3717 23.5547C18.7741 23.8008 18.6335 24.4805 19.0788 24.9844C19.2428 25.1836 19.9108 25.1953 30.0006 25.1953C40.0905 25.1953 40.7585 25.1836 40.9342 24.9844C41.2741 24.6094 41.2975 24.1992 40.9811 23.8359L40.6881 23.4961L30.153 23.4727C24.2116 23.4609 19.5124 23.4961 19.3717 23.5547Z" fill="white"/>
<path d="M32.6368 28.207C32.2149 28.3125 31.9923 28.6055 31.9923 29.0625C31.9923 29.8945 31.9103 29.8828 36.586 29.8828C40.3946 29.8828 40.7579 29.8711 40.9337 29.6719C41.2735 29.2969 41.297 28.8867 40.9806 28.5234L40.6876 28.1836L36.7735 28.1601C34.629 28.1601 32.7657 28.1719 32.6368 28.207Z" fill="white"/>
</g>
<defs>
<clipPath id="clip0_122_1673">
<rect width="60" height="60" fill="white"/>
</clipPath>
</defs>
</svg>
