<svg width="60" height="60" viewBox="0 0 60 60" fill="none" xmlns="http://www.w3.org/2000/svg">
<path d="M18.4219 0.152344C17.8477 0.363281 17.2617 0.890625 16.9688 1.44141C16.7461 1.875 16.7109 2.17969 16.6641 3.89062L16.6055 5.85938H15.0703C14.2266 5.85938 13.3477 5.90625 13.125 5.97656C12.5742 6.12891 11.8828 6.71484 11.6016 7.27734C11.3789 7.71094 11.3672 7.99219 11.3672 15.9961C11.3672 20.543 11.3438 24.2578 11.3203 24.2578C11.2969 24.2578 11.0859 24.1758 10.8633 24.082C9.82031 23.6484 8.46094 24.082 7.85156 25.0312C7.66406 25.3477 7.5 25.6641 7.5 25.7461C7.5 25.8281 7.39453 26.0039 7.26562 26.1328C7.07812 26.3203 6.86719 26.3672 6.30469 26.3672C5.41406 26.3672 4.76953 26.6367 4.25391 27.2227C3.73828 27.8086 3.58594 28.3594 3.67969 29.3086C3.76172 30.2812 3.71484 30.4219 3.17578 30.7031C2.29688 31.1484 1.75781 32.0156 1.75781 32.9883C1.75781 33.668 1.98047 34.1836 2.50781 34.7812C2.98828 35.3086 3.02344 35.5664 2.70703 36.1875C2.15625 37.2891 2.34375 38.4375 3.21094 39.2344C3.65625 39.6445 4.32422 39.9609 4.75781 39.9609C5.01562 39.9609 5.27344 40.4062 5.34375 40.9688C5.57812 42.7383 7.23047 43.8164 8.75391 43.1836C9.39844 42.9141 9.55078 42.9609 10.2773 43.6875C11.5781 44.9883 12.9375 44.9648 14.1562 43.6406C14.7773 42.9609 14.9648 42.9023 15.6211 43.1836C17.1445 43.8164 18.7969 42.7383 19.0312 40.9688C19.1016 40.4062 19.3594 39.9609 19.6172 39.9609C20.0508 39.9609 20.7188 39.6445 21.1641 39.2344C22.0312 38.4375 22.2188 37.2891 21.668 36.1875C21.3516 35.5664 21.3867 35.3086 21.8672 34.7812C22.3945 34.1836 22.6172 33.668 22.6172 32.9883C22.6172 32.0156 22.0781 31.1484 21.1992 30.7031C20.6602 30.4219 20.6133 30.2812 20.6953 29.3086C20.7891 28.3594 20.6367 27.8086 20.1211 27.2227C19.6055 26.6367 18.9609 26.3672 18.082 26.3672C17.5078 26.3672 17.2969 26.3203 17.1094 26.1328C16.9805 26.0039 16.875 25.8281 16.875 25.7461C16.875 25.6641 16.7109 25.3477 16.5234 25.0312C15.9141 24.082 14.5547 23.6484 13.5352 24.0703L13.125 24.2461V16.1133V7.98047L13.3828 7.80469C13.6172 7.64062 15.5859 7.61719 32.1094 7.61719H50.5898L50.8359 7.88672L51.0938 8.15625V32.9414V57.7383L50.8242 57.9844L50.5547 58.2422H32.0742C13.7461 58.2422 13.5938 58.2422 13.3594 58.0078C13.1367 57.7852 13.125 57.6211 13.125 52.8633C13.125 49.7461 13.0781 47.8242 13.0078 47.625C12.7617 46.9805 12.2109 46.8164 11.6719 47.2383L11.3672 47.4727V52.7695C11.3672 57.668 11.3906 58.1016 11.5898 58.5469C11.8477 59.1211 12.5039 59.6836 13.1133 59.8711C13.4414 59.9648 18.5742 60 32.2031 60H50.8359L51.457 59.6719C51.9141 59.4375 52.1836 59.1914 52.4414 58.7695C52.793 58.207 52.793 58.1953 52.8281 56.168L52.8633 54.1406H54.5391C56.1328 54.1406 56.2383 54.1289 56.8477 53.8242C57.3164 53.5781 57.5625 53.3555 57.832 52.9219L58.1836 52.3477V27.0703V1.79297L57.832 1.23047C57.5742 0.808594 57.3047 0.5625 56.8477 0.328125L56.2266 0L37.5117 0.0117188C23.4258 0.0117188 18.7148 0.046875 18.4219 0.152344ZM56.2148 2.01562L56.4844 2.26172V27.0586V51.8438L56.2266 52.1133C55.9922 52.3711 55.8984 52.3828 54.4102 52.3828H52.8516L52.8281 30.0234L52.793 7.65234L52.4414 7.07812C52.207 6.71484 51.8906 6.39844 51.5625 6.21094L51.0352 5.91797L34.7461 5.85938L18.457 5.80078V4.00781C18.457 2.25 18.4688 2.20312 18.7383 1.98047C19.0078 1.75781 19.4766 1.75781 37.4766 1.75781H55.9453L56.2148 2.01562ZM10.7109 26.0391C11.25 26.3906 11.3906 26.4258 12.1875 26.4258C12.9844 26.4258 13.125 26.3906 13.6641 26.0391C13.9922 25.8398 14.3672 25.6641 14.4961 25.6641C14.7891 25.6641 15.1875 26.0977 15.3047 26.5312C15.4219 27.0234 16.2539 27.8086 16.8281 27.9844C17.0977 28.0547 17.6016 28.125 17.9648 28.125C18.8672 28.125 19.0195 28.3477 18.9141 29.4961C18.7969 30.7266 19.2305 31.6406 20.1562 32.1094C20.9766 32.5312 21.0703 33.0469 20.4492 33.7383C19.6172 34.6523 19.4766 35.6367 19.9922 36.8086C20.2852 37.4531 20.2969 37.5117 20.1211 37.7812C19.9922 37.9688 19.6992 38.1328 19.2891 38.25C18.1641 38.5781 17.5078 39.3164 17.332 40.4531C17.25 40.9688 17.1445 41.25 16.9688 41.4023C16.6992 41.625 16.6641 41.625 15.5156 41.3555C14.5898 41.1328 13.9453 41.3555 13.0898 42.2109C12.6914 42.6094 12.3164 42.8906 12.1641 42.8906C12.0234 42.8906 11.7188 42.668 11.4375 42.3516C10.9102 41.7539 9.99609 41.25 9.42188 41.25C9.21094 41.25 8.77734 41.3438 8.4375 41.4492C7.88672 41.625 7.79297 41.625 7.51172 41.4727C7.27734 41.3438 7.18359 41.168 7.11328 40.7227C6.87891 39.375 6.23438 38.5898 5.09766 38.2617C4.67578 38.1328 4.38281 37.9688 4.25391 37.7812C4.07812 37.5117 4.08984 37.4531 4.38281 36.8086C4.89844 35.6367 4.75781 34.6523 3.92578 33.7383C3.30469 33.0469 3.39844 32.5312 4.21875 32.1094C5.14453 31.6406 5.57812 30.7266 5.46094 29.4961C5.35547 28.3477 5.50781 28.125 6.41016 28.125C6.77344 28.125 7.27734 28.0547 7.54688 27.9844C8.12109 27.8086 8.95312 27.0234 9.07031 26.5312C9.1875 26.0977 9.58594 25.6641 9.87891 25.6641C10.0078 25.6641 10.3828 25.8398 10.7109 26.0391Z" fill="black"/>
<path d="M11.6016 29.1797C11.3789 29.4024 11.3672 29.5664 11.3672 32.2149C11.3672 34.9922 11.3672 35.0274 11.625 35.2032C11.9766 35.4492 12.457 35.4375 12.7852 35.168C13.0547 34.9453 13.0664 34.8985 13.1016 32.6836C13.1484 30.1172 13.0898 29.4961 12.7617 29.168C12.4687 28.875 11.8945 28.8867 11.6016 29.1797Z" fill="black"/>
<path d="M11.672 37.1602C11.0627 37.6406 11.4025 38.6719 12.1877 38.6719C12.9728 38.6719 13.3127 37.6406 12.7033 37.1602C12.5275 37.0195 12.3048 36.9141 12.1877 36.9141C12.0705 36.9141 11.8478 37.0195 11.672 37.1602Z" fill="black"/>
<path d="M31.7574 11.7422L26.5425 13.6289L25.1363 13.7109C24.0347 13.7695 23.6246 13.8398 23.2378 14.0391C22.6519 14.3437 22.2183 14.8828 22.0425 15.5273C21.8785 16.1133 21.8785 19.4883 22.0308 20.0508C22.3238 21.1055 23.1089 21.7266 24.3277 21.8555L25.0425 21.9375L24.3511 24.0703C23.5777 26.4375 23.5191 27.1289 24.0113 27.9375C24.4331 28.6055 24.7613 28.7578 26.0269 28.8047C27.4097 28.8633 28.2535 28.6523 28.8042 28.1016C29.3199 27.6094 29.4019 27.4336 30.0581 25.4297C30.3628 24.4922 30.6558 23.6836 30.7027 23.625C30.7613 23.5781 32.2027 24.0352 33.9253 24.6562C35.9996 25.4062 37.2183 25.7812 37.5464 25.7812C38.5308 25.7695 39.5738 24.9844 39.8316 24.0586C39.9019 23.8125 39.9605 23.2383 39.9605 22.7812V21.9492L40.8394 21.8789C41.8941 21.7969 42.4449 21.5156 42.773 20.8477C42.9839 20.4375 43.0074 20.1562 43.0074 17.7891C43.0074 15.3047 42.9956 15.1523 42.7378 14.7187C42.3746 14.0625 41.8706 13.8047 40.8394 13.7344L39.9839 13.6875L39.9371 12.6094C39.9019 11.7656 39.8316 11.4375 39.6089 11.0508C39.1871 10.3008 38.566 9.91406 37.6871 9.8789C37.0191 9.84375 36.6558 9.96093 31.7574 11.7422ZM38.0152 11.8594C38.1792 12.0937 38.2027 12.8555 38.2027 17.8125C38.2027 22.7695 38.1792 23.5312 38.0152 23.7656C37.9214 23.9062 37.7339 24.0234 37.6167 24.0234C37.4878 24.0234 35.2378 23.25 32.6128 22.3125C29.9761 21.3633 27.691 20.543 27.5152 20.4844L27.1871 20.3672V17.8125C27.1871 15.4805 27.2105 15.2461 27.398 15.1758C27.5035 15.1406 29.7652 14.3203 32.4019 13.3711C35.0503 12.4102 37.3472 11.625 37.523 11.6133C37.7222 11.6016 37.898 11.6953 38.0152 11.8594ZM25.3706 17.8125V20.0977H24.6792C23.6949 20.0859 23.6714 20.0391 23.6714 17.8125C23.6714 15.5625 23.73 15.457 24.8433 15.5039L25.3706 15.5273V17.8125ZM41.191 17.8125V20.0977L40.5816 20.1328L39.9605 20.168V17.8125V15.457L40.5816 15.4922L41.191 15.5273V17.8125ZM28.2066 22.6055L29.0503 22.9102L28.4644 24.7266C27.7261 27.0117 27.6441 27.0937 26.3785 27.0469C25.5581 27.0117 25.4878 26.9883 25.4527 26.7539C25.4175 26.543 25.98 24.668 26.7769 22.2891C26.8355 22.1133 26.9058 22.125 28.2066 22.6055Z" fill="black"/>
<path d="M29.8242 16.957C29.4023 17.0625 29.1797 17.3555 29.1797 17.8125C29.1797 18.5273 29.4023 18.6328 30.9141 18.6328C32.1211 18.6328 32.2266 18.6094 32.3906 18.375C32.6484 18 32.625 17.4258 32.3438 17.168C32.1563 16.9922 31.875 16.9453 31.0781 16.9219C30.5156 16.8984 29.9531 16.9219 29.8242 16.957Z" fill="black"/>
<path d="M29.5898 31.1133C29.4258 31.2656 29.2969 31.5352 29.2969 31.6992C29.2969 31.8633 29.4258 32.1328 29.5898 32.2852L29.8711 32.5781H33.7852C37.5703 32.5781 37.7109 32.5664 38.0156 32.332C38.4141 32.0156 38.4375 31.4297 38.0508 31.0781C37.7812 30.8203 37.7227 30.8203 33.8203 30.8203H29.8711L29.5898 31.1133Z" fill="black"/>
<path d="M29.9297 34.3359C29.625 34.4531 29.2969 34.8984 29.2969 35.168C29.2969 35.2734 29.4023 35.4961 29.543 35.6719L29.7773 35.9766H39.082H48.3867L48.6328 35.7188C49.0664 35.25 48.8789 34.582 48.2344 34.3359C47.8359 34.1953 30.293 34.1836 29.9297 34.3359Z" fill="black"/>
<path d="M29.5898 38.0273C29.4258 38.1797 29.2969 38.4492 29.2969 38.6133C29.2969 38.7773 29.4258 39.0469 29.5898 39.1992L29.8711 39.4922H39.082H48.293L48.5742 39.1992C48.7383 39.0469 48.8672 38.7773 48.8672 38.6133C48.8672 38.4492 48.7383 38.1797 48.5742 38.0273L48.293 37.7344H39.082H29.8711L29.5898 38.0273Z" fill="black"/>
<path d="M25.699 43.9102C25.113 44.0273 24.8787 44.918 25.3123 45.3516C25.5466 45.5859 25.699 45.5859 32.4959 45.5859C39.0935 45.5859 39.4685 45.5742 39.6443 45.375C39.9255 45.0586 39.9021 44.3789 39.5974 44.1094C39.363 43.8984 39.0584 43.8867 32.6482 43.875C28.9685 43.8633 25.8396 43.875 25.699 43.9102Z" fill="black"/>
<path d="M15.8086 47.5664C15.6094 47.7188 15.5391 47.9062 15.5391 48.2227C15.5391 48.5391 15.6094 48.7266 15.8086 48.8789C16.0664 49.0898 16.6289 49.1016 32.1914 49.1016H48.293L48.5742 48.8086C48.9492 48.4453 48.9492 48 48.5742 47.6367L48.293 47.3438H32.1914C16.6289 47.3438 16.0664 47.3555 15.8086 47.5664Z" fill="black"/>
<path d="M16.207 50.8242C15.9023 50.8828 15.4688 51.3867 15.4688 51.6797C15.4688 51.7969 15.5742 52.0195 15.7148 52.1953L15.9492 52.5H32.168H48.3867L48.6328 52.2422C49.0664 51.7734 48.8789 51.1055 48.2344 50.8594C47.918 50.7422 16.8047 50.707 16.207 50.8242Z" fill="black"/>
<path d="M15.8086 54.4805C15.6094 54.6328 15.5391 54.8203 15.5391 55.1367C15.5391 55.4531 15.6094 55.6406 15.8086 55.793C16.0664 56.0039 16.5352 56.0156 28.418 56.0156C40.3008 56.0156 40.7695 56.0039 41.0273 55.793C41.4023 55.4883 41.4023 54.7852 41.0273 54.4805C40.7695 54.2695 40.3008 54.2578 28.418 54.2578C16.5352 54.2578 16.0664 54.2695 15.8086 54.4805Z" fill="black"/>
<path d="M44.0156 54.5039C43.5938 54.832 43.5938 55.4414 44.0156 55.7695C44.3086 55.9922 44.4844 56.0156 46.3125 56.0156C48.2578 56.0156 48.293 56.0156 48.5742 55.7227C48.7383 55.5703 48.8672 55.3008 48.8672 55.1367C48.8672 54.9727 48.7383 54.7031 48.5742 54.5508C48.293 54.2578 48.2578 54.2578 46.3125 54.2578C44.4844 54.2578 44.3086 54.2812 44.0156 54.5039Z" fill="black"/>
</svg>
