<svg width="20" height="20" viewBox="0 0 20 20" fill="none" xmlns="http://www.w3.org/2000/svg">
<path d="M3.00845 2.55074C2.49282 2.7148 2.33267 3.47652 2.72329 3.91011C2.90688 4.11324 3.13735 4.17965 3.66079 4.17965C4.21938 4.17965 5.1061 4.2773 5.78188 4.41402C8.83657 5.03121 11.528 6.74996 13.4069 9.28511C14.1374 10.2656 14.7702 11.4804 15.1725 12.6757C15.5709 13.8398 15.8209 15.2695 15.8209 16.3437C15.8209 16.8632 15.8874 17.0937 16.0905 17.2773C16.3639 17.5234 16.7311 17.5664 17.0749 17.3906C17.2506 17.3046 17.3053 17.25 17.3952 17.0742C17.4889 16.8867 17.5006 16.8164 17.5006 16.5039C17.5006 16.3046 17.4811 15.9179 17.4616 15.6406C17.2272 12.7304 16.192 10.1132 14.36 7.81246C13.8795 7.2109 12.7858 6.10933 12.2077 5.6484C10.1725 4.0234 7.80532 2.99605 5.2936 2.64058C4.3522 2.50777 3.27798 2.4648 3.00845 2.55074Z" fill="white"/>
<path d="M3.0434 8.38294C2.63325 8.50794 2.39496 9.01575 2.54731 9.45716C2.6684 9.81654 2.96137 10.0001 3.4184 10.0001C3.76215 10.0001 4.29731 10.0587 4.70746 10.1408C5.51606 10.3009 6.59809 10.7775 7.30512 11.2775C7.77778 11.6173 8.38325 12.2228 8.72309 12.6954C9.03559 13.1368 9.48481 14.0197 9.64887 14.5197C9.8559 15.1486 10.0004 15.9845 10.0004 16.5665C10.0004 17.0158 10.1293 17.2579 10.4457 17.4064C10.8012 17.5704 11.1684 17.5118 11.4301 17.2501C11.6567 17.0236 11.6918 16.8283 11.6411 16.0939C11.4887 13.9728 10.6997 12.2189 9.24262 10.7579C7.80121 9.31263 6.0434 8.51966 3.94575 8.3595C3.29731 8.31263 3.26606 8.31263 3.0434 8.38294Z" fill="white"/>
<path d="M3.63329 14.2578C2.98876 14.4961 2.56689 15.0391 2.5122 15.707C2.43017 16.6992 3.30126 17.5703 4.29345 17.4883C4.98095 17.4297 5.55126 16.9727 5.75829 16.3086C5.86767 15.9649 5.83251 15.4844 5.67626 15.1484C5.50439 14.7852 5.25048 14.5234 4.89111 14.3477C4.62548 14.2149 4.56689 14.1992 4.22314 14.1914C3.92236 14.1797 3.80517 14.1953 3.63329 14.2578Z" fill="white"/>
</svg>
