<svg width="60" height="60" viewBox="0 0 60 60" fill="none" xmlns="http://www.w3.org/2000/svg">
<path d="M25.547 0.421883C21.2814 1.59376 20.004 1.95704 17.754 2.63673C12.3751 4.27735 7.65247 6.04688 4.55872 7.59376C2.14466 8.80079 2.17981 8.7422 2.28528 11.3086C2.42591 15.2578 3.07044 21.375 3.86731 26.5547C5.17981 35.0274 6.9845 41.5313 9.01185 45.0586C10.8986 48.3399 15.6095 52.1016 21.6798 55.1953C24.3868 56.5664 26.6017 57.4219 27.4454 57.4219C28.3478 57.4219 31.8868 55.9219 34.7462 54.3281C36.6212 53.2852 39.2345 51.5859 40.6056 50.5195L41.5431 49.793L41.6017 53.9883L41.6603 58.1836L41.9884 58.7344C42.1993 59.0977 42.504 59.4024 42.8673 59.6133L43.4181 59.9414L48.3986 59.9766C52.7814 60 53.4376 59.9883 53.8829 59.8125C54.5392 59.5664 55.0314 59.1445 55.3478 58.5469C55.5939 58.0781 55.6056 57.9492 55.6408 53.6719L55.6759 49.2774L56.7306 48.2109C57.879 47.0274 57.9962 46.7344 57.4806 46.2305C56.8712 45.6094 56.8712 45.6211 52.7345 49.7461L48.9259 53.543L47.6954 52.3359C46.9689 51.6094 46.3243 51.082 46.1368 51.0234C45.6329 50.9063 45.1876 51.2813 45.1408 51.8555C45.1056 52.2891 45.1525 52.3477 46.7814 53.9766C48.2931 55.4883 48.504 55.6641 48.8673 55.6641C49.2306 55.6641 49.4767 55.4531 51.504 53.4375C52.7345 52.207 53.7775 51.2109 53.8243 51.2109C53.8712 51.2109 53.9064 52.6055 53.9064 54.3164C53.9064 57.5742 53.8478 57.9844 53.379 58.1719C53.2736 58.207 51.1173 58.2422 48.5861 58.2422C44.0978 58.2422 43.9689 58.2305 43.6642 57.9961L43.3595 57.7617V52.9688V48.1758L43.6642 47.9414C43.9689 47.707 44.1095 47.6953 48.1876 47.6953C50.6603 47.6953 52.4884 47.6484 52.6056 47.5781C52.7228 47.5195 52.8868 47.3203 52.9572 47.1211C53.0743 46.8399 53.0743 46.7227 52.922 46.4297C52.8283 46.2422 52.6525 46.0547 52.5587 46.0078C52.4533 45.9727 50.7658 45.9375 48.8087 45.9375H45.2579L45.7501 45.0586L46.2306 44.1914L49.8634 44.1797C53.2618 44.1797 53.5314 44.1563 54.0236 43.9336C54.6798 43.6406 55.0314 43.3125 55.3478 42.7149C55.5939 42.2578 55.6056 42.0938 55.6408 37.8516L55.6759 33.457L56.7306 32.3906C57.879 31.207 57.9962 30.9141 57.4806 30.4102C56.8712 29.7891 56.8712 29.8008 52.7345 33.9258L48.9259 37.7227L47.6954 36.5156C46.9689 35.7891 46.3243 35.2617 46.1368 35.2031C45.6329 35.0859 45.1876 35.4609 45.1408 36.0352C45.1056 36.4688 45.1525 36.5274 46.7814 38.1563C48.2931 39.668 48.504 39.8438 48.8673 39.8438C49.2306 39.8438 49.4767 39.6328 51.504 37.6172C52.7345 36.3867 53.7775 35.3906 53.8243 35.3906C53.8712 35.3906 53.9064 36.7852 53.9064 38.4961C53.9064 41.7539 53.8478 42.1641 53.379 42.3516C53.2736 42.3867 51.1173 42.4219 48.5861 42.4219C44.0978 42.4219 43.9689 42.4102 43.6642 42.1758L43.3595 41.9414V37.1484V32.3555L43.6642 32.1211C43.9689 31.8867 44.1095 31.875 48.1759 31.875C50.4728 31.875 52.4533 31.8399 52.5587 31.8047C52.84 31.6875 53.0978 31.1016 53.0158 30.7617C52.8868 30.2461 52.5587 30.1172 51.3751 30.1172H50.297L50.3908 29.6719C50.4376 29.4375 50.5197 29.0391 50.5548 28.793L50.6368 28.3594H52.0665C53.2501 28.3594 53.59 28.3125 54.0236 28.1133C54.6798 27.8203 55.0314 27.4922 55.3478 26.8945C55.5939 26.4375 55.6056 26.2734 55.6408 22.0313L55.6759 17.6367L56.7306 16.5703C57.879 15.3867 57.9962 15.0938 57.4806 14.5899C56.8712 13.9688 56.8712 13.9805 52.7345 18.1055L48.9259 21.9024L47.6954 20.6953C46.9689 19.9688 46.3243 19.4414 46.1368 19.3828C45.6329 19.2656 45.1876 19.6406 45.1408 20.2149C45.1056 20.6484 45.1525 20.707 46.7814 22.3359C48.2931 23.8477 48.504 24.0234 48.8673 24.0234C49.2306 24.0234 49.4767 23.8125 51.5861 21.7149L53.9064 19.4063V22.5938C53.9064 25.9336 53.8478 26.3438 53.379 26.5313C53.2736 26.5664 51.1173 26.6016 48.5861 26.6016C44.0978 26.6016 43.9689 26.5899 43.6642 26.3555L43.3595 26.1211V21.3281V16.5352L43.6642 16.3008C43.9689 16.0664 44.1095 16.0547 48.1876 16.0547C50.6603 16.0547 52.4884 16.0078 52.6056 15.9375C53.1564 15.6445 53.1447 14.6602 52.5939 14.4024C52.3361 14.2852 52.3243 14.25 52.4064 13.207C52.547 11.168 52.5118 9.38673 52.3243 9.02345C51.9376 8.27345 51.0704 8.07423 50.6368 8.62501C50.3439 9.00001 50.3322 9.23438 50.5783 9.59766C50.754 9.84376 50.7658 10.125 50.6954 11.9883C50.6486 13.1484 50.59 14.1445 50.5548 14.2031C50.5197 14.25 50.1095 14.2969 49.6525 14.2969H48.8087L48.9142 12.8203C48.9728 11.8125 48.9728 11.25 48.879 11.0625C48.5626 10.3477 42.3986 7.9336 35.7423 5.91798C32.965 5.07423 27.7033 3.63282 27.3986 3.63282C27.2697 3.63282 26.0861 3.92579 24.7501 4.28907C16.9806 6.38673 10.8634 8.48438 6.78528 10.418C5.88294 10.8399 5.74231 11.0742 5.81263 12.0234C6.82044 25.8984 8.92981 37.043 11.5314 42.2227C12.1173 43.3945 12.3048 43.6758 12.5743 43.7695C12.9962 43.9102 13.4884 43.6524 13.6408 43.2188C13.7345 42.9492 13.6525 42.7031 13.1486 41.6367C11.9767 39.1406 10.9103 35.543 9.96106 30.7969C9.70325 29.5313 9.49231 28.4649 9.49231 28.418C9.49231 28.3828 13.3126 28.3594 17.9884 28.3594H26.4845V39.9609C26.4845 47.2852 26.4376 51.5625 26.3673 51.5625C26.1564 51.5625 23.8361 50.4258 22.4415 49.6406C20.4611 48.5156 17.965 46.8281 16.5353 45.6563C15.2111 44.5547 14.9415 44.4609 14.4728 44.9414C14.1212 45.2813 14.0978 45.6914 14.4142 46.0899C15.0236 46.8633 18.4572 49.3594 20.7892 50.7305C23.0509 52.0547 26.7775 53.7891 27.3868 53.7891C27.9142 53.7891 30.5861 52.6055 32.7189 51.4336C37.0548 49.043 40.7697 46.1484 42.2814 43.9805L42.5509 43.6055L42.9259 43.8281C43.1368 43.9453 43.5001 44.0859 43.7462 44.1211C43.9806 44.168 44.1798 44.2383 44.1798 44.2852C44.1798 44.4961 42.9845 45.9844 42.0822 46.8867C39.0353 49.9453 32.7423 53.8477 28.4884 55.3242L27.3751 55.7109L26.4376 55.3711C22.9572 54.1524 18.0704 51.3867 14.8829 48.832C13.465 47.707 11.6954 45.9141 11.004 44.918C8.81263 41.7539 6.86731 34.8516 5.46106 25.2539C4.78138 20.6602 4.24231 15.3633 4.03138 11.4024L3.94935 9.8672L5.23841 9.22266C9.44544 7.11329 16.3126 4.73438 24.797 2.46095L27.3868 1.75782L30.0118 2.46095C36.9611 4.33595 42.8556 6.26954 47.004 8.03907C47.8126 8.39063 48.5626 8.67188 48.6798 8.67188C48.7853 8.67188 49.0079 8.54298 49.1603 8.37891C49.5353 8.01563 49.547 7.50001 49.1954 7.1836C48.3986 6.46876 41.004 3.78516 35.0861 2.06251C31.5822 1.04298 27.6329 7.62939e-06 27.3048 0.0117264C27.1408 0.0117264 26.3556 0.199226 25.547 0.421883ZM26.4845 16.1133V26.6016H17.8361H9.18763L8.81263 23.9297C8.22669 19.8047 7.61731 13.9922 7.61731 12.5156C7.61731 11.9766 7.62903 11.9649 8.17981 11.707C12.3283 9.83204 18.1876 7.87501 26.4611 5.63673C26.4728 5.62501 26.4845 10.3477 26.4845 16.1133ZM30.7853 6.32813C36.9376 8.02735 42.4103 9.8672 46.1251 11.4961L47.2033 11.9649L47.1447 12.9844C47.1212 13.5469 47.0743 14.0625 47.0509 14.1445C47.0158 14.2383 46.4533 14.2969 45.1993 14.3203C43.4298 14.3555 43.3829 14.3672 42.8322 14.707C42.4103 14.9649 42.1642 15.2344 41.9298 15.6914L41.59 16.3242L41.6251 21.4688L41.6603 26.6016H34.9572H28.2423V16.1016C28.2423 6.16407 28.254 5.61329 28.4533 5.67188C28.5587 5.70704 29.6134 6.00001 30.7853 6.32813ZM45.2345 28.4883C45.2345 28.5703 45.1759 28.957 45.0939 29.3555L44.965 30.0938L44.1798 30.1406C43.1017 30.1992 42.3868 30.6328 41.9298 31.5117L41.6017 32.1328V36.9609V41.7891L41.0275 42.6563C39.5158 44.9649 35.4025 48.1055 30.9376 50.3789C29.9415 50.8945 28.922 51.3867 28.6876 51.4922L28.2423 51.668V40.0078V28.3594H36.7384C42.9962 28.3594 45.2345 28.3945 45.2345 28.4883ZM48.8204 28.5586C48.7853 28.6758 48.7267 28.9805 48.6915 29.2383C48.5392 30.1524 48.5861 30.1172 47.6134 30.1172H46.7345L46.8048 29.7305C46.8517 29.5313 46.9103 29.1328 46.9572 28.8516L47.0275 28.3594H47.9533C48.7853 28.3594 48.879 28.3828 48.8204 28.5586Z" fill="#333333"/>
</svg>
