<svg width="60" height="60" viewBox="0 0 60 60" fill="none" xmlns="http://www.w3.org/2000/svg">
<g clip-path="url(#clip0_122_1691)">
<path d="M6.36328 0.175781C4.23047 0.75 2.61328 2.39062 2.05078 4.53516C1.78125 5.54297 1.78125 54.457 2.05078 55.4648C2.61328 57.6328 4.24219 59.2617 6.41016 59.8242C7.41797 60.082 31.4883 60.082 32.4961 59.8242C34.6641 59.2617 36.293 57.6328 36.8555 55.4648C37.0078 54.9023 37.0312 53.4961 37.0312 46.793V38.7891L38.9414 37.3594L40.8398 35.918L48.1641 35.8594C55.3477 35.8008 55.5 35.8008 56.0273 35.5547C56.7305 35.2266 57.4922 34.4648 57.8203 33.7617C58.0664 33.2227 58.0664 33.1875 58.0664 24.1406C58.0664 15.0938 58.0664 15.0586 57.8203 14.5195C57.4922 13.8164 56.7305 13.0547 56.0273 12.7266C55.4883 12.4805 55.418 12.4805 46.2656 12.4453L37.0312 12.4219V8.8125C37.0312 6 36.9961 5.0625 36.8555 4.53516C36.293 2.36719 34.6641 0.738281 32.4961 0.175781C31.5234 -0.0820312 7.30078 -0.0703125 6.36328 0.175781ZM32.1914 2.51953C32.9648 2.75391 33.6797 3.28125 34.1016 3.94922C34.3008 4.25391 34.4531 4.54688 34.4531 4.59375C34.4531 4.64062 27.7031 4.6875 19.4531 4.6875C11.2031 4.6875 4.45312 4.64062 4.45312 4.59375C4.45312 4.35938 5.16797 3.39844 5.56641 3.09375C5.80078 2.91797 6.26953 2.67188 6.59766 2.56641C7.17188 2.36719 8.00391 2.35547 19.4062 2.34375C29.8711 2.34375 31.6758 2.36719 32.1914 2.51953ZM34.6875 9.72656V12.4102L30.1523 12.4453C25.7812 12.4805 25.582 12.4922 25.0664 12.7266C24.3633 13.0547 23.6016 13.8164 23.2734 14.5195C23.0273 15.0586 23.0273 15.0938 23.0273 24.1406C23.0273 33.1875 23.0273 33.2227 23.2734 33.7617C23.6016 34.4648 24.3633 35.2266 25.0664 35.5547C25.5469 35.7773 25.8516 35.8008 27.8086 35.8359L30 35.8828V38.9297C30 42.2344 30.0469 42.4805 30.668 42.7617C31.3008 43.0547 31.4414 42.9844 33.3164 41.5781L34.6875 40.5352V44.4141V48.2812H19.4531H4.21875V27.6562V7.03125H19.4531H34.6875V9.72656ZM55.3945 15.1523L55.7227 15.4688V24.1406V32.8125L55.3945 33.1289L55.0781 33.457L47.6016 33.5156C43.2188 33.5508 40.0664 33.6211 39.9609 33.6797C39.8672 33.75 38.1094 35.0508 36.0703 36.5859L32.3555 39.3633L32.3203 36.7969L32.2852 34.2188L31.957 33.9023L31.6406 33.5742L28.8281 33.5156L26.0156 33.457L25.6992 33.1289L25.3711 32.8125V24.1523C25.3711 15.6562 25.3711 15.4922 25.6055 15.2344C25.7344 15.0938 25.9453 14.9297 26.0742 14.8711C26.2031 14.8242 32.7773 14.7891 40.6875 14.8008L55.0781 14.8242L55.3945 15.1523ZM34.6641 52.8164C34.6289 54.7734 34.6055 55.0781 34.3828 55.5586C34.0547 56.2617 33.293 57.0234 32.5898 57.3516L32.0508 57.5977H19.4531H6.85547L6.31641 57.3516C5.61328 57.0234 4.85156 56.2617 4.52344 55.5586C4.30078 55.0781 4.27734 54.7734 4.24219 52.8164L4.19531 50.625H19.4531H34.7109L34.6641 52.8164Z" fill="white"/>
<path d="M30.75 19.5703C30.375 19.7226 30 20.2617 30 20.6367C30 21.1054 30.5391 21.6679 31.0664 21.75C31.4297 21.8085 31.5586 21.7617 31.8867 21.4687C32.2148 21.1757 32.2852 21.0351 32.2852 20.625C32.2852 20.2148 32.2148 20.0742 31.8984 19.7929C31.5117 19.4531 31.1953 19.3828 30.75 19.5703Z" fill="white"/>
<path d="M35.4375 19.5703C35.0625 19.7227 34.6875 20.2617 34.6875 20.6367C34.6875 20.8477 34.8164 21.1172 35.0273 21.3516L35.3672 21.7383L42.8203 21.7734L50.2617 21.7969L50.6484 21.457C50.9648 21.1758 51.0352 21.0352 51.0352 20.625C51.0352 20.2148 50.9648 20.0742 50.6484 19.793L50.2734 19.4531L42.9727 19.4648C38.9648 19.4648 35.5664 19.5117 35.4375 19.5703Z" fill="white"/>
<path d="M30.75 26.6015C30.375 26.7539 30 27.2929 30 27.6679C30 28.1367 30.5391 28.6992 31.0664 28.7812C31.4297 28.8398 31.5586 28.7929 31.8867 28.5C32.2148 28.207 32.2852 28.0664 32.2852 27.6562C32.2852 27.246 32.2148 27.1054 31.8984 26.8242C31.5117 26.4843 31.1953 26.414 30.75 26.6015Z" fill="white"/>
<path d="M35.4375 26.6016C35.0625 26.7539 34.6875 27.293 34.6875 27.668C34.6875 27.8789 34.8164 28.1484 35.0273 28.3828L35.3672 28.7695L42.8203 28.8047L50.2617 28.8281L50.6484 28.4883C50.9648 28.207 51.0352 28.0664 51.0352 27.6562C51.0352 27.2461 50.9648 27.1055 50.6484 26.8242L50.2734 26.4844L42.9727 26.4961C38.9648 26.4961 35.5664 26.543 35.4375 26.6016Z" fill="white"/>
<path d="M14.3555 53.0742C13.6289 53.3789 13.4063 54.3632 13.957 54.9023C14.1211 55.0664 14.4375 55.2304 14.6719 55.2656C15.0235 55.3242 15.1524 55.2773 15.4805 54.9843C15.8086 54.6914 15.8789 54.5507 15.8789 54.1406C15.8789 53.7304 15.8086 53.5898 15.4922 53.3085C15.1055 52.9687 14.7891 52.8984 14.3555 53.0742Z" fill="white"/>
<path d="M19.0312 53.0859C18.6562 53.2383 18.2812 53.7773 18.2812 54.1523C18.2812 54.3633 18.4102 54.6328 18.6211 54.8672L18.9609 55.2539L21.7148 55.2891L24.4805 55.3242L24.8672 54.9844C25.1836 54.6914 25.2539 54.5508 25.2539 54.1406C25.2539 53.7305 25.1836 53.5898 24.8672 53.3086L24.4922 52.9688L21.8789 52.9805C20.4492 52.9805 19.1602 53.0273 19.0312 53.0859Z" fill="white"/>
</g>
<defs>
<clipPath id="clip0_122_1691">
<rect width="60" height="60" fill="white"/>
</clipPath>
</defs>
</svg>
