<svg width="60" height="60" viewBox="0 0 60 60" fill="none" xmlns="http://www.w3.org/2000/svg">
<path d="M28.5938 0.996094C28.5 1.01953 28.0195 1.10156 27.5391 1.17188C22.7695 1.94531 18.5742 5.44922 16.8047 10.1602C16.1367 11.9297 16.0312 12.6797 15.9492 16.582L15.8672 20.2148L15.4336 21.832C15.1992 22.7227 15 23.6953 15 24.0117C15 25.8867 16.5703 27.3398 18.4102 27.1406L19.0898 27.0703L19.4648 27.7266C19.9805 28.6406 21.1055 30.0117 21.8672 30.6562L22.5 31.207L22.4766 33.5039L22.4414 35.8008L17.6719 36.6914C15.0469 37.1836 12.5508 37.6758 12.1289 37.7812C9.51562 38.4375 7.06641 40.3477 5.69531 42.7969C4.83984 44.3438 4.65234 45.1758 3.70312 51.8555C3.21094 55.2773 2.8125 58.1602 2.8125 58.2773C2.8125 58.3945 2.94141 58.6172 3.10547 58.7695L3.38672 59.0625H30H56.6133L56.8945 58.7695C57.0586 58.6172 57.1875 58.3945 57.1875 58.2773C57.1875 58.1602 56.7891 55.2773 56.2969 51.8555C55.3477 45.1875 55.1602 44.3438 54.3047 42.8086C53.0742 40.6055 50.9648 38.8242 48.6211 38.0039C48.1523 37.8398 45.4688 37.2773 42.668 36.75L37.5586 35.8008L37.5234 33.5039L37.5 31.207L38.1328 30.6562C38.8945 30.0117 40.0195 28.6406 40.5352 27.7266L40.9102 27.0703L41.5898 27.1406C43.4297 27.3398 45 25.8867 45 24.0117C45 23.6953 44.8008 22.7227 44.5664 21.832L44.1328 20.2148L44.0508 16.582C43.9805 13.5469 43.9336 12.7852 43.7344 11.9531C42.457 6.5625 38.3789 2.49609 33.0469 1.27734C32.1328 1.06641 29.0859 0.867188 28.5938 0.996094ZM31.9336 2.98828C33.2695 3.19922 34.4531 3.60938 35.6836 4.26562C36.7969 4.85156 37.9688 5.70703 37.9688 5.91797C37.9688 6 37.8516 6.60938 37.7227 7.27734C37.4414 8.625 37.4766 9.30469 37.8281 10.1133C38.3672 11.3438 39.4805 12.0703 40.9688 12.1641C41.625 12.1992 41.8477 12.2578 41.8945 12.4102C42.0117 12.8203 42.1875 14.2734 42.1875 15V15.7617L41.2734 14.8828C40.2773 13.9336 39 13.1367 37.8633 12.75C37.1719 12.5156 37.1484 12.4922 36.6211 11.5664C35.9414 10.3594 35.7422 9.77344 35.6367 8.61328C35.5312 7.47656 35.2852 6.92578 34.6172 6.33984C33.5273 5.39062 32.0977 5.39062 31.0078 6.33984C30.3516 6.92578 30.1055 7.46484 29.9883 8.57812C29.9414 9.08203 29.707 10.0898 29.4609 10.8281L29.0156 12.1641L26.3789 12.2227C23.4609 12.2812 22.8867 12.375 21.3516 13.0781C20.2617 13.5703 19.2188 14.3203 18.4336 15.1523L17.8125 15.8086V15C17.8125 14.1562 18.0117 12.5508 18.1406 12.3398C18.2695 12.1406 22.0195 10.5938 22.7109 10.4414C23.0508 10.3711 23.5547 10.3125 23.8359 10.3125C25.2891 10.3125 26.6367 9.33984 27.0234 8.01562C27.2695 7.16016 27.1875 5.90625 26.7891 4.37109L26.5195 3.30469L27.4688 3.11719C27.9844 3.01172 28.5234 2.90625 28.6523 2.88281C29.2148 2.77734 30.9609 2.82422 31.9336 2.98828ZM25.0195 4.94531C25.1484 5.4375 25.2539 6.1875 25.2539 6.70312C25.2539 7.57031 25.2305 7.62891 24.8906 7.98047C24.5508 8.30859 24.4219 8.35547 23.4844 8.44922C22.2305 8.57812 21.5391 8.76562 20.1328 9.375C19.5469 9.63281 19.043 9.84375 19.0195 9.84375C18.9375 9.84375 19.5 8.82422 19.957 8.14453C20.5195 7.30078 21.8789 5.88281 22.6406 5.32031C23.3555 4.79297 24.5039 4.10156 24.668 4.10156C24.7383 4.10156 24.9023 4.48828 25.0195 4.94531ZM33.457 7.79297C33.6797 8.00391 33.75 8.20312 33.75 8.57812C33.75 9.36328 34.0664 10.6289 34.4414 11.4492L34.793 12.1875H32.918C31.8984 12.1875 31.0547 12.1523 31.0547 12.1172C31.0547 12.0703 31.2188 11.543 31.4062 10.9336C31.6055 10.3242 31.793 9.42188 31.8398 8.92969C31.8984 8.21484 31.9688 7.98047 32.1797 7.76953C32.543 7.40625 33.0938 7.41797 33.457 7.79297ZM40.1133 8.22656C40.3359 8.56641 40.6875 9.17578 40.8867 9.57422L41.25 10.3125H40.9219C40.4648 10.3125 39.832 9.86719 39.5625 9.36328C39.3867 9.03516 39.3516 8.83594 39.4219 8.28516C39.4688 7.92188 39.5508 7.61719 39.6094 7.61719C39.6562 7.61719 39.8906 7.89844 40.1133 8.22656ZM36.2695 14.2383C36.7266 14.332 37.5352 14.625 38.0859 14.8945C39.4336 15.5508 40.875 16.9922 41.5078 18.2812C41.9766 19.2656 43.125 23.3555 43.125 24.0586C43.125 24.4219 43.043 24.5977 42.7266 24.9141C42.1758 25.4648 41.3672 25.4297 40.9688 24.8203C40.875 24.668 40.418 23.3086 39.9609 21.7969C39.5039 20.2852 39.0234 18.8203 38.9062 18.5508C38.4375 17.4844 37.1484 16.4414 35.918 16.1133C34.8867 15.8555 25.1133 15.8555 24.082 16.1133C22.8516 16.4414 21.5625 17.4844 21.0938 18.5508C20.9766 18.8203 20.4961 20.2852 20.0391 21.7969C19.582 23.3086 19.125 24.668 19.0312 24.8203C18.6328 25.4297 17.8242 25.4648 17.2734 24.9141C16.957 24.5977 16.875 24.4219 16.875 24.0586C16.875 23.3555 18.0234 19.2656 18.4922 18.2812C19.125 16.9922 20.5664 15.5625 21.9141 14.8945C23.5312 14.0977 23.7305 14.0859 29.9414 14.0742C34.3477 14.0625 35.6133 14.0977 36.2695 14.2383ZM35.6602 18C36.2461 18.1992 37.043 18.9023 37.2539 19.418C37.3242 19.6055 37.7461 20.9648 38.1914 22.4531C38.6367 23.9531 39.0938 25.3359 39.1875 25.5352C39.375 25.875 39.3633 25.9219 39.0938 26.4609C38.4492 27.7383 37.1367 29.168 35.8008 30.082C35.1797 30.5039 34.1953 31.0547 34.0664 31.0547C34.043 31.0547 33.9492 30.7266 33.8672 30.3281C33.6914 29.5078 33.3398 29.0625 32.8711 29.0625C32.707 29.0625 32.1914 29.2617 31.7227 29.4961C30.9727 29.8828 30.7852 29.9297 30 29.9297C29.2148 29.9297 29.0273 29.8828 28.2773 29.4961C27.8086 29.2617 27.293 29.0625 27.1289 29.0625C26.6602 29.0625 26.3086 29.5078 26.1328 30.3281C26.0508 30.7266 25.957 31.0547 25.9219 31.0547C25.8867 31.0547 25.5117 30.8672 25.0898 30.6211C23.2383 29.6016 21.7266 28.0781 20.8711 26.3906C20.6367 25.9336 20.6367 25.875 20.8008 25.5586C20.8945 25.3594 21.375 23.9062 21.8555 22.3125C22.7227 19.4297 22.957 18.8906 23.5781 18.3984C24.293 17.8477 24.4688 17.8242 29.9531 17.8242C34.3711 17.8125 35.1914 17.8359 35.6602 18ZM28.8867 31.7109C29.8008 31.9688 30.9375 31.875 32.0039 31.4648C32.1562 31.4062 32.2266 31.5469 32.3906 32.1562C32.6602 33.2578 32.6602 33.2461 31.9102 33.4805C30.5273 33.9023 27.4219 33.6328 27.4219 33.0938C27.4219 33 27.5039 32.5781 27.6094 32.1562C27.7852 31.4648 27.832 31.3945 28.0547 31.4648C28.1953 31.5117 28.5586 31.6172 28.8867 31.7109ZM25.3711 33.4102C25.2656 34.1602 25.4297 34.418 26.2969 34.8047C27.5742 35.3906 28.3945 35.5547 30 35.5547C31.6055 35.5547 32.4258 35.3906 33.7031 34.8047C34.5703 34.418 34.7344 34.1602 34.6289 33.4102L34.5586 32.8711L35.0859 32.6016L35.625 32.3438V34.1602V35.9766L34.957 36.3164C31.9805 37.8047 28.418 37.8516 25.3477 36.4336L24.375 35.9883V34.1719V32.3438L24.9141 32.6016L25.4414 32.8711L25.3711 33.4102ZM26.3789 38.8359C29.5312 39.7383 32.6367 39.4805 35.6836 38.0391L36.7383 37.5469L38.0859 37.8047C38.8242 37.9336 39.6328 38.0859 39.8789 38.1328L40.3125 38.2148V41.6016V45H30H19.6875V41.6133V38.2266L21.4805 37.8867L23.2617 37.5469L24.3164 38.0391C24.9023 38.3203 25.8281 38.6719 26.3789 38.8359ZM17.7891 42.3281C17.7539 46.1016 17.7539 46.1133 17.4609 46.6992C16.6406 48.3281 14.8477 48.1406 14.25 46.3594C14.0977 45.8789 14.0625 45.2227 14.0625 42.5273V39.2695L14.5078 39.1875C14.7422 39.1406 15.5508 38.9883 16.2891 38.8477C17.0273 38.6953 17.6836 38.5781 17.7305 38.5664C17.7773 38.5547 17.8008 40.2539 17.7891 42.3281ZM44.2852 38.9648C45.1406 39.1289 45.8789 39.2578 45.9023 39.2578C45.9258 39.2578 45.9375 40.8047 45.9141 42.6797C45.8789 46.0781 45.8789 46.125 45.5859 46.6992C44.7656 48.3281 42.9727 48.1406 42.375 46.3594C42.2227 45.8672 42.1875 45.1992 42.1875 42.1641V38.5547L42.457 38.6133C42.5977 38.6484 43.418 38.8008 44.2852 38.9648ZM12.1875 48.457V57.1875H8.49609H4.81641L4.875 56.8594C4.89844 56.6836 5.27344 54.1523 5.68359 51.2344C6.14062 48.082 6.53906 45.6328 6.69141 45.1992C7.42969 42.9844 8.95312 41.25 11.0625 40.1836C11.5664 39.9375 12.0234 39.7266 12.082 39.7266C12.1406 39.7266 12.1875 43.4766 12.1875 48.457ZM49.1133 40.2773C51.0938 41.3086 52.5938 43.0547 53.3086 45.1992C53.4609 45.6328 53.8594 48.082 54.3164 51.2344C54.7266 54.1523 55.1016 56.6836 55.125 56.8594L55.1953 57.1875H51.5039H47.8125V48.4453V39.7148L48.082 39.7852C48.2227 39.832 48.6914 40.0547 49.1133 40.2773ZM40.8164 47.4961C41.2031 48.3516 41.7305 48.9141 42.4805 49.2773C43.5117 49.7812 44.5547 49.7812 45.7969 49.2656C45.9023 49.207 45.9375 50.0391 45.9375 53.1914V57.1875H45H44.0625V53.7305V50.2617L43.7695 49.9805L43.4883 49.6875H40.3125H37.1367L36.8555 49.9805L36.5625 50.2617V53.7305V57.1875H35.1562H33.75V53.7305V50.2617L33.457 49.9805L33.1758 49.6875H30H26.8242L26.543 49.9805L26.25 50.2617V53.7305V57.1875H24.8438H23.4375V53.7305V50.2617L23.1445 49.9805L22.8633 49.6875H19.6875H16.5117L16.2305 49.9805L15.9375 50.2617V53.7305V57.1875H15H14.0625V53.1914C14.0625 50.0391 14.0977 49.207 14.2148 49.2656C15.4453 49.7812 16.4883 49.7812 17.5195 49.2773C18.2695 48.9141 18.7969 48.3516 19.1836 47.4961L19.4648 46.875H30H40.5352L40.8164 47.4961ZM21.5625 54.375V57.1875H19.6875H17.8125V54.375V51.5625H19.6875H21.5625V54.375ZM31.875 54.375V57.1875H30H28.125V54.375V51.5625H30H31.875V54.375ZM42.1875 54.375V57.1875H40.3125H38.4375V54.375V51.5625H40.3125H42.1875V54.375Z" fill="white"/>
</svg>
