<svg width="20" height="20" viewBox="0 0 20 20" fill="none" xmlns="http://www.w3.org/2000/svg">
<g clip-path="url(#clip0_122_1983)">
<path d="M9.51266 0.0121631C8.43137 0.0751709 7.29926 0.327202 6.27078 0.733687C5.8643 0.894233 5.18746 1.23166 4.79313 1.46947C4.18945 1.8333 3.54719 2.3333 3.00453 2.86173C1.33992 4.48572 0.307384 6.61173 0.0512907 8.94505C-0.0198421 9.58326 -0.00968583 10.5548 0.0736736 11.189C0.193595 12.1178 0.480158 13.1686 0.835861 13.9999C1.22203 14.9024 1.8643 15.7194 2.54117 16.1727C2.87652 16.3983 3.17938 16.5183 3.655 16.6199C3.88266 16.6686 3.95988 16.6747 4.29934 16.6747C4.6225 16.6768 4.72211 16.6686 4.9152 16.6301C5.36235 16.5406 5.78106 16.3679 6.14285 16.124C7.09 15.4878 7.5961 14.6382 7.63676 13.6179C7.6652 12.9492 7.56766 12.5285 7.06969 11.1382C6.35629 9.15244 6.10629 8.20935 5.96199 6.96138C5.91117 6.52236 5.91117 5.48982 5.96199 5.0813C6.07176 4.19513 6.30348 3.40853 6.67137 2.67482C6.96606 2.08537 7.22219 1.75001 7.68356 1.34556C8.72621 0.432944 10.397 0.0305225 12.1226 0.27646C12.2425 0.292749 12.3462 0.302866 12.3502 0.298804C12.3624 0.286616 11.8116 0.168726 11.523 0.123999C11.0697 0.050835 10.6896 0.0203271 10.1632 0.0122021C9.87863 0.00813965 9.58598 0.00813965 9.51281 0.0122021L9.51266 0.0121631Z" fill="#333333"/>
<path d="M12.3939 0.319104C12.4082 0.325198 12.4264 0.323167 12.4325 0.317073C12.4407 0.310979 12.4285 0.304886 12.4061 0.306917C12.3838 0.306917 12.3777 0.313011 12.3939 0.319104Z" fill="#333333"/>
<path d="M13.104 0.947166C12.2849 1.09556 11.6427 1.67279 11.4252 2.45935C11.2625 3.04474 11.3723 3.74189 11.6995 4.20123C11.9211 4.51221 12.1365 4.71342 12.8256 5.25611C13.4394 5.73783 13.6325 5.9065 14.102 6.36994C15.2971 7.54881 15.9089 8.50814 16.3113 9.82724C16.7971 11.4187 16.7788 13.0793 16.2605 14.5833C15.9902 15.3658 15.5593 16.1484 15.0451 16.7967C14.3682 17.6463 13.8764 18.0366 12.8682 18.5345C10.9821 19.4634 8.95766 19.7032 7.02274 19.2256C5.96989 18.9654 4.87032 18.4573 3.91297 17.7886C3.68332 17.628 3.76664 17.7154 4.03289 17.9167C5.30727 18.8699 6.89875 19.5549 8.47801 19.8252C9.34793 19.9756 10.3215 19.9979 11.1792 19.8862C12.3825 19.7337 13.6162 19.3333 14.7036 18.7438L14.9841 18.5914L16.793 19.0731C17.7869 19.3394 18.604 19.5528 18.6081 19.5487C18.6121 19.5467 18.5105 18.6971 18.3824 17.6626C18.2564 16.628 18.1507 15.754 18.1487 15.7215C18.1447 15.6747 18.1873 15.5955 18.3174 15.3963C19.171 14.0955 19.6934 12.6077 19.8723 10.9756C19.9231 10.5061 19.9231 9.47353 19.8723 9.00404C19.669 7.14631 19.0389 5.51217 17.9577 4.05486C17.4089 3.31096 16.6061 2.5081 15.8377 1.92885C15.3622 1.56908 14.7849 1.23982 14.3296 1.07115C13.9292 0.922752 13.4882 0.878065 13.104 0.947166Z" fill="#333333"/>
</g>
<defs>
<clipPath id="clip0_122_1983">
<rect width="19.9219" height="20" fill="white"/>
</clipPath>
</defs>
</svg>
