<svg width="20" height="20" viewBox="0 0 20 20" fill="none" xmlns="http://www.w3.org/2000/svg">
<g clip-path="url(#clip0_122_1997)">
<path d="M0.353256 9.64303L4.96165 11.363L6.74537 17.0995C6.85951 17.4669 7.30876 17.6027 7.60697 17.3588L10.1758 15.2647C10.4451 15.0453 10.8286 15.0344 11.11 15.2386L15.7432 18.6024C16.0622 18.8343 16.5142 18.6595 16.5942 18.274L19.9882 1.94795C20.0756 1.5269 19.6618 1.17565 19.2609 1.33069L0.347865 8.62678C-0.118853 8.80678 -0.11483 9.46756 0.353256 9.64295V9.64303ZM6.45794 10.4474L15.4645 4.90034C15.6263 4.80096 15.7929 5.01983 15.6539 5.14874L8.22087 12.0581C7.95958 12.3013 7.79107 12.6267 7.74333 12.98L7.49013 14.8564C7.45662 15.1069 7.10466 15.1318 7.03552 14.8893L6.06173 11.4677C5.95017 11.0774 6.11271 10.6605 6.45794 10.4475V10.4474Z" fill="white"/>
</g>
<defs>
<clipPath id="clip0_122_1997">
<rect width="20" height="20" fill="white"/>
</clipPath>
</defs>
</svg>
