<svg width="20" height="20" viewBox="0 0 20 20" fill="none" xmlns="http://www.w3.org/2000/svg">
<path d="M9.55904 1.99998C7.63529 2.41522 5.38955 4.03389 3.94888 6.04237C1.8133 9.03389 1.16076 12.839 2.38107 15.2712C3.11838 16.7542 4.48279 17.7881 6.3133 18.2712C7.21158 18.5085 8.97431 18.4915 9.85568 18.2372C11.8387 17.6694 13.4743 16.3135 15.5676 13.4915C17.2116 11.2712 17.2963 11.161 17.8981 10.5423L18.4828 9.94912L18.4574 9.27963L18.4319 8.61861L17.9658 8.98303C17.7116 9.18643 16.7963 10.0762 15.9319 10.9576C14.1861 12.7457 13.2031 13.5593 12.1777 14.0678C11.0421 14.6271 10.059 14.7712 8.94041 14.5338C8.61838 14.466 8.33869 14.4067 8.33025 14.4067C8.27095 14.4067 7.96584 15.5847 7.91498 16.0085C7.86412 16.5085 7.85568 16.5254 7.63529 16.4661C7.22002 16.3729 6.58447 16 6.18611 15.6271C5.66916 15.1441 5.29631 14.4322 5.16068 13.6865C5.07595 13.161 5.01662 13.0424 4.66068 12.6526C4.04201 11.9746 3.8556 11.5339 3.8556 10.7119C3.8556 10.0933 3.88951 9.97459 4.18611 9.37291C5.13529 7.44916 7.77088 5.82209 10.1353 5.69494C11.1353 5.64408 11.6861 5.75424 12.3979 6.12717C12.9319 6.40686 13.5251 7.01701 13.6183 7.36444C13.7623 7.93225 12.8725 8.68647 11.5166 9.12713C10.4319 9.49154 9.46576 9.61865 8.72845 9.49154C7.71998 9.32205 7.33013 8.94072 7.33013 8.12713V7.64408L7.1183 7.75428C6.83861 7.89834 6.37256 8.36444 6.22002 8.65256C5.8556 9.36444 5.92342 10.1865 6.39799 10.7458L6.69459 11.0848L6.52509 11.2966C5.88103 12.1187 5.72002 13.2966 6.13525 14.2119C6.3556 14.6949 7.059 15.5085 7.25388 15.5085C7.30474 15.5085 7.37252 15.3305 7.39795 15.1187C7.4149 14.9068 7.57591 14.4492 7.74541 14.1102C8.27084 13.0509 9.00814 12.5 11.5336 11.3221C13.0759 10.6017 13.4573 10.356 14.0505 9.71186C14.8133 8.87287 15.1692 7.83897 15.1692 6.46612C15.1692 6.03389 15.1268 5.48307 15.0759 5.23729C14.5844 2.87287 12.1522 1.44069 9.55896 2.00002L9.55904 1.99998Z" fill="white"/>
</svg>
