<svg width="60" height="60" viewBox="0 0 60 60" fill="none" xmlns="http://www.w3.org/2000/svg">
<path d="M3.98427 0.175819C2.78896 0.562538 1.67568 1.81644 1.40615 3.09379C1.32412 3.50394 1.30068 11.9414 1.3124 30.3516L1.34756 57.0118L1.73427 57.7969C2.15615 58.6524 2.74209 59.2383 3.62099 59.6719L4.16006 59.9415H11.4257H18.6913L19.2538 59.6836C19.5702 59.5313 20.0272 59.2618 20.2733 59.0625L20.7304 58.6993L21.2577 59.1094C22.3944 59.9766 22.078 59.9415 29.9999 59.9415C37.9218 59.9415 37.6054 59.9766 38.7421 59.1094L39.2694 58.6993L39.7265 59.0625C39.9726 59.2618 40.4296 59.5313 40.746 59.6836L41.3085 59.9415H48.5741H55.8397L56.5194 59.6016C57.3397 59.1797 57.9257 58.5586 58.3476 57.668L58.6522 57.0118V30V2.98832L58.3476 2.33207C57.9257 1.44144 57.3397 0.820351 56.5194 0.398476L55.8397 0.0586319H48.5741H41.3085L40.746 0.316444C40.4296 0.468788 39.9726 0.738319 39.7265 0.937538L39.2694 1.30082L38.7187 0.878944C37.5819 3.8147e-05 38.1444 0.0586319 29.9999 0.0586319C21.8554 0.0586319 22.4179 3.8147e-05 21.2812 0.878944L20.7304 1.30082L20.2733 0.937538C20.0272 0.738319 19.5702 0.468788 19.2538 0.316444C18.6913 0.0586319 18.6679 0.0586319 11.6015 0.0351944C5.74209 0.0117569 4.41787 0.0469131 3.98427 0.175819ZM18.9022 2.10941C19.1366 2.26176 19.4296 2.58988 19.5585 2.82426L19.8046 3.25785V29.9883C19.8046 59.1446 19.8515 57 19.1366 57.6797C18.9608 57.8555 18.6562 58.0547 18.4804 58.1133C18.2577 58.1954 15.9022 58.2422 11.4491 58.2422C3.83193 58.2422 4.07802 58.2657 3.43349 57.293L3.10537 56.7891V30V3.21098L3.42177 2.73051C3.59756 2.46098 3.9374 2.15629 4.24209 2.00394C4.74599 1.75785 4.78115 1.75785 11.6132 1.78129L18.4687 1.81644L18.9022 2.10941ZM37.4647 2.13285C37.7226 2.29691 38.0272 2.63676 38.1562 2.89457C38.3788 3.32816 38.3788 4.00785 38.3788 30C38.3788 55.9922 38.3788 56.6719 38.1562 57.1055C38.0272 57.3633 37.7226 57.7032 37.4647 57.8672L36.9843 58.1836H29.9999H23.0155L22.5351 57.8672C22.2772 57.7032 21.9726 57.3633 21.8437 57.1055C21.6327 56.6719 21.621 55.9571 21.5858 30.293C21.5624 11.543 21.5976 3.77348 21.6796 3.41019C21.8554 2.70707 22.1718 2.29691 22.7577 2.00394C23.2616 1.75785 23.3319 1.75785 30.1288 1.78129L36.9843 1.81644L37.4647 2.13285ZM55.746 1.98051C56.0507 2.12113 56.3554 2.39066 56.5663 2.70707L56.8944 3.21098V30V56.7891L56.5663 57.293C56.3437 57.6211 56.0624 57.8672 55.7226 58.0196C55.2304 58.2422 54.914 58.2422 48.3632 58.2188L41.5312 58.1836L41.0976 57.8907C40.8632 57.7383 40.5702 57.4102 40.4413 57.1758L40.1952 56.7422V29.9883V3.22269L40.4413 2.81254C40.5819 2.58988 40.7812 2.33207 40.8866 2.25004C41.4843 1.76957 41.5077 1.76957 48.5155 1.76957C54.8905 1.75785 55.2772 1.76957 55.746 1.98051Z" fill="white"/>
<path d="M6.5625 4.20712C6.33984 4.3243 6 4.61727 5.80078 4.85165C5.44922 5.29696 5.44922 5.29696 5.41406 7.03134L5.37891 8.75399L5.69531 9.0118C6.08203 9.31649 6.45703 9.32821 6.80859 9.03524C7.06641 8.8243 7.08984 8.70712 7.14844 7.30087L7.20703 5.80087L11.3555 5.76571C14.3203 5.74227 15.5508 5.77743 15.6562 5.87118C15.7969 5.98837 15.8203 7.82821 15.8203 16.922C15.8203 22.922 15.7734 27.9024 15.7266 27.9845C15.6445 28.0899 14.707 28.1251 11.4141 28.1016L7.20703 28.0665L7.14844 20.1329L7.08984 12.1993L6.83203 11.9415C6.48047 11.5899 5.89453 11.5899 5.60156 11.9415C5.40234 12.1993 5.39062 12.6095 5.39062 20.2266C5.39062 26.6954 5.42578 28.3243 5.55469 28.629C5.75391 29.1329 6.46875 29.7423 6.9375 29.8243C7.14844 29.8595 9.32812 29.8829 11.7891 29.8595L16.2539 29.8243L16.6875 29.4845C16.9336 29.297 17.2383 28.922 17.3555 28.6407C17.5781 28.1602 17.5781 27.7149 17.5547 16.7813L17.5195 5.43758L17.1914 4.9454C17.0156 4.67587 16.6641 4.34774 16.4062 4.21883C15.9727 3.99618 15.7266 3.98446 11.4609 3.98446C7.3125 3.98446 6.9375 3.99618 6.5625 4.20712Z" fill="white"/>
<path d="M8.96484 9.08203C8.80078 9.23438 8.67188 9.50391 8.67188 9.66797C8.67188 9.83203 8.80078 10.1016 8.96484 10.2539C9.24609 10.5469 9.26953 10.5469 11.4141 10.5469C12.5977 10.5469 13.6641 10.5117 13.7695 10.4766C14.0508 10.3594 14.3086 9.77344 14.2266 9.43359C14.0742 8.84766 13.8398 8.78906 11.4492 8.78906C9.26953 8.78906 9.24609 8.78906 8.96484 9.08203Z" fill="white"/>
<path d="M8.91767 13.7812C8.58955 14.1914 8.61299 14.5898 8.96455 14.9414C9.2458 15.2344 9.26924 15.2344 11.3552 15.2344C12.6794 15.2344 13.57 15.1875 13.7575 15.1055C14.3552 14.8359 14.402 13.8984 13.8395 13.6055C13.6989 13.5234 12.7263 13.4766 11.3786 13.4766H9.15205L8.91767 13.7812Z" fill="white"/>
<path d="M9.98391 41.6602C7.5347 42.1992 5.50735 44.1562 4.87454 46.6055C4.64016 47.5078 4.64016 49.0781 4.86282 49.9805C5.17923 51.2227 5.70657 52.1367 6.66751 53.0977C8.02688 54.457 9.62063 55.125 11.4839 55.125C13.3472 55.1133 14.9292 54.457 16.2417 53.1328C17.9527 51.4336 18.6441 49.0664 18.105 46.7695C17.8003 45.4922 17.273 44.5781 16.23 43.5352C15.5386 42.8437 15.0699 42.4805 14.4839 42.1992C13.0425 41.5195 11.5074 41.332 9.98391 41.6602ZM13.2769 43.5937C14.5425 44.0742 15.6909 45.2227 16.1714 46.4883C17.1324 48.9844 15.9956 51.8086 13.5816 52.8984C11.0152 54.0703 8.08548 52.9805 6.87845 50.4023C6.57376 49.7578 6.50345 49.4531 6.46829 48.5625C6.39798 46.9102 6.84329 45.7852 8.00345 44.6719C9.09329 43.6523 10.2652 43.207 11.7183 43.2891C12.2339 43.3125 12.8784 43.4414 13.2769 43.5937Z" fill="white"/>
<path d="M10.2653 44.9531C9.363 45.2812 8.69503 45.9141 8.22628 46.875C7.40597 48.5859 8.16769 50.6602 9.93722 51.5273C10.488 51.7969 10.7575 51.8555 11.4841 51.8555C12.9489 51.8437 13.9919 51.1992 14.6482 49.8984C14.9294 49.3125 14.9997 49.0312 14.9997 48.3984C14.9997 47.9766 14.906 47.3555 14.8005 47.0391C14.531 46.2539 13.5114 45.2344 12.7263 44.9648C12.0232 44.7305 10.8864 44.7187 10.2653 44.9531ZM12.3982 46.7578C13.2185 47.2617 13.5114 48.4687 13.0075 49.2891C12.6794 49.8047 11.8474 50.2031 11.2497 50.1211C9.91378 49.9453 9.18722 48.293 9.98409 47.2734C10.5818 46.5234 11.6364 46.3008 12.3982 46.7578Z" fill="white"/>
<path d="M25.1367 4.18359C24.5977 4.46484 24.3633 4.71094 24.1289 5.21484C23.918 5.66016 23.9062 6.26953 23.9062 16.9688C23.9062 28.0078 23.9062 28.2656 24.1406 28.7109C24.2695 28.957 24.5625 29.3086 24.8086 29.4961L25.2305 29.8242H30H34.7695L35.2031 29.4844C35.4492 29.2969 35.7539 28.9336 35.8711 28.6641C36.082 28.207 36.0938 27.668 36.0938 16.957C36.0938 7.125 36.0703 5.68359 35.918 5.30859C35.6836 4.74609 35.4375 4.47656 34.8984 4.20703C34.4883 3.99609 34.1484 3.98438 29.9766 3.98438C26.1094 3.99609 25.4414 4.01953 25.1367 4.18359ZM34.2773 16.9336V28.0664H30H25.7227L25.6875 17.0508C25.6758 10.9922 25.6875 5.96484 25.7227 5.88281C25.7578 5.76562 26.6836 5.74219 30.0234 5.76562L34.2773 5.80078V16.9336Z" fill="white"/>
<path d="M27.4805 9.08203C27.3164 9.23438 27.1875 9.50391 27.1875 9.66797C27.1875 9.83203 27.3164 10.1016 27.4805 10.2539C27.7617 10.5469 27.7852 10.5469 30 10.5469C32.2148 10.5469 32.2383 10.5469 32.5195 10.2539C32.6836 10.1016 32.8125 9.83203 32.8125 9.66797C32.8125 9.50391 32.6836 9.23438 32.5195 9.08203C32.2383 8.78906 32.2148 8.78906 30 8.78906C27.7852 8.78906 27.7617 8.78906 27.4805 9.08203Z" fill="white"/>
<path d="M27.4807 13.7695C27.1292 14.1094 27.1057 14.5195 27.4104 14.8945C27.6331 15.1758 27.6565 15.1758 30.0003 15.1758C32.344 15.1758 32.3675 15.1758 32.5901 14.8945C32.8948 14.5195 32.8714 14.1094 32.5198 13.7695C32.2386 13.4766 32.2151 13.4766 30.0003 13.4766C27.7854 13.4766 27.762 13.4766 27.4807 13.7695Z" fill="white"/>
<path d="M28.5117 41.6484C25.418 42.3516 23.2031 45.1406 23.2031 48.3164C23.2031 50.1914 23.8477 51.7383 25.207 53.0977C26.5547 54.4688 28.1133 55.1133 30 55.1133C31.8984 55.1133 33.4688 54.457 34.8047 53.0977C36.2695 51.6211 36.8672 50.0156 36.7617 47.9297C36.668 46.125 36.0234 44.6953 34.7344 43.4414C33.1406 41.8711 30.668 41.1562 28.5117 41.6484ZM31.2305 43.418C32.7188 43.8164 33.9258 44.8242 34.6055 46.2539C34.957 47.0039 34.9805 47.1328 34.9805 48.3398C34.9805 49.5703 34.957 49.6641 34.582 50.4492C33.5977 52.4648 31.4648 53.625 29.2852 53.3203C27.6562 53.0859 26.1094 51.9375 25.3945 50.4258C25.043 49.6758 25.0195 49.5469 25.0195 48.3398C25.0195 47.1328 25.043 47.0039 25.3945 46.2539C26.4727 43.9805 28.8867 42.8086 31.2305 43.418Z" fill="white"/>
<path d="M28.734 44.9648C28.0192 45.2109 27.0348 46.1602 26.7301 46.8867C26.2028 48.1055 26.4489 49.6758 27.3161 50.6719C28.7223 52.2773 31.277 52.2773 32.6833 50.6719C33.5504 49.6758 33.7965 48.1055 33.2692 46.8867C32.9528 46.125 31.9684 45.2109 31.2184 44.9531C30.527 44.7187 29.402 44.7305 28.734 44.9648ZM30.9372 46.793C31.7575 47.332 32.0387 48.4219 31.57 49.2305C31.3239 49.6641 30.4918 50.1562 29.9997 50.1562C29.5075 50.1562 28.6754 49.6641 28.4293 49.2305C27.5153 47.6484 29.4372 45.7734 30.9372 46.793Z" fill="white"/>
<path d="M43.5586 4.23053C43.3242 4.35944 42.9844 4.67584 42.7969 4.94537L42.4805 5.43756L42.4453 13.3829L42.4219 21.3399L42.7031 21.6212C43.0781 21.9962 43.5234 21.9962 43.8867 21.6212L44.1797 21.3399V13.6758C44.1797 7.32428 44.2031 5.97662 44.3438 5.87115C44.4492 5.7774 45.6797 5.74225 48.6445 5.76569L52.793 5.80084V16.9337V28.0665L48.5859 28.1016C45.293 28.1251 44.3555 28.0899 44.2734 27.9844C44.2266 27.9024 44.1797 27.1524 44.1797 26.3321C44.1797 24.9024 44.168 24.8204 43.8867 24.5508C43.7344 24.3868 43.4648 24.2579 43.3008 24.2579C43.1367 24.2579 42.8672 24.3868 42.7148 24.5508C42.4336 24.8204 42.4219 24.879 42.4219 26.5079C42.4219 28.4415 42.5742 28.9219 43.3125 29.4844L43.7461 29.8243L48.3867 29.8594C53.6016 29.8946 53.4844 29.9063 54.1875 29.0274L54.5508 28.5704L54.5859 17.0977C54.6094 5.81256 54.6094 5.61334 54.375 5.15631C54.2461 4.91022 53.9531 4.55865 53.707 4.37115L53.2852 4.04303L48.6445 4.01959C44.2031 3.99615 43.9805 3.99615 43.5586 4.23053Z" fill="white"/>
<path d="M46.0897 8.96484C45.9608 9.05859 45.8084 9.26953 45.7733 9.43359C45.6912 9.77344 45.9491 10.3594 46.2303 10.4766C46.3358 10.5117 47.4022 10.5469 48.5858 10.5469C50.7303 10.5469 50.7537 10.5469 51.035 10.2539C51.1991 10.1016 51.328 9.83203 51.328 9.66797C51.328 9.50391 51.1991 9.23438 51.035 9.08203C50.7537 8.78906 50.7303 8.78906 48.5506 8.78906C46.7928 8.78906 46.2889 8.82422 46.0897 8.96484Z" fill="white"/>
<path d="M46.137 13.6055C45.5979 13.9219 45.6565 14.8359 46.2425 15.1055C46.43 15.1875 47.3206 15.2344 48.6448 15.2344C50.7308 15.2344 50.7542 15.2344 51.0354 14.9414C51.387 14.5898 51.4104 14.1914 51.0823 13.7812L50.8479 13.4766H48.5979C47.2503 13.4766 46.2659 13.5352 46.137 13.6055Z" fill="white"/>
<path d="M47.168 41.6134C46.8516 41.6837 46.1484 41.9415 45.6094 42.1876C44.8125 42.5626 44.4492 42.8321 43.7227 43.5587C42.375 44.9181 41.7188 46.4649 41.7188 48.3048C41.7188 49.4063 41.9062 50.1798 42.4219 51.2696C44.0625 54.7032 48.1289 56.0977 51.5625 54.422C52.207 54.1056 52.6758 53.754 53.332 53.086C54.7031 51.7032 55.3125 50.2384 55.3125 48.3048C55.3125 44.6134 52.5 41.6837 48.8203 41.5431C48.2344 41.5196 47.4961 41.5431 47.168 41.6134ZM49.7227 43.4181C50.6719 43.6641 51.2695 44.004 51.9961 44.672C53.1562 45.7852 53.6016 46.9102 53.5312 48.5626C53.4961 49.4532 53.4258 49.7579 53.1211 50.4141C51.9258 52.9571 48.9492 54.0587 46.418 52.8985C43.1367 51.4102 42.457 47.004 45.1406 44.5899C46.4648 43.4063 48.082 42.9845 49.7227 43.4181Z" fill="white"/>
<path d="M47.2266 44.9649C46.4883 45.2345 45.4453 46.3009 45.1992 47.0392C45.0938 47.3556 45 47.9767 45 48.3985C45 49.7696 45.8203 51.0118 47.0977 51.6095C47.9297 51.9845 49.1953 51.9493 50.0625 51.5274C51.3398 50.8946 52.0781 49.7462 52.0781 48.3399C52.0781 46.9454 51.3047 45.7032 50.0508 45.0938C49.3477 44.754 47.9883 44.6837 47.2266 44.9649ZM49.3242 46.6993C50.2148 47.1563 50.5664 48.129 50.1797 49.0196C49.7344 50.0157 48.7266 50.3907 47.7656 49.9337C47.0859 49.5938 46.7578 49.0782 46.7578 48.3282C46.7578 47.6485 47.0625 47.0978 47.6016 46.7579C48.0586 46.4767 48.8555 46.4532 49.3242 46.6993Z" fill="white"/>
</svg>
