<svg width="60" height="60" viewBox="0 0 60 60" fill="none" xmlns="http://www.w3.org/2000/svg">
<g clip-path="url(#clip0_122_2056)">
<path d="M7.03125 0.187462C5.69531 0.550743 4.61719 1.46481 3.96094 2.78902L3.57422 3.57418V27.7734V51.9726L3.84375 52.6523C4.18359 53.4726 5.15625 54.5625 5.94141 54.9961C7.21875 55.6875 6.80859 55.664 19.9453 55.664C28.5117 55.664 32.0625 55.6289 32.2617 55.5351C32.543 55.4062 32.8125 54.9843 32.8125 54.6797C32.8125 54.5976 32.707 54.3867 32.5664 54.2109L32.332 53.9062H20.168C6.66797 53.9062 7.28906 53.9414 6.33984 53.1211C6.05859 52.8867 5.70703 52.4179 5.55469 52.1015L5.27344 51.5039V27.832C5.27344 4.27731 5.28516 4.16012 5.51953 3.63277C5.8125 2.98824 6.35156 2.40231 6.97266 2.07418C7.44141 1.81637 7.52344 1.81637 15.3633 1.75777C22.957 1.69918 23.3086 1.68746 23.543 1.47652C23.9062 1.1484 23.8711 0.550743 23.4844 0.246056C23.1797 -3.8147e-05 23.0859 -3.8147e-05 15.4219 0.0116806C8.98828 0.0116806 7.57031 0.0468369 7.03125 0.187462Z" fill="#333333"/>
<path d="M25.8398 0.281239C25.4648 0.656239 25.4648 1.10155 25.8398 1.46483L26.1211 1.7578H33.8438C42.3164 1.7578 42.1641 1.74608 43.0313 2.46093C43.2656 2.66014 43.6055 3.11718 43.793 3.49218L44.1211 4.16014L44.1563 20.4726L44.1797 36.7851L44.4961 37.0195C44.8945 37.3359 45.1523 37.3242 45.5508 36.9844L45.8789 36.7031L45.9141 20.9531C45.9375 10.4766 45.9023 4.89843 45.8203 4.27733C45.5977 2.53124 44.6953 1.26561 43.1484 0.503895L42.2578 0.0585823L34.1953 0.0234261L26.1328 -0.0117302L25.8398 0.281239Z" fill="#333333"/>
<path d="M22.6406 5.2734C20.5664 5.82418 18.6328 7.38277 17.7188 9.25777C17.0625 10.582 16.8398 11.5312 16.8398 12.8906C16.8398 18.8086 23.1328 22.5937 28.3945 19.8398C29.4844 19.2656 30.9727 17.8125 31.5586 16.7578C32.2617 15.4687 32.7422 13.4296 32.5313 12.6093C32.4258 12.1757 31.8867 11.9179 31.418 12.082C30.9727 12.2343 30.8203 12.4921 30.8203 13.0898C30.8086 14.4609 30.0938 16.0781 29.0039 17.1796C26.0508 20.1679 21.082 19.3359 19.2188 15.539C18 13.0781 18.5742 10.1015 20.6016 8.30855C21.5273 7.49996 23.168 6.79683 24.1406 6.79683C24.7148 6.79683 25.2891 6.5859 25.4297 6.32808C25.6172 5.97652 25.5703 5.53121 25.3125 5.2734C25.0078 4.96871 23.8242 4.96871 22.6406 5.2734Z" fill="#333333"/>
<path d="M28.3831 5.66012C28.1839 5.87106 28.1253 6.082 28.1253 6.5859V7.23043L27.3988 7.30075C26.8011 7.35934 26.6136 7.41793 26.4027 7.67575C26.0745 8.05075 26.0628 8.32028 26.3675 8.707C26.5785 8.96481 26.7191 9.01168 27.3402 9.04684L28.0667 9.082L28.1019 9.78512C28.1253 10.3007 28.2074 10.5586 28.3831 10.7461C28.723 11.1093 29.2269 11.0976 29.5902 10.7226C29.8363 10.4882 29.8831 10.3242 29.8831 9.72653V9.0234H30.6214C31.4769 9.0234 31.7933 8.80075 31.7933 8.19137C31.7933 7.64059 31.4417 7.37106 30.598 7.30075L29.8831 7.23043V6.62106C29.8831 6.17575 29.8128 5.91793 29.637 5.69528C29.3206 5.29684 28.7347 5.2734 28.3831 5.66012Z" fill="#333333"/>
<path d="M22.734 8.90625C22.3824 9.25781 22.4176 9.87891 22.8043 10.1836C22.9801 10.3242 23.2731 10.4297 23.4488 10.4297H23.7887V12.8906V15.3516H23.4488C23.2731 15.3516 22.9801 15.457 22.8043 15.5977C22.4059 15.9141 22.3824 16.5234 22.7574 16.875C22.9918 17.0859 23.1676 17.1094 24.691 17.1094C26.3434 17.1094 26.3785 17.1094 26.6832 16.8047C27.234 16.2539 26.7887 15.3516 25.9449 15.3516H25.5465V12.2695C25.5465 9.1875 25.5465 9.17578 25.277 8.92969C25.0426 8.70703 24.8668 8.67188 23.9879 8.67188C23.1207 8.67188 22.9332 8.70703 22.734 8.90625Z" fill="#333333"/>
<path d="M9.96076 23.9297C9.11701 24.5039 9.08185 24.6211 9.0467 27.0469C9.01154 29.1445 9.02326 29.2617 9.28107 29.7656C9.43341 30.0586 9.72638 30.4102 9.94904 30.5508L10.3475 30.8203H24.6444H38.9295L39.3748 30.5742C40.2186 30.1055 40.3123 29.7539 40.3123 27.2227C40.3123 24.75 40.2303 24.4453 39.492 23.9297L39.1053 23.6719H24.7264H10.3475L9.96076 23.9297ZM38.5545 27.2461V29.0625H24.6678H10.7811V27.2461V25.4297H24.6678H38.5545V27.2461Z" fill="#333333"/>
<path d="M38.0273 31.3359C37.2539 31.6875 36.5156 32.5195 36.3281 33.2461C36.2578 33.5625 36.1641 33.8789 36.1406 33.9492C36.1055 34.0664 33.4219 34.1015 23.2266 34.1015H10.3477L9.96094 34.3594C9.10547 34.9453 9.08203 35.0156 9.08203 37.6758C9.08203 40.3359 9.10547 40.4062 9.96094 40.9805L10.3477 41.25H23.2148H36.0938V43.5351C36.0938 44.789 36.0703 45.8203 36.0469 45.8203C36.0117 45.8203 35.5898 45.3281 35.0859 44.7305C33.1055 42.375 32.7773 42.1406 31.4062 42.1289C30.375 42.1289 29.8477 42.3398 29.1445 43.043C28.4414 43.7461 28.1836 44.414 28.1836 45.5273C28.1836 46.2305 28.2539 46.5937 28.4297 46.9922C28.5703 47.2851 30.3281 49.5 32.3672 51.9258L36.0586 56.3203L36.1172 57.375C36.1875 58.6523 36.4219 59.2031 37.0664 59.625L37.5469 59.9414L43.957 59.9765C51.082 60.0117 51.375 59.9883 52.8281 59.2734C53.7773 58.8047 55.1016 57.539 55.6406 56.5898C56.3086 55.4062 56.4844 54.4219 56.4844 51.7734C56.4844 49.6055 56.4727 49.4414 56.25 49.2187C55.9336 48.9023 55.3008 48.914 55.0078 49.2305C54.8086 49.4531 54.7734 49.7344 54.7266 52.0195L54.668 54.5625L54.2227 55.4531C53.7539 56.4023 52.9688 57.2344 52.125 57.668C51.0469 58.2187 50.707 58.2422 44.2148 58.2422C37.1133 58.2422 37.8516 58.418 37.8516 56.7539V55.7226L34.0078 51.1523C31.8984 48.6328 30.1055 46.4297 30.0352 46.2539C29.8242 45.7851 29.8477 45.2578 30.1172 44.707C30.5039 43.8984 31.3359 43.6055 32.0273 44.039C32.2148 44.1445 33.293 45.3398 34.4297 46.6992C36.6797 49.3594 36.9141 49.5586 37.4766 49.1367L37.793 48.9023L37.8516 41.3555C37.8984 35.6484 37.9453 33.75 38.0508 33.5508C38.625 32.5547 40.1133 32.5664 40.5938 33.5625C40.7578 33.9023 40.7812 34.5234 40.7812 38.1914V42.4336L41.0742 42.7148C41.6484 43.3008 42.4336 42.914 42.5859 41.9648C42.8203 40.4883 44.5781 40.2539 45.3516 41.6015C45.7617 42.3047 46.1367 42.4922 46.6875 42.2578C46.9688 42.1406 47.1562 41.9531 47.2617 41.6836C47.4727 41.2031 47.9414 40.8164 48.457 40.7109C49.0547 40.6055 49.6055 40.9219 49.9688 41.6015C50.5312 42.6328 51.375 42.6328 51.9727 41.6015C52.3008 41.039 52.8164 40.664 53.25 40.664C53.6602 40.664 54.2578 41.0156 54.4922 41.3906C54.7031 41.7422 54.7266 41.9765 54.7266 44.1328C54.7266 46.3359 54.7383 46.5117 54.9727 46.8047C55.2773 47.1914 55.8984 47.2265 56.25 46.875C56.4727 46.6523 56.4844 46.4883 56.4844 44.1211C56.4844 41.8711 56.4609 41.543 56.2383 40.9687C55.8281 39.8437 54.4922 38.9062 53.3203 38.9062C52.8398 38.9062 51.9375 39.2109 51.4336 39.539L50.9883 39.8437L50.4375 39.4922C49.1367 38.6719 47.8711 38.7539 46.5117 39.75C46.3594 39.8555 46.2539 39.832 45.9844 39.6211C45.082 38.918 43.8281 38.7539 42.75 39.1992C42.5508 39.2812 42.5391 39.1055 42.5391 36.4336V33.5742L42.1992 32.8711C41.6367 31.6758 40.6875 31.0664 39.375 31.0547C38.8242 31.0547 38.4492 31.1367 38.0273 31.3359ZM36.0938 37.6758V39.4922H23.4375H10.7812V37.6758V35.8594H23.4375H36.0938V37.6758Z" fill="#333333"/>
<path d="M12.5977 37.0898C12.4336 37.2422 12.3047 37.5117 12.3047 37.6758C12.3047 38.1211 12.7969 38.5547 13.3008 38.5547C13.8047 38.5547 14.2969 38.1211 14.2969 37.6758C14.2969 37.2305 13.8047 36.7969 13.3008 36.7969C13.0078 36.7969 12.7852 36.8906 12.5977 37.0898Z" fill="#333333"/>
<path d="M16.2423 37.0429C15.4103 37.6992 16.3478 38.8828 17.4025 38.4843C17.6837 38.3672 17.9415 37.7812 17.8595 37.4414C17.7072 36.8086 16.8165 36.5859 16.2423 37.0429Z" fill="#333333"/>
<path d="M19.9456 36.8789C19.8636 36.914 19.7229 37.0898 19.6175 37.289C19.1487 38.1914 20.2971 38.9765 21.1409 38.3085C21.7854 37.7929 21.3636 36.7851 20.4964 36.8085C20.2737 36.8085 20.0276 36.8437 19.9456 36.8789Z" fill="#333333"/>
<path d="M23.3789 37.0898C23.2148 37.2422 23.0859 37.5117 23.0859 37.6758C23.0859 38.1211 23.5781 38.5547 24.082 38.5547C24.5859 38.5547 25.0781 38.1211 25.0781 37.6758C25.0781 37.2305 24.5859 36.7969 24.082 36.7969C23.7891 36.7969 23.5664 36.8906 23.3789 37.0898Z" fill="#333333"/>
<path d="M27.0236 37.0429C26.1915 37.6992 27.129 38.8828 28.1837 38.4843C28.465 38.3672 28.7228 37.7812 28.6408 37.4414C28.4884 36.8086 27.5978 36.5859 27.0236 37.0429Z" fill="#333333"/>
<path d="M11.1911 43.9336C9.81999 44.2852 9.1403 45.2344 9.04655 46.9453C8.97623 48.375 9.19889 49.1719 9.8903 49.8516C10.6989 50.6602 10.8278 50.6836 14.9411 50.6836C19.0544 50.6836 19.1833 50.6602 19.9919 49.8516C20.6833 49.1719 20.9059 48.375 20.8356 46.9453C20.7536 45.4453 20.32 44.6953 19.2184 44.1094C18.8434 43.9102 18.4684 43.8867 15.1755 43.8633C13.1833 43.8516 11.3903 43.8867 11.1911 43.9336ZM18.527 45.7617C18.9723 45.9961 19.1012 46.3477 19.1012 47.2969C19.1012 48.2812 18.8903 48.7031 18.3044 48.8555C17.7301 49.0195 12.152 49.0195 11.5778 48.8555C10.9919 48.7031 10.7809 48.2812 10.7809 47.2969C10.7809 45.5977 10.7926 45.5977 14.9176 45.5859C17.6364 45.5859 18.234 45.6211 18.527 45.7617Z" fill="#333333"/>
</g>
<defs>
<clipPath id="clip0_122_2056">
<rect width="60" height="60" fill="white"/>
</clipPath>
</defs>
</svg>
