<svg width="60" height="60" viewBox="0 0 60 60" fill="none" xmlns="http://www.w3.org/2000/svg">
<path d="M7.875 4.16016C6.05859 4.5586 4.54688 6.09376 4.16016 7.9336C4.01953 8.57813 3.98438 10.1719 3.98438 16.3594V24L3.08203 24.0469C1.71094 24.1172 0.914062 24.5977 0.316406 25.7109L0.0585938 26.1914V40.0195V53.8477L0.316406 54.3281C0.457031 54.5859 0.785156 54.9961 1.04297 55.2305C1.96875 56.0625 0.585938 56.0156 21.9258 56.0156C35.7422 56.0156 41.2031 55.9805 41.4023 55.8867C41.8594 55.6758 41.9883 55.3008 41.9297 54.4453C41.7773 52.5352 40.3008 50.8008 38.332 50.2031C37.9688 50.0977 37.1836 50.0391 35.8828 50.0391H33.9844L34.0078 47.0156L34.043 44.0039H40.0195H45.9961L46.0547 48.9844L46.1133 53.9649L46.4414 54.5274C46.8047 55.1367 47.5547 55.6992 48.2812 55.8984C48.5156 55.9688 50.5312 56.0156 52.9805 56.0156C57.8086 56.0156 58.1367 55.9688 58.957 55.2305C59.2148 54.9961 59.543 54.5859 59.6836 54.3281L59.9414 53.8477V43.0078C59.9414 32.6602 59.9297 32.1445 59.7188 31.7578C59.1328 30.6445 58.2539 30.1055 56.9297 30.0234L56.0156 29.9649V19.3477C56.0156 10.5352 55.9805 8.58985 55.8398 7.9336C55.4414 6.0586 53.9414 4.5586 52.0664 4.16016C50.9062 3.91407 9.01172 3.91407 7.875 4.16016ZM52.1602 6.22266C52.793 6.51563 53.3906 7.08985 53.6953 7.71095L53.9648 8.26173L54 19.125L54.0234 30H51.293C49.1484 30 48.4453 30.0352 48.0352 30.1758C46.7812 30.6094 46.0547 31.6875 46.0547 33.1289V33.9844H35.0391H24.0234V30.4336C24.0234 27.7149 23.9883 26.7422 23.8594 26.25L23.6836 25.6055L28.7812 20.5078C33.4102 15.8672 33.8672 15.375 33.8672 15.0234C33.8672 14.4844 33.4219 14.0625 32.8477 14.0625C32.4258 14.0625 32.2266 14.25 27.3047 19.1602C22.3125 24.1406 22.1836 24.2695 21.8672 24.1406C21.6562 24.0703 18.9023 24.0234 13.7578 24.0234H5.97656V16.4297C5.97656 11.6836 6.02344 8.64845 6.10547 8.32032C6.33984 7.27735 7.16016 6.41016 8.17969 6.14063C8.61328 6.02345 13.1953 6.00001 30.2344 6.01173C49.8047 6.03516 51.7734 6.04688 52.1602 6.22266ZM21.6445 26.2969L21.9727 26.5781V38.2852V49.9805L11.9883 50.0156L1.99219 50.0391V38.3672V26.6953L2.33203 26.3555L2.67188 26.0156H12H21.3164L21.6445 26.2969ZM57.668 32.332L58.0078 32.6719V41.3555V50.0391H53.0273H48.0469V41.332C48.0469 32.1445 48.0352 32.4258 48.5742 32.1328C48.7266 32.0391 50.2148 32.0039 53.0625 31.9922H57.3281L57.668 32.332ZM46.0312 38.9883L46.0547 41.9531H35.0391H24.0234V38.9649V35.9766L35.0156 36L45.9961 36.0352L46.0312 38.9883ZM25.9922 47.0156L26.0156 50.0391H25.0195H24.0234V46.9922V43.9336L24.9961 43.9688L25.957 44.0039L25.9922 47.0156ZM31.9922 46.9922V50.0391H30H28.0078V46.9922V43.9453H30H31.9922V46.9922ZM22.0312 52.5C22.0312 53.1797 21.7734 53.7188 21.375 53.8828C21.1172 53.9883 18.7383 54.0234 11.8125 54L2.58984 53.9649L2.32031 53.707C2.13281 53.5078 2.05078 53.2617 2.01562 52.7344L1.96875 52.0313H12H22.0312V52.5ZM38.2031 52.2774C38.8477 52.5703 39.3281 53.0039 39.6211 53.5899L39.8438 54.0234H31.8281H23.8125L23.918 53.5781C23.9766 53.3438 24.0234 52.8984 24.0234 52.582V52.0313H30.8555C37.4648 52.0313 37.6875 52.043 38.2031 52.2774ZM57.9844 52.7344C57.9492 53.2617 57.8672 53.5078 57.6797 53.707C57.4219 53.9649 57.3633 53.9649 53.3438 54C51.1055 54.0234 49.1016 54 48.8906 53.9649C48.2812 53.8477 48.0469 53.5078 48.0469 52.7109V52.0313H53.0391H58.0312L57.9844 52.7344Z" fill="#333333"/>
<path d="M27.5742 8.14453C26.9765 8.40234 26.8593 9.1875 27.3398 9.69141C27.5742 9.94922 27.6445 9.96094 29.9999 9.96094C32.3554 9.96094 32.4257 9.94922 32.6601 9.69141C33.1523 9.17578 33.0234 8.39062 32.4023 8.13281C31.8398 7.89844 28.1132 7.91016 27.5742 8.14453Z" fill="#333333"/>
<path d="M33.3164 19.2539C28.3125 24.2578 28.125 24.457 28.125 24.8789C28.125 25.4414 28.5703 25.8984 29.1094 25.8984C29.4258 25.8984 30.0586 25.3008 34.7109 20.6484C39.5039 15.8672 39.9609 15.375 39.9609 15.0234C39.9609 14.4844 39.5156 14.0625 38.9414 14.0625C38.5195 14.0625 38.3203 14.25 33.3164 19.2539Z" fill="#333333"/>
<path d="M10.7231 36.082C10.1137 36.4688 6.11758 40.582 6.03555 40.9102C5.9418 41.2734 6.21133 41.8828 6.5043 42C6.60977 42.0352 6.86758 42.0703 7.0668 42.0703C7.38321 42.0703 7.72305 41.7773 9.6918 39.8203L11.9535 37.5703V36.8438C11.9535 36.1992 11.9301 36.1172 11.6606 36C11.2504 35.8125 11.1332 35.8242 10.7231 36.082Z" fill="#333333"/>
<path d="M16.8162 36.0234C16.3475 36.2344 12.2342 40.3945 12.0819 40.8047C11.8358 41.4492 12.2928 42.0586 13.0076 42.0703C13.3944 42.0703 13.5936 41.8945 15.785 39.6914C17.0858 38.3906 18.1639 37.2188 18.1756 37.0898C18.2459 36.5977 18.0467 36.1992 17.6365 36.0234C17.1678 35.8359 17.2498 35.8242 16.8162 36.0234Z" fill="#333333"/>
<path d="M54.1992 38.6484C54.0703 38.6719 53.2148 39.4336 52.3008 40.3477C50.7656 41.8711 50.625 42.0469 50.625 42.4336C50.625 42.9961 51.0117 43.3594 51.6211 43.3594C52.043 43.3594 52.1719 43.2539 53.5898 41.8594C54.4219 41.0391 55.1836 40.1953 55.2656 39.9844C55.582 39.2578 54.9727 38.4961 54.1992 38.6484Z" fill="#333333"/>
<path d="M29.6605 38.0977C28.6878 38.4844 28.9808 39.9609 30.0355 39.9609C30.4339 39.9609 30.8207 39.6563 30.973 39.2344C31.1019 38.8594 30.8089 38.3086 30.3988 38.1328C30.1878 38.0391 29.9886 37.9688 29.9769 37.9805C29.9535 37.9805 29.8128 38.0391 29.6605 38.0977Z" fill="#333333"/>
</svg>
