<?xml version="1.0" encoding="utf-8"?>
<!-- Generator: Adobe Illustrator 16.2.0, SVG Export Plug-In . SVG Version: 6.00 Build 0)  -->
<!DOCTYPE svg PUBLIC "-//W3C//DTD SVG 1.1//EN" "http://www.w3.org/Graphics/SVG/1.1/DTD/svg11.dtd">
<svg version="1.1"
	 id="svg2" xmlns:dc="http://purl.org/dc/elements/1.1/" xmlns:cc="http://creativecommons.org/ns#" xmlns:rdf="http://www.w3.org/1999/02/22-rdf-syntax-ns#" xmlns:svg="http://www.w3.org/2000/svg" xmlns:sodipodi="http://sodipodi.sourceforge.net/DTD/sodipodi-0.dtd" xmlns:inkscape="http://www.inkscape.org/namespaces/inkscape" inkscape:version="0.91 r13725" sodipodi:docname="drawing-2.svg"
	 xmlns="http://www.w3.org/2000/svg" xmlns:xlink="http://www.w3.org/1999/xlink" x="0px" y="0px" width="480px" height="564px"
	 viewBox="0 0 480 564" enable-background="new 0 0 480 564" xml:space="preserve">
<g id="layer1" inkscape:label="Layer 1" inkscape:groupmode="layer">
	<path id="path3393" inkscape:connector-curvature="0" fill="#E6FBD4" d="M104.756,204.623c-0.672-1.256-0.514-1.915,0.771-3.2
		c1.991-1.991,2.146-4.818,0.267-4.818c-1.229,0-1.223-0.096,0.081-1.048c0.901-0.66,1.598-2.516,1.875-5
		c0.285-2.56,0.961-4.32,1.919-4.997c0.813-0.575,1.479-1.767,1.479-2.649c0-1.433-0.36-1.549-3.399-1.094l-3.4,0.509l-0.006-9.061
		c-0.007-8.525-0.137-9.261-2.21-12.46c-1.271-1.961-2.824-3.4-3.67-3.4c-0.806,0-2.117-0.72-2.914-1.6
		c-1.405-1.553-1.396-1.6,0.276-1.6c1.302,0,1.724-0.486,1.724-1.981c0-2.452-2.448-4.154-7.027-4.885
		c-4.784-0.764-6.46-2.367-10.491-10.038c-4.296-8.174-4.686-8.64-11.681-13.963c-3.08-2.343-8.479-6.99-12-10.326l-6.399-6.064
		l1.979-1.372c1.088-0.754,3.429-2.528,5.199-3.942c1.771-1.414,5.741-4.087,8.821-5.94c7.396-4.449,9.848-6.793,10.946-10.465
		c0.501-1.673,1.448-3.488,2.104-4.033c0.764-0.634,4.819-1.091,11.271-1.271c5.543-0.154,10.496-0.622,11.007-1.039
		c0.599-0.488,1.127-0.437,1.487,0.146c0.307,0.497,1.688,1.593,3.071,2.436L108.346,83l-3.041,0.003
		c-2.718,0.002-3.165,0.3-4.211,2.803c-0.644,1.54-1.525,2.8-1.959,2.8c-0.435,0-0.789,1.638-0.789,3.641
		c0,3.354,0.204,3.725,2.601,4.713c2.132,0.879,11.606,3.084,21.247,4.944l1.85,0.355l-1.648,2.667
		c-1.987,3.216-2.132,7.417-0.322,9.417c1.235,1.366,1.224,1.653-0.182,4.26c-1.445,2.687-1.454,3.102-0.185,10.599
		c1.399,8.275,1.167,11.347-1.354,17.803c-0.771,1.98-1.583,5.212-1.802,7.182c-0.218,1.97-1.253,4.844-2.301,6.386
		c-2.163,3.184-2.289,4.581-0.956,10.571c1.277,5.741,4.751,10.646,9.694,13.687c3.846,2.367,3.974,2.547,2.124,3.008
		c-1.082,0.27-2.933,0.166-4.11-0.23c-1.18-0.396-3.159-0.604-4.4-0.462c-2.047,0.235-2.256,0.55-2.256,3.388
		c0,2.309-0.577,3.747-2.197,5.481c-1.208,1.293-1.996,2.675-1.753,3.07c0.244,0.396,0.073,0.719-0.379,0.719
		c-0.453,0-1.645,1.438-2.646,3.194C107.348,206.538,106.029,207.002,104.756,204.623L104.756,204.623z"/>
	<g>
		<path d="M92.865,125.621c0,0.556-0.229,0.976-0.686,1.262c-0.371,0.231-0.826,0.346-1.365,0.346c-1.414,0-2.121-0.706-2.121-2.118
			c0-0.462,0.111-0.867,0.334-1.215c0.258-0.399,0.605-0.599,1.043-0.599c0.539,0,1.127,0.237,1.764,0.71
			C92.522,124.52,92.865,125.058,92.865,125.621z M92.022,125.586c0-0.278-0.26-0.589-0.779-0.934
			c-0.48-0.321-0.848-0.482-1.102-0.482c-0.199,0-0.355,0.12-0.469,0.358c-0.09,0.192-0.135,0.399-0.135,0.623
			c0,0.345,0.123,0.609,0.369,0.793c0.219,0.165,0.506,0.247,0.861,0.247C91.604,126.192,92.022,125.99,92.022,125.586z"/>
		<path d="M98.262,125.823c0,1.402-1.447,2.801-4.342,4.195l-0.457-0.785c0.664-0.305,1.311-0.662,1.939-1.072
			c0.953-0.621,1.582-1.213,1.887-1.775h-0.703c-0.516,0-0.914-0.142-1.195-0.425s-0.422-0.683-0.422-1.198
			c0-0.375,0.139-0.695,0.416-0.961s0.604-0.398,0.979-0.398c0.434,0,0.832,0.174,1.195,0.521
			C98.028,124.37,98.262,125.002,98.262,125.823z M97.348,125.366c-0.012-0.297-0.141-0.555-0.387-0.773
			c-0.211-0.188-0.408-0.281-0.592-0.281c-0.148,0-0.287,0.047-0.416,0.141c-0.141,0.102-0.211,0.225-0.211,0.369
			c0,0.363,0.225,0.545,0.674,0.545H97.348z"/>
		<path d="M101.789,127.229h-0.82c-1.176,0-1.764-0.708-1.764-2.123v-4.674h0.984v4.593c0,0.391,0.057,0.672,0.17,0.844
			c0.141,0.215,0.395,0.323,0.762,0.323h0.668V127.229z"/>
		<path d="M104.948,127.229h-0.311c-0.609,0-1.045-0.225-1.307-0.674c-0.27,0.449-0.674,0.674-1.213,0.674h-0.645v-1.043h0.41
			c0.363,0,0.594-0.076,0.691-0.229c0.066-0.105,0.1-0.344,0.1-0.715V124h0.902v0.963c0,0.501,0.092,0.838,0.275,1.011
			c0.152,0.141,0.432,0.211,0.838,0.211h0.258V127.229z M103.606,122.975h-0.932v-0.926h0.932V122.975z"/>
		<path d="M109.54,121.208l-3.433,0.81c-0.258,0.063-0.387,0.162-0.387,0.298c0,0.098,0.059,0.255,0.175,0.474l1.029,1.981
			c0.205,0.4,0.308,0.731,0.308,0.993c0,0.976-0.592,1.463-1.775,1.463h-0.826v-1.037h0.873c0.547,0,0.82-0.157,0.82-0.47
			c0-0.172-0.076-0.405-0.229-0.698l-1.031-1.99c-0.102-0.195-0.152-0.393-0.152-0.592c0-0.57,0.299-0.928,0.896-1.072l3.398-0.826
			L109.54,121.208z M109.093,120.285l-4.006,0.959l-0.233-0.414l4.037-0.967L109.093,120.285z"/>
	</g>
	<path id="path3389" inkscape:connector-curvature="0" fill="#C6F2FB" d="M138.345,269.45c-1.71-0.906-4.37-3.771-6.835-7.365
		c-5.938-8.655-6.219-9.539-4.557-14.349c0.766-2.215,1.752-4.096,2.191-4.18s1.989,2.099,3.443,4.849c2.307,4.361,2.938,5,4.946,5
		c3.067,0,4.99-2.877,6.684-10c1.834-7.721,1.689-11.738-0.587-16.228c-2.456-4.844-4.566-6.708-8.271-7.311
		c-2.044-0.332-3.275-1.081-3.926-2.382c-1.435-2.878-2.541-3.256-9.583-3.269c-5.344-0.01-6.864-0.305-8.6-1.67
		c-1.159-0.912-2.102-2.262-2.091-3c0.021-1.768,6.149-11.303,7.63-11.871c0.729-0.28,1.152-1.583,1.152-3.557
		c0-3.291,0.758-3.895,2.399-1.915c1.039,1.252,5.601,1.69,5.601,0.539c0-0.364,1.037-0.509,2.306-0.323s2.55-0.056,2.848-0.539
		c0.874-1.415,3.067-1.019,6.22,1.123c3.422,2.326,4.775,2.464,7.385,0.756c1.799-1.179,2.284-1.051,9.197,2.421
		c8.414,4.226,9.638,5.829,8.173,10.713c-1.274,4.259-1.16,7.736,0.353,10.661l1.278,2.473l6.722-0.517l6.722-0.517v4.044
		c0,3.953,1.731,8.765,3.155,8.765c1.607,0,4.044,5.48,4.044,9.094v3.706l-7.8,0.126c-4.29,0.069-8.34,0.022-9-0.104
		s-3.763-0.39-6.896-0.585c-5.44-0.339-5.713-0.272-6.101,1.503c-2.575,11.799-3.096,15.057-2.839,17.748
		c0.273,2.883,0.037,3.336-2.854,5.43C147.1,271.442,142.601,271.706,138.345,269.45z M44.163,200.501
		c-0.67-0.67-0.664-1.284,0.021-2.383c0.694-1.112,0.697-2.08,0.013-3.897c-0.503-1.33-0.817-2.417-0.701-2.417
		c0.115,0,1.366,0.403,2.778,0.895c1.742,0.607,2.425,1.272,2.12,2.065c-0.247,0.644-0.449,2.401-0.449,3.905
		c0,2.1-0.334,2.735-1.439,2.735C45.714,201.404,44.66,200.998,44.163,200.501L44.163,200.501z M49.546,183.856
		c0-1.589,1.601-4.852,2.381-4.852c1.136,0,1.03,3.469-0.141,4.64C50.639,184.791,49.546,184.894,49.546,183.856z"/>
	<g>
		<path d="M154.379,230.229h-0.527c-0.527,0-0.959-0.201-1.295-0.604c-0.039,0.238-0.156,0.502-0.352,0.791
			c-0.617,0.918-1.961,1.916-4.031,2.994l-0.439-0.82c1.922-1.019,3.17-1.947,3.744-2.782c0.172-0.25,0.258-0.482,0.258-0.697
			c0-0.211-0.067-0.436-0.201-0.674l-0.595-1.074l0.802-0.503l0.686,1.313c0.352,0.68,0.844,1.02,1.477,1.02h0.475V230.229z"/>
		<path d="M158.99,230.229h-0.299c-0.344,0-0.67,0.066-0.979,0.199c-0.398,0.171-0.598,0.407-0.598,0.708
			c0,0.3,0.428,0.596,1.283,0.889l-0.234,0.789c-0.789-0.262-1.375-0.537-1.758-0.826c-0.637-0.48-1.047-1.152-1.23-2.016
			c-0.125,0.172-0.352,0.258-0.68,0.258h-0.434v-1.037h0.434c0.254,0,0.422-0.096,0.504-0.288c0.051-0.117,0.076-0.325,0.076-0.623
			v-1.257h0.896v2.021c0,0.91,0.178,1.502,0.533,1.775c0.023-0.385,0.219-0.741,0.586-1.068c0.422-0.374,0.947-0.561,1.576-0.561
			h0.322V230.229z"/>
		<path d="M165.617,228.823c0,0.449-0.147,0.815-0.442,1.099s-0.667,0.425-1.116,0.425c-0.648,0-1.107-0.244-1.377-0.732
			c-0.32,0.445-0.664,0.668-1.031,0.668c-0.57,0-0.979-0.242-1.225-0.727c-0.156,0.276-0.361,0.463-0.615,0.562
			c-0.191,0.075-0.465,0.112-0.82,0.112h-0.311v-1.037h0.422c0.297,0,0.504-0.068,0.621-0.206c0.105-0.125,0.158-0.341,0.158-0.646
			v-1.251h0.82v0.504c0.012,1.113,0.336,1.67,0.973,1.67c0.195,0,0.324-0.107,0.387-0.322c0.039-0.137,0.059-0.422,0.059-0.855
			v-0.996h0.826v0.762c0,0.391,0.086,0.723,0.258,0.996c0.207,0.32,0.494,0.48,0.861,0.48c0.418,0,0.627-0.174,0.627-0.521
			c0-0.223-0.207-0.684-0.621-1.383l0.732-0.51C165.346,227.87,165.617,228.506,165.617,228.823z M162.336,225.981h-0.926v-0.926
			h0.926V225.981z M162.975,224.792h-0.926v-0.926h0.926V224.792z M163.608,225.981h-0.932v-0.926h0.932V225.981z"/>
		<path d="M172.315,230.229h-1.395c-0.332,1.186-1.75,2.393-4.254,3.621l-0.457-0.783c2.055-0.969,3.328-1.916,3.82-2.838h-0.697
			c-0.516,0-0.914-0.141-1.195-0.423c-0.281-0.283-0.422-0.683-0.422-1.2c0-0.376,0.138-0.698,0.413-0.965s0.603-0.4,0.981-0.4
			s0.74,0.141,1.084,0.423c0.434,0.356,0.693,0.866,0.779,1.528h1.342V230.229z M170.094,229.215
			c-0.012-0.308-0.141-0.571-0.387-0.788c-0.207-0.186-0.404-0.278-0.592-0.278c-0.152,0-0.291,0.045-0.416,0.136
			c-0.141,0.099-0.211,0.221-0.211,0.367c0,0.375,0.225,0.563,0.674,0.563H170.094z"/>
		<path d="M174.5,228.755c0,0.372-0.113,0.695-0.34,0.969c-0.281,0.336-0.684,0.505-1.207,0.505h-0.949v-1.037h0.932
			c0.438,0,0.656-0.161,0.656-0.482c0-0.133-0.049-0.284-0.145-0.453l-0.537-0.957l0.758-0.534c0.305,0.551,0.492,0.902,0.563,1.055
			C174.41,228.208,174.5,228.52,174.5,228.755z M173.756,232.186h-0.926v-0.92h0.926V232.186z"/>
	</g>
	<path id="path3385" inkscape:connector-curvature="0" fill="#FCE4CA" d="M189.471,362.334
		c-6.453-6.522-10.757-14.092-11.409-20.064c-0.326-2.995-1.063-4.973-2.381-6.4c-5.345-5.787-7.188-13.188-7.001-28.086
		l0.146-11.619l-3.66-9.107c-2.014-5.008-4.218-11.66-4.901-14.78c-0.683-3.12-1.741-6.782-2.354-8.137
		c-0.773-1.714-0.906-3.298-0.436-5.2c0.372-1.505,1.105-4.807,1.63-7.336c0.93-4.48,1.022-4.6,3.599-4.6
		c1.455,0,3.124,0.578,3.71,1.283c0.836,1.008,1.758,1.146,4.298,0.651c1.778-0.347,6.653-0.655,10.833-0.683l7.601-0.053
		l0.229-6.904c0.195-5.873-0.025-7.336-1.479-9.8c-0.938-1.593-2.022-2.896-2.408-2.896c-1.225,0-3.143-4.615-3.143-7.56
		c0-2.301,0.302-2.84,1.592-2.84c0.875,0,4.237-0.726,7.473-1.613l5.881-1.614l3.929,3.824c2.16,2.104,5.146,4.719,6.634,5.813
		c1.489,1.094,3.381,2.574,4.205,3.288c1.906,1.651,6.683,11.941,7.95,17.132c0.534,2.183,3.234,8.65,6.001,14.37
		s5.469,11.921,6.004,13.778c0.854,2.962,1.752,3.891,7.301,7.531c6.225,4.086,8.631,6.961,8.631,10.304
		c0,0.931,0.391,2.419,0.865,3.308c1.17,2.184,0.377,2.75-1.84,1.314c-1.004-0.648-5.965-2.736-11.025-4.637
		c-10.405-3.909-13.358-5.578-18.199-10.289c-3.555-3.459-5.889-4.073-8.621-2.269c-0.868,0.573-4.278,2.081-7.578,3.351
		c-3.3,1.271-6.359,2.562-6.8,2.869c-0.79,0.554-6.787,1.863-12.578,2.748c-2.694,0.412-3.065,0.775-3.898,3.823
		c-1.769,6.468,0.157,29.472,2.908,34.747c0.637,1.221,1.161,2.625,1.163,3.119c0.018,3.2,10.965,24.876,14.5,28.711l3.24,3.516
		l-2.603,3.237c-1.431,1.78-2.631,3.207-2.667,3.169C194.775,367.698,192.373,365.268,189.471,362.334z"/>
	<g>
		<path d="M185.827,264.969c0,0.789-0.236,1.49-0.709,2.104c-0.629,0.82-1.564,1.23-2.807,1.23c-0.879,0-1.6-0.27-2.162-0.809
			c-0.574-0.551-0.861-1.264-0.861-2.139c0-0.438,0.098-0.955,0.293-1.553l0.809,0.211c-0.145,0.438-0.217,0.854-0.217,1.248
			c0,0.602,0.223,1.092,0.668,1.471c0.426,0.363,0.943,0.545,1.553,0.545c0.758,0,1.371-0.201,1.84-0.604
			c0.496-0.43,0.744-1.018,0.744-1.764c0-0.484-0.213-1.092-0.639-1.822l0.768-0.527
			C185.587,263.346,185.827,264.149,185.827,264.969z M182.675,263.862h-0.932v-0.926h0.932V263.862z"/>
		<path d="M189.343,266.229h-0.82c-1.176,0-1.764-0.708-1.764-2.123v-4.674h0.984v4.593c0,0.391,0.057,0.672,0.17,0.844
			c0.141,0.215,0.395,0.323,0.762,0.323h0.668V266.229z"/>
		<path d="M192.501,266.229h-0.311c-0.609,0-1.045-0.225-1.307-0.674c-0.27,0.449-0.674,0.674-1.213,0.674h-0.645v-1.043h0.41
			c0.363,0,0.594-0.076,0.691-0.229c0.066-0.105,0.1-0.344,0.1-0.715V263h0.902v0.963c0,0.501,0.092,0.838,0.275,1.011
			c0.152,0.141,0.432,0.211,0.838,0.211h0.258V266.229z M190.538,262.233h-0.932v-0.926h0.932V262.233z M191.804,262.233h-0.932
			v-0.926h0.932V262.233z"/>
		<path d="M200.089,266.229h-0.328c-0.25,0-0.494-0.061-0.732-0.183c-0.258-0.13-0.439-0.299-0.545-0.508
			c-0.277,0.492-0.654,0.738-1.131,0.738c-0.512,0-0.889-0.246-1.131-0.738c-0.281,0.492-0.637,0.738-1.066,0.738
			c-0.555,0-0.959-0.246-1.213-0.738c-0.227,0.461-0.598,0.691-1.113,0.691h-0.65v-1.037h0.592c0.41,0,0.615-0.187,0.615-0.56
			v-1.591h0.85v0.454c0,1.167,0.303,1.75,0.908,1.75c0.293,0,0.439-0.204,0.439-0.613v-1.59h0.844v0.454
			c0,1.167,0.32,1.75,0.961,1.75c0.316,0,0.475-0.204,0.475-0.611v-1.592h0.844v0.981c0,0.78,0.303,1.169,0.908,1.169h0.475V266.229
			z"/>
		<path d="M204.682,260.208l-3.433,0.81c-0.262,0.063-0.393,0.163-0.393,0.299c0,0.094,0.059,0.252,0.176,0.476l1.042,1.969
			c0.32,0.608,0.652,1.014,0.996,1.217c0.239,0.141,0.552,0.212,0.938,0.212h0.281v1.037h-0.422c-0.289,0-0.591-0.08-0.905-0.239
			c-0.314-0.16-0.552-0.357-0.712-0.593c-0.25,0.555-0.801,0.832-1.652,0.832h-0.826v-1.037h0.873c0.547,0,0.82-0.157,0.82-0.47
			c0-0.172-0.076-0.405-0.229-0.698l-1.031-1.99c-0.102-0.195-0.152-0.393-0.152-0.592c0-0.57,0.299-0.928,0.896-1.072l3.398-0.826
			L204.682,260.208z M204.235,259.285l-4.006,0.959l-0.233-0.414l4.037-0.967L204.235,259.285z"/>
		<path d="M207.443,266.229h-0.311c-0.609,0-1.045-0.225-1.307-0.674c-0.27,0.449-0.674,0.674-1.213,0.674h-0.645v-1.043h0.41
			c0.363,0,0.594-0.076,0.691-0.229c0.066-0.105,0.1-0.344,0.1-0.715V263h0.902v0.963c0,0.501,0.092,0.838,0.275,1.011
			c0.152,0.141,0.432,0.211,0.838,0.211h0.258V266.229z M206.101,261.975h-0.932v-0.926h0.932V261.975z"/>
		<path d="M209.622,264.755c0,0.372-0.113,0.695-0.34,0.969c-0.281,0.336-0.684,0.505-1.207,0.505h-0.949v-1.037h0.932
			c0.438,0,0.656-0.161,0.656-0.482c0-0.133-0.049-0.284-0.145-0.453l-0.537-0.957l0.758-0.534c0.305,0.551,0.492,0.902,0.563,1.055
			C209.532,264.208,209.622,264.52,209.622,264.755z M208.368,262.01h-0.932v-0.92h0.932V262.01z M209.622,262.01h-0.908v-0.92
			h0.908V262.01z"/>
	</g>
	<path id="path3379" inkscape:connector-curvature="0" fill="#FAF7B1" d="M255.145,298.247c0-0.396-0.9-1.791-2.004-3.102
		c-1.102-1.311-2.211-3.587-2.467-5.061c-0.926-5.35-2.08-7.033-7.021-10.228c-7.383-4.776-8.27-5.708-9.588-10.053
		c-0.667-2.2-3.249-7.96-5.735-12.8c-2.488-4.84-5.008-10.78-5.601-13.201c-0.592-2.42-2.141-6.92-3.441-10
		c-1.965-4.647-3.232-6.328-7.454-9.877c-9.043-7.604-11.087-9.711-11.087-11.426c0-1.381-0.324-1.582-1.8-1.116
		c-7.784,2.454-19.646,5.112-24.765,5.551l-6.164,0.528l-1.291-2.497c-1.021-1.977-1.112-3.008-0.437-4.95
		c1.083-3.106,1.104-9.053,0.04-11.042c-1.109-2.073-14.8-8.774-17.895-8.759c-1.37,0.006-3.021,0.347-3.668,0.756
		c-0.799,0.505-1.953,0.276-3.6-0.715c-1.333-0.803-3.765-1.697-5.401-1.988s-3.481-1.251-4.101-2.134
		c-0.619-0.883-2.733-2.625-4.7-3.873c-4.37-2.771-6.606-5.801-8.637-11.702c-1.396-4.059-1.435-4.73-0.373-6.78
		c0.646-1.251,1.539-2.5,1.981-2.773c0.443-0.274,0.807-1.783,0.807-3.354c0-1.571,0.898-5.349,1.998-8.395
		c2.779-7.709,3.189-12.636,1.698-20.441c-1.222-6.391-1.21-6.67,0.386-9.373c1.732-2.938,1.542-5.285-0.636-7.768
		c-1.022-1.167-0.987-1.637,0.295-3.9c0.803-1.416,1.895-3.358,2.428-4.318c0.881-1.583,2.021-1.835,12.399-2.734
		c14.488-1.255,21.555-0.227,29.432,4.286c6.952,3.983,12.552,5.889,21.199,7.217c6.579,1.011,7.425,1.349,9.801,3.93
		c1.43,1.553,2.6,3.515,2.6,4.359c0,0.844-1.26,3.044-2.8,4.888c-3.146,3.766-3.371,5.472-1.608,12.237
		c2.943,11.302,9.351,18.975,14.913,17.861c1.479-0.295,2.985-0.122,3.636,0.418c0.844,0.699,1.864,0.674,4.224-0.104
		c2.837-0.937,3.304-0.876,5.282,0.68c1.193,0.939,2.752,1.719,3.463,1.733s1.99,0.554,2.845,1.2
		c0.854,0.646,2.407,1.174,3.451,1.174c1.06,0,2.769,0.972,3.868,2.2c9.797,10.935,11.618,13.88,13.459,21.778
		c1.063,4.546,7.6,16.022,9.127,16.022c0.346,0,2.533,2.509,4.865,5.575c2.33,3.066,6.9,7.958,10.156,10.872
		c6.525,5.841,7.02,7.214,3.918,10.899c-1.1,1.307-2,3.016-2,3.797c0,0.781,3.961,5.391,8.801,10.243
		c8.48,8.504,8.801,8.949,8.801,12.281c0,2.725,0.492,3.975,2.324,5.895c4.438,4.651,8.254,13.053,8.924,19.639
		c0.338,3.3,1.004,7.77,1.482,9.933c0.477,2.163,0.689,4.113,0.469,4.334c-1.133,1.132-21.84,3.333-35.199,3.743
		c-8.359,0.256-16.189,0.62-17.4,0.809C256.135,298.81,255.145,298.641,255.145,298.247L255.145,298.247z"/>
	<g>
		<path d="M210.088,198.204c0,0.789-0.236,1.49-0.709,2.104c-0.629,0.82-1.564,1.23-2.807,1.23c-0.879,0-1.6-0.27-2.162-0.809
			c-0.574-0.551-0.861-1.264-0.861-2.139c0-0.438,0.098-0.955,0.293-1.553l0.809,0.211c-0.145,0.438-0.217,0.854-0.217,1.248
			c0,0.602,0.223,1.092,0.668,1.471c0.426,0.363,0.943,0.545,1.553,0.545c0.758,0,1.371-0.201,1.84-0.604
			c0.496-0.43,0.744-1.018,0.744-1.764c0-0.484-0.213-1.092-0.639-1.822l0.768-0.527
			C209.848,196.581,210.088,197.384,210.088,198.204z M206.936,197.097h-0.932v-0.926h0.932V197.097z"/>
		<path d="M213.604,199.464h-0.82c-1.176,0-1.764-0.708-1.764-2.123v-4.674h0.984v4.593c0,0.391,0.057,0.672,0.17,0.844
			c0.141,0.215,0.395,0.323,0.762,0.323h0.668V199.464z"/>
		<path d="M216.762,199.464h-0.311c-0.609,0-1.045-0.225-1.307-0.674c-0.27,0.449-0.674,0.674-1.213,0.674h-0.645v-1.043h0.41
			c0.363,0,0.594-0.076,0.691-0.229c0.066-0.105,0.1-0.344,0.1-0.715v-1.242h0.902v0.963c0,0.501,0.092,0.838,0.275,1.011
			c0.152,0.141,0.432,0.211,0.838,0.211h0.258V199.464z M214.799,195.468h-0.932v-0.926h0.932V195.468z M216.065,195.468h-0.932
			v-0.926h0.932V195.468z"/>
		<path d="M224.35,199.464h-0.328c-0.25,0-0.494-0.061-0.732-0.183c-0.258-0.13-0.439-0.299-0.545-0.508
			c-0.277,0.492-0.654,0.738-1.131,0.738c-0.512,0-0.889-0.246-1.131-0.738c-0.281,0.492-0.637,0.738-1.066,0.738
			c-0.555,0-0.959-0.246-1.213-0.738c-0.227,0.461-0.598,0.691-1.113,0.691h-0.65v-1.037h0.592c0.41,0,0.615-0.187,0.615-0.56
			v-1.591h0.85v0.454c0,1.167,0.303,1.75,0.908,1.75c0.293,0,0.439-0.204,0.439-0.613v-1.59h0.844v0.454
			c0,1.167,0.32,1.75,0.961,1.75c0.316,0,0.475-0.204,0.475-0.611v-1.592h0.844v0.981c0,0.78,0.303,1.169,0.908,1.169h0.475V199.464
			z"/>
		<path d="M227.508,199.464h-0.311c-0.609,0-1.045-0.225-1.307-0.674c-0.27,0.449-0.674,0.674-1.213,0.674h-0.645v-1.043h0.41
			c0.363,0,0.594-0.076,0.691-0.229c0.066-0.105,0.1-0.344,0.1-0.715v-1.242h0.902v0.963c0,0.501,0.092,0.838,0.275,1.011
			c0.152,0.141,0.432,0.211,0.838,0.211h0.258V199.464z M225.545,195.468h-0.932v-0.926h0.932V195.468z M226.811,195.468h-0.932
			v-0.926h0.932V195.468z"/>
		<path d="M234.135,198.058c0,0.449-0.147,0.815-0.442,1.099s-0.667,0.425-1.116,0.425c-0.648,0-1.107-0.244-1.377-0.732
			c-0.32,0.445-0.664,0.668-1.031,0.668c-0.57,0-0.979-0.242-1.225-0.727c-0.156,0.276-0.361,0.463-0.615,0.562
			c-0.191,0.075-0.465,0.112-0.82,0.112h-0.311v-1.037h0.422c0.297,0,0.504-0.068,0.621-0.206c0.105-0.125,0.158-0.341,0.158-0.646
			v-1.251h0.82v0.504c0.012,1.113,0.336,1.67,0.973,1.67c0.195,0,0.324-0.107,0.387-0.322c0.039-0.137,0.059-0.422,0.059-0.855
			v-0.996h0.826v0.762c0,0.391,0.086,0.723,0.258,0.996c0.207,0.32,0.494,0.48,0.861,0.48c0.418,0,0.627-0.174,0.627-0.521
			c0-0.223-0.207-0.684-0.621-1.383l0.732-0.51C233.864,197.104,234.135,197.741,234.135,198.058z M230.854,195.216h-0.926v-0.926
			h0.926V195.216z M231.492,194.026h-0.926v-0.926h0.926V194.026z M232.125,195.216h-0.932v-0.926h0.932V195.216z"/>
		<path d="M239.989,198.031c0,0.49-0.172,0.857-0.516,1.104c-0.301,0.22-0.705,0.329-1.213,0.329h-1.523
			c-0.746,0-1.318-0.313-1.717-0.941l0.627-0.629c0.191,0.241,0.352,0.393,0.48,0.456c0.105,0.052,0.277,0.077,0.516,0.077h1.676
			c0.488,0,0.732-0.131,0.732-0.394c0-0.114-0.114-0.302-0.344-0.564l-1.979-2.299l0.688-0.658l1.963,2.326
			C239.785,197.32,239.989,197.718,239.989,198.031z"/>
	</g>
	<path id="path3377" inkscape:connector-curvature="0" fill="#FBBBE0" d="M266.744,448.555c-3.52-1.271-8.043-2.322-10.051-2.334
		c-3.025-0.016-4.051-0.439-6-2.488c-3.434-3.613-6.383-4.896-10.542-4.594c-2.826,0.205-3.773-0.043-4.313-1.137
		c-0.381-0.77-0.999-2.029-1.374-2.799c-0.375-0.771-1.365-1.504-2.202-1.631c-0.836-0.125-2.133-1.295-2.881-2.6
		c-1.735-3.023-5.966-3.443-6.379-0.633c-0.637,4.322-3.009,1.619-4.309-4.91c-0.933-4.689-1.929-5.627-5.979-5.627
		c-3.707,0-5.567-1.018-5.567-3.043c0-0.617-1.782-4.682-3.961-9.033c-4.953-9.895-5.854-12.926-4.423-14.877
		c0.97-1.32,1.205-1.115,2.694,2.354c1.702,3.963,3.276,4.725,5.626,2.723c0.804-0.686,2.499-0.943,4.663-0.717
		c3.134,0.334,3.399,0.543,3.399,2.678c0,1.918,0.333,2.316,1.942,2.316c1.935,0,4.457-1.844,4.457-3.258
		c0-0.408,1.068-0.742,2.376-0.742c1.713,0,2.872-0.672,4.149-2.4c1.354-1.83,2.407-2.398,4.434-2.398
		c2.187,0,3.75-1.016,8.833-5.729c6.977-6.467,14.818-10.625,21.693-11.5l4.285-0.545l5.314,5.635
		c2.924,3.1,6.436,6.289,7.805,7.086c3.617,2.107,11.316,8.059,12.066,9.322c0.354,0.6,4.248,3.758,8.652,7.023
		c4.406,3.266,10.184,8.271,12.834,11.121c2.654,2.852,6.535,6.943,8.625,9.094l3.801,3.908l-2.723,1.691
		c-4.465,2.771-9.348,7.352-9.348,8.768c0,0.729-0.33,1.322-0.736,1.322c-0.404,0-0.973,1.08-1.264,2.4
		c-0.514,2.334-0.656,2.4-5.215,2.4c-2.58,0-4.893,0.324-5.139,0.725c-0.246,0.398-3.236,0.539-6.646,0.314
		c-5.275-0.352-6.977-0.117-11.398,1.557C275.731,451.106,273.951,451.165,266.744,448.555L266.744,448.555z"/>
	<g>
		<path d="M267.455,417.229h-0.527c-0.527,0-0.959-0.201-1.295-0.604c-0.039,0.238-0.156,0.502-0.352,0.791
			c-0.617,0.918-1.961,1.916-4.031,2.994l-0.439-0.82c1.922-1.02,3.17-1.947,3.744-2.782c0.172-0.25,0.258-0.482,0.258-0.697
			c0-0.211-0.067-0.436-0.201-0.674l-0.595-1.074l0.802-0.503l0.686,1.313c0.352,0.68,0.844,1.02,1.477,1.02h0.475V417.229z"/>
		<path d="M269.629,415.754c0,0.373-0.113,0.695-0.338,0.97c-0.28,0.337-0.681,0.505-1.202,0.505h-0.944v-1.037h0.925
			c0.435,0,0.651-0.16,0.651-0.482c0-0.133-0.044-0.284-0.133-0.453l-0.537-0.956l0.758-0.534c0.305,0.551,0.492,0.902,0.563,1.055
			C269.543,415.208,269.629,415.52,269.629,415.754z M268.364,419.186h-0.926v-0.926h0.926V419.186z M269.629,419.186h-0.926v-0.926
			h0.926V419.186z"/>
		<path d="M275.489,415.795c0,0.49-0.172,0.857-0.516,1.104c-0.301,0.22-0.705,0.329-1.213,0.329h-1.523
			c-0.746,0-1.318-0.313-1.717-0.941l0.627-0.629c0.191,0.241,0.352,0.393,0.48,0.456c0.105,0.052,0.277,0.077,0.516,0.077h1.676
			c0.488,0,0.732-0.131,0.732-0.394c0-0.114-0.114-0.302-0.344-0.563l-1.979-2.299l0.688-0.658l1.963,2.326
			C275.285,415.085,275.489,415.483,275.489,415.795z"/>
	</g>
	<path id="path3375" inkscape:connector-curvature="0" fill="#D9B5FB" d="M313.477,394.709c-1.941-1.479-4.756-3.1-6.25-3.6
		c-2.998-1-9.76-1.08-12.881-0.154c-1.578,0.469-2.678,0.055-5.201-1.961c-1.76-1.406-4.326-3.137-5.705-3.846
		c-1.377-0.707-3.537-2.451-4.799-3.87c-1.264-1.42-3.656-4.005-5.318-5.745l-3.021-3.164l-7.191,0.465
		c-10.273,0.666-18.27,4.687-27.317,13.734c-2.965,2.965-4.164,3.635-6.512,3.635c-2.002,0-3.123,0.459-3.687,1.51
		c-0.84,1.57-6.447,2.803-6.447,1.418c0-0.43-1.698-0.551-3.979-0.277c-2.415,0.283-4.182,0.143-4.494-0.365
		c-0.284-0.461-1.77-0.691-3.3-0.514c-2.326,0.271-2.898,0.021-3.485-1.521c-0.387-1.02-0.98-1.848-1.323-1.848
		c-0.341,0.002-0.5-2.525-0.354-5.617c0.256-5.396,0.169-5.709-2.199-7.923c-1.355-1.267-2.467-2.543-2.467-2.836
		c0-0.562,3.694-5.681,5.4-7.483c2.108-2.229,1.185-6.041-2.277-9.379c-4.38-4.228-10.506-16.529-16.714-33.563
		c-2.335-6.406-3.817-22.634-2.501-27.368c0.843-3.032,1.232-3.417,3.914-3.857c6.391-1.049,11.813-2.265,12.577-2.815
		c0.439-0.318,3.319-1.567,6.399-2.774c3.08-1.21,6.014-2.523,6.52-2.921c0.602-0.473,1.842,0.138,3.6,1.771
		c4.09,3.804,8.7,6.783,12.683,8.197c8.24,2.926,10.715,3.893,13.025,5.086c1.339,0.692,4.396,1.935,6.796,2.76
		c4.08,1.404,5.67,1.449,24.471,0.695c11.059-0.442,24.004-1.371,28.77-2.061c4.764-0.689,8.764-1.132,8.891-0.982
		c1.188,1.414,4.498,11.838,5.166,16.271c0.463,3.08,1.189,7.04,1.615,8.8c0.426,1.761,1.375,5.899,2.109,9.2
		c3.238,14.551,4.127,17.427,9.025,29.199c2.572,6.188,5.572,17.119,6.076,22.146c0.434,4.334,0.346,4.623-1.869,6.201
		c-1.277,0.908-2.895,1.652-3.59,1.652c-0.697,0-2.176,1.441-3.287,3.201C321.678,398.43,318.545,398.579,313.477,394.709
		L313.477,394.709z"/>
	<g>
		<path d="M254.856,339.706h-0.738c0.215,0.273,0.322,0.544,0.322,0.813c0,0.504-0.396,1.002-1.189,1.498
			c-0.879,0.549-1.898,0.824-3.059,0.824c-1.035,0-1.824-0.307-2.367-0.92c-0.461-0.52-0.691-1.174-0.691-1.963
			c0-0.652,0.064-1.162,0.193-1.529l0.768,0.229c-0.094,0.414-0.141,0.75-0.141,1.008c0,0.508,0.119,0.941,0.357,1.301
			c0.383,0.578,1.027,0.867,1.934,0.867c0.555,0,1.109-0.084,1.664-0.252c0.641-0.194,1.129-0.461,1.465-0.801
			c0.09-0.09,0.135-0.178,0.135-0.264c0-0.144-0.121-0.292-0.363-0.443c-0.375-0.234-1.184-0.432-2.426-0.592l0.24-0.813h3.896
			V339.706z"/>
		<path d="M258.008,339.706h-0.311c-0.609,0-1.045-0.225-1.307-0.674c-0.27,0.449-0.674,0.674-1.213,0.674h-0.645v-1.043h0.41
			c0.363,0,0.594-0.076,0.691-0.229c0.066-0.105,0.1-0.344,0.1-0.715v-1.242h0.902v0.963c0,0.502,0.092,0.839,0.275,1.012
			c0.152,0.141,0.432,0.211,0.838,0.211h0.258V339.706z M256.045,335.709h-0.932v-0.926h0.932V335.709z M257.311,335.709h-0.932
			v-0.926h0.932V335.709z"/>
		<path d="M264.635,338.299c0,0.449-0.147,0.815-0.442,1.099s-0.667,0.425-1.116,0.425c-0.648,0-1.107-0.244-1.377-0.732
			c-0.32,0.445-0.664,0.668-1.031,0.668c-0.57,0-0.979-0.242-1.225-0.727c-0.156,0.275-0.361,0.463-0.615,0.562
			c-0.191,0.075-0.465,0.112-0.82,0.112h-0.311v-1.037h0.422c0.297,0,0.504-0.068,0.621-0.205c0.105-0.126,0.158-0.342,0.158-0.646
			v-1.252h0.82v0.504c0.012,1.113,0.336,1.67,0.973,1.67c0.195,0,0.324-0.107,0.387-0.322c0.039-0.137,0.059-0.422,0.059-0.855
			v-0.996h0.826v0.762c0,0.391,0.086,0.723,0.258,0.996c0.207,0.32,0.494,0.48,0.861,0.48c0.418,0,0.627-0.174,0.627-0.521
			c0-0.223-0.207-0.684-0.621-1.383l0.732-0.51C264.364,337.346,264.635,337.983,264.635,338.299z M261.354,335.458h-0.926v-0.926
			h0.926V335.458z M261.992,334.268h-0.926v-0.926h0.926V334.268z M262.625,335.458h-0.932v-0.926h0.932V335.458z"/>
		<path d="M270.489,338.272c0,0.49-0.172,0.857-0.516,1.104c-0.301,0.22-0.705,0.329-1.213,0.329h-1.523
			c-0.746,0-1.318-0.313-1.717-0.941l0.627-0.629c0.191,0.241,0.352,0.393,0.48,0.456c0.105,0.052,0.277,0.077,0.516,0.077h1.676
			c0.488,0,0.732-0.131,0.732-0.394c0-0.114-0.114-0.302-0.344-0.563l-1.979-2.299l0.688-0.658l1.963,2.326
			C270.285,337.562,270.489,337.959,270.489,338.272z"/>
	</g>
	<path id="path3373" inkscape:connector-curvature="0" fill="#BBD0FB" d="M45.713,100.084c-1.009-1.15-2.345-3.315-2.971-4.812
		c-1.28-3.065-10.177-14.264-12.246-15.418c-0.743-0.414-3.104-2.494-5.246-4.623l-3.896-3.871L21.25,57.382l-0.104-13.978
		l-2.893-5.232l-2.892-5.232l4.997-5.275c3.478-3.669,5.404-6.501,6.336-9.306c0.737-2.217,1.859-4.463,2.495-4.991
		c0.638-0.528,1.156-1.456,1.156-2.062c0-1.56,0.16-1.494,5.762,2.399C47.21,21.419,58.48,26.21,73.753,29.706
		c2.974,0.681,7.038,2.194,9.034,3.364c3.475,2.036,3.574,2.198,2.385,3.83c-5.771,7.911-5.535,7.188-5.499,16.776
		c0.064,17.547,3.787,22.471,13.918,18.417c3.043-1.217,3.372-1.216,4.604,0.015c1.02,1.019,1.124,1.647,0.455,2.711
		c-0.729,1.16-2.556,1.45-11.265,1.786c-6.524,0.251-10.838,0.769-11.586,1.391c-0.656,0.544-1.604,2.359-2.104,4.032
		c-1.096,3.656-3.627,6.11-10.547,10.222c-2.859,1.699-7.104,4.634-9.432,6.522s-4.667,3.426-5.2,3.417
		C47.982,102.182,46.72,101.234,45.713,100.084z"/>
	<g>
		<path d="M51.28,58.229h-0.334c-0.434,0-0.869-0.191-1.307-0.574c-0.293,0.395-0.785,0.592-1.477,0.592
			c-0.191,0-0.479-0.029-0.861-0.088s-0.67-0.088-0.861-0.088c-0.531,0-0.797,0.322-0.797,0.967v4.336h-0.908v-4.518
			c0-0.516,0.141-0.936,0.422-1.26c0.297-0.344,0.699-0.516,1.207-0.516c0.16-1.293,0.75-1.939,1.77-1.939
			c0.461,0,0.863,0.149,1.207,0.447c0.359,0.305,0.547,0.688,0.563,1.146c0.285,0.306,0.662,0.458,1.131,0.458h0.246V58.229z
			 M49.117,56.729c0-0.227-0.115-0.416-0.346-0.568c-0.203-0.137-0.424-0.205-0.662-0.205c-0.551,0-0.891,0.377-1.02,1.131
			c0.445,0.09,0.85,0.135,1.213,0.135C48.846,57.221,49.117,57.057,49.117,56.729z"/>
		<path d="M54.455,58.229h-0.328c-0.211,0-0.436-0.057-0.674-0.171c-0.297-0.142-0.5-0.334-0.609-0.579
			c-0.227,0.5-0.746,0.75-1.559,0.75h-0.316v-1.037h0.334c0.352,0,0.584-0.043,0.697-0.129c0.141-0.109,0.211-0.344,0.211-0.704
			V51.45h0.896v4.487c0,0.837,0.326,1.255,0.979,1.255h0.369V58.229z"/>
		<path d="M56.629,56.755c0,0.372-0.113,0.695-0.338,0.969c-0.28,0.336-0.681,0.505-1.202,0.505h-0.944v-1.037h0.925
			c0.435,0,0.651-0.161,0.651-0.482c0-0.133-0.044-0.284-0.133-0.453L55.051,55.3l0.758-0.534c0.305,0.551,0.492,0.902,0.563,1.055
			C56.543,56.208,56.629,56.52,56.629,56.755z M55.364,60.186h-0.926V59.26h0.926V60.186z M56.629,60.186h-0.926V59.26h0.926V60.186
			z"/>
		<path d="M62.489,56.796c0,0.49-0.172,0.857-0.516,1.104c-0.301,0.22-0.705,0.329-1.213,0.329h-1.523
			c-0.746,0-1.318-0.313-1.717-0.941l0.627-0.629c0.191,0.241,0.352,0.393,0.48,0.456c0.105,0.052,0.277,0.077,0.516,0.077h1.676
			c0.488,0,0.732-0.131,0.732-0.394c0-0.114-0.114-0.302-0.344-0.564l-1.979-2.299l0.688-0.658l1.963,2.326
			C62.285,56.085,62.489,56.483,62.489,56.796z"/>
	</g>
	<path id="path3371" inkscape:connector-curvature="0" fill="#B7FBC8" d="M391.946,470.5c-3.248-1.707-7.602-3.156-11.6-3.861
		c-10.439-1.838-20.23-6.117-25.615-11.197c-1.654-1.563-3.287-2.836-3.625-2.836c-1.035,0-8.76-6.387-8.76-7.238
		c0-0.777-4.305-7.373-6.293-9.643c-0.541-0.615-1.775-2.615-2.746-4.443c-2.902-5.48-21.273-24.184-29.754-30.291
		c-4.186-3.018-7.607-5.744-7.607-6.064c0-0.318,1.395-0.816,3.1-1.104c3.627-0.613,7.418,0.742,11.893,4.254
		c3.188,2.498,8.836,3.805,12.492,2.887c1.137-0.285,2.752-1.703,3.623-3.18c0.955-1.619,2.932-3.273,5.033-4.213l3.461-1.545
		l2.047,2.09c1.127,1.146,4.104,3.824,6.613,5.945c2.512,2.121,5.244,5.184,6.074,6.801c2.637,5.141,4.863,6.563,12.596,8.051
		c8.57,1.646,12.842,4.217,14.387,8.654c0.582,1.672,1.063,3.852,1.07,4.848c0.016,2.367,10.609,23.389,14.074,27.928
		c1.48,1.939,3.025,4.863,3.436,6.494c0.744,2.986,1.832,10.641,1.486,10.484C397.229,473.274,394.805,472.004,391.946,470.5
		L391.946,470.5z"/>
	<text transform="matrix(1 0 0 1 348.1252 432.6743)" font-family="'BTraffic'" font-size="12">مج</text>
	<path id="path3369" inkscape:connector-curvature="0" fill="#FABCBD" d="M454.022,541.717c-2.574-2.809-2.756-2.871-6.959-2.361
		c-5.799,0.699-9.832,0.711-15.215,0.031c-3.01-0.379-4.678-0.27-5.047,0.326c-0.934,1.508-2.568,1.004-5.969-1.838
		c-1.902-1.59-4.588-2.951-6.43-3.262c-2.305-0.391-3.725-1.271-5.232-3.25l-2.072-2.717l3.221-2.332
		c1.771-1.283,4.57-2.586,6.223-2.896c3.389-0.635,4.176-1.488,4.191-4.551c0.018-2.719-4.154-5.465-8.301-5.465
		c-2.404,0-3.064-0.365-3.707-2.053c-0.428-1.127-0.779-2.904-0.779-3.947c0-2.408-0.918-4.434-4.705-10.383l-3.043-4.785
		l1.939-1.525c1.322-1.041,1.811-2.063,1.535-3.215c-0.383-1.598-0.352-1.607,0.533-0.176c4.402,7.111,5.529,7.961,17.693,13.357
		c10.666,4.734,12.303,5.73,15.965,9.73c2.244,2.451,6.961,6.611,10.48,9.248c7.125,5.334,8.762,6.965,12.102,12.045
		c5.035,7.658,4.813,7.012,3.074,8.93c-1.451,1.605-5.254,3.973-6.377,3.973C456.881,544.604,455.475,543.305,454.022,541.717
		L454.022,541.717z"/>
	<g>
		<path d="M426.155,528.271h-0.428c-0.824,0-1.43-0.332-1.816-0.996c-0.406,0.117-0.883,0.176-1.43,0.176
			c-1.262,0-1.893-0.514-1.893-1.541c0-0.375,0.281-0.766,0.844-1.172c0.098-0.07,0.48-0.299,1.148-0.686l-0.217-0.51l0.732-0.498
			l1.014,2.752c0.184,0.497,0.359,0.835,0.527,1.015c0.262,0.282,0.641,0.423,1.137,0.423h0.381V528.271z M423.512,526.455
			l-0.645-1.611c-0.5,0.242-0.846,0.438-1.037,0.586c-0.277,0.211-0.416,0.428-0.416,0.65c0,0.305,0.375,0.457,1.125,0.457
			C422.91,526.537,423.235,526.509,423.512,526.455z"/>
		<path d="M428.323,526.797c0,0.371-0.113,0.694-0.338,0.969c-0.28,0.336-0.681,0.505-1.202,0.505h-0.944v-1.037h0.925
			c0.435,0,0.651-0.161,0.651-0.482c0-0.134-0.044-0.284-0.133-0.452l-0.537-0.957l0.758-0.534c0.305,0.551,0.492,0.902,0.563,1.055
			C428.237,526.25,428.323,526.562,428.323,526.797z M427.057,530.228h-0.926v-0.926h0.926V530.228z M428.323,530.228h-0.926v-0.926
			h0.926V530.228z"/>
		<path d="M435.026,528.271h-1.395c-0.332,1.186-1.75,2.393-4.254,3.621l-0.457-0.782c2.055-0.97,3.328-1.916,3.82-2.839h-0.697
			c-0.516,0-0.914-0.142-1.195-0.423c-0.281-0.283-0.422-0.684-0.422-1.201c0-0.376,0.138-0.697,0.413-0.965
			c0.275-0.266,0.603-0.399,0.981-0.399s0.74,0.142,1.084,0.423c0.434,0.357,0.693,0.866,0.779,1.528h1.342V528.271z
			 M432.805,527.257c-0.012-0.308-0.141-0.571-0.387-0.788c-0.207-0.186-0.404-0.278-0.592-0.278c-0.152,0-0.291,0.046-0.416,0.136
			c-0.141,0.1-0.211,0.222-0.211,0.367c0,0.376,0.225,0.563,0.674,0.563H432.805z"/>
		<path d="M438.201,528.271h-0.328c-0.211,0-0.436-0.058-0.674-0.171c-0.297-0.143-0.5-0.335-0.609-0.579
			c-0.227,0.5-0.746,0.75-1.559,0.75h-0.316v-1.037h0.334c0.352,0,0.584-0.043,0.697-0.129c0.141-0.109,0.211-0.345,0.211-0.704
			v-4.909h0.896v4.487c0,0.836,0.326,1.255,0.979,1.255h0.369V528.271z"/>
		<path d="M445.795,528.271h-0.328c-0.25,0-0.494-0.062-0.732-0.183c-0.258-0.131-0.439-0.3-0.545-0.509
			c-0.277,0.492-0.654,0.738-1.131,0.738c-0.512,0-0.889-0.246-1.131-0.738c-0.281,0.492-0.637,0.738-1.066,0.738
			c-0.555,0-0.959-0.246-1.213-0.738c-0.227,0.461-0.598,0.691-1.113,0.691h-0.65v-1.037h0.592c0.41,0,0.615-0.187,0.615-0.56
			v-1.591h0.85v0.454c0,1.166,0.303,1.749,0.908,1.749c0.293,0,0.439-0.204,0.439-0.612v-1.591h0.844v0.454
			c0,1.166,0.32,1.749,0.961,1.749c0.316,0,0.475-0.204,0.475-0.61v-1.593h0.844v0.981c0,0.779,0.303,1.169,0.908,1.169h0.475
			V528.271z"/>
		<path d="M450.5,528.271h-5.016v-1.037h0.949c-0.176-0.329-0.264-0.716-0.264-1.163c0-0.453,0.166-0.847,0.498-1.18
			c0.379-0.379,0.879-0.569,1.5-0.569c0.684,0,1.387,0.229,2.109,0.686l-0.428,0.68c-0.563-0.316-1.07-0.475-1.523-0.475
			c-0.281,0-0.537,0.072-0.768,0.218c-0.262,0.168-0.393,0.388-0.393,0.658c0,0.764,0.443,1.146,1.33,1.146h2.004V528.271z"/>
	</g>
	<path id="path3363" inkscape:connector-curvature="0" fill="#8CC63C" d="M392.77,486.573c-3.842-3.867-8.289-5.635-12.211-4.852
		c-1.391,0.277-2.105,0.152-1.813-0.318c0.268-0.434-0.045-0.578-0.697-0.326c-0.648,0.248-1.936,0.047-2.857-0.447
		c-2.004-1.072-13.281-4.023-15.373-4.023c-0.811,0-1.473-0.383-1.473-0.848c0-0.467-0.352-0.631-0.777-0.367
		s-1.85-0.076-3.16-0.754s-2.957-1.232-3.656-1.232c-1.559,0-2.152-0.475-10.021-8c-3.449-3.299-7.043-6.646-7.984-7.439
		c-1.328-1.117-1.596-1.965-1.191-3.801c0.385-1.75,0.191-2.486-0.744-2.846c-0.695-0.268-1.264-1.129-1.264-1.914
		c0-1.982-1.555-2.4-8.951-2.4c-5.525,0-6.354-0.176-5.936-1.266c0.268-0.695,0.484-2.047,0.484-3.004
		c0-1.127,0.775-2.084,2.201-2.717c1.209-0.537,4.059-2.605,6.328-4.596c2.271-1.99,4.459-3.617,4.859-3.617
		c1.281,0,3.949,3.404,8.154,10.4c3.488,5.807,5.221,7.703,11.871,12.986c4.281,3.402,8.258,6.191,8.832,6.199
		c0.576,0.008,0.852,0.332,0.609,0.723c-0.24,0.391,0.188,0.662,0.951,0.602c0.768-0.061,1.307,0.326,1.201,0.861
		c-0.104,0.533,0.266,0.797,0.818,0.584c0.555-0.213,2.801,0.471,4.99,1.52s7.393,2.529,11.559,3.289
		c5.848,1.066,9.314,2.285,15.199,5.346c8.646,4.498,10.838,6.885,9.357,10.195c-0.852,1.904-4.365,5.631-5.334,5.652
		C396.526,490.167,394.737,488.551,392.77,486.573L392.77,486.573z"/>
	<g>
		<path d="M357.33,473.063c0,0.789-0.236,1.49-0.709,2.104c-0.629,0.82-1.564,1.23-2.807,1.23c-0.879,0-1.6-0.27-2.162-0.809
			c-0.574-0.551-0.861-1.264-0.861-2.139c0-0.438,0.098-0.955,0.293-1.553l0.809,0.211c-0.145,0.438-0.217,0.854-0.217,1.248
			c0,0.602,0.223,1.092,0.668,1.471c0.426,0.363,0.943,0.545,1.553,0.545c0.758,0,1.371-0.201,1.84-0.604
			c0.496-0.43,0.744-1.018,0.744-1.764c0-0.484-0.213-1.092-0.639-1.822l0.768-0.527C357.09,471.44,357.33,472.243,357.33,473.063z
			 M354.178,471.956h-0.932v-0.926h0.932V471.956z"/>
		<path d="M360.846,474.323h-0.82c-1.176,0-1.764-0.707-1.764-2.123v-4.674h0.984v4.593c0,0.392,0.057,0.673,0.17,0.845
			c0.141,0.215,0.395,0.322,0.762,0.322h0.668V474.323z"/>
		<path d="M365.439,468.302l-3.433,0.81c-0.262,0.063-0.393,0.163-0.393,0.3c0,0.095,0.059,0.253,0.176,0.476l1.042,1.969
			c0.32,0.608,0.652,1.014,0.996,1.218c0.239,0.142,0.552,0.212,0.938,0.212h0.281v1.037h-0.422c-0.289,0-0.591-0.08-0.905-0.238
			c-0.314-0.16-0.552-0.357-0.712-0.594c-0.25,0.555-0.801,0.832-1.652,0.832h-0.826v-1.037h0.873c0.547,0,0.82-0.156,0.82-0.47
			c0-0.172-0.076-0.405-0.229-0.698l-1.031-1.99c-0.102-0.195-0.152-0.393-0.152-0.592c0-0.57,0.299-0.928,0.896-1.072l3.398-0.826
			L365.439,468.302z M364.991,467.379l-4.006,0.959l-0.233-0.414l4.037-0.967L364.991,467.379z"/>
		<path d="M368.199,474.323h-0.311c-0.609,0-1.045-0.225-1.307-0.674c-0.27,0.449-0.674,0.674-1.213,0.674h-0.645v-1.043h0.41
			c0.363,0,0.594-0.076,0.691-0.229c0.066-0.105,0.1-0.344,0.1-0.715v-1.242h0.902v0.963c0,0.502,0.092,0.839,0.275,1.012
			c0.152,0.141,0.432,0.211,0.838,0.211h0.258V474.323z M366.858,470.069h-0.932v-0.926h0.932V470.069z"/>
		<path d="M372.575,468.256l-3.163,0.918c-0.258,0.073-0.387,0.174-0.387,0.303c0,0.094,0.057,0.246,0.169,0.461l0.982,1.928
			c0.205,0.408,0.308,0.739,0.308,0.994c0,0.975-0.592,1.463-1.775,1.463h-0.826v-1.037h0.873c0.547,0,0.82-0.156,0.82-0.47
			c0-0.172-0.076-0.405-0.229-0.698l-1.031-1.99c-0.121-0.234-0.182-0.455-0.182-0.662c0-0.516,0.309-0.865,0.926-1.049l3.188-0.943
			L372.575,468.256z"/>
	</g>
</g>
</svg>
